<svg width="418" height="48" viewBox="0 0 418 48" fill="none" xmlns="http://www.w3.org/2000/svg">
<rect width="418" height="48" fill="#1E1E1E"/>
<path d="M407.55 0H10.45C4.67862 0 0 3.58172 0 8V40C0 44.4183 4.67862 48 10.45 48H407.55C413.321 48 418 44.4183 418 40V8C418 3.58172 413.321 0 407.55 0Z" fill="#101010"/>
<path fill-rule="evenodd" clip-rule="evenodd" d="M168.36 12.001C165.953 12.001 164.749 12.001 163.463 12.4008C162.043 12.9151 160.924 14.0344 160.41 15.4555C160 16.7548 160 17.9571 160 20.3645V27.6282C160 30.0485 160 31.2406 160.4 32.5371C160.914 33.9574 162.033 35.0766 163.453 35.5909C164.751 36.0028 165.953 36.0028 168.36 36.0028H175.631C178.04 36.0028 179.241 36.0028 180.537 35.5909C181.957 35.0766 183.075 33.9574 183.59 32.5371C184 31.2379 184 30.0356 184 27.6282V20.3746C184 17.9645 184 16.7622 183.59 15.4657C183.075 14.0454 181.956 12.9262 180.537 12.4119C179.229 12 178.04 12 175.619 12H168.359L168.36 12.001Z" fill="#00D633"/>
<path d="M172.971 22.8357C175.5 23.3776 176.656 24.4252 176.656 26.1954C176.656 28.4146 174.849 30.0527 172.028 30.2261L171.753 31.5387C171.726 31.667 171.612 31.7589 171.481 31.7589H169.311C169.132 31.7589 169 31.5919 169.042 31.4179L169.39 29.9499C167.992 29.5521 166.867 28.7782 166.211 27.823C166.128 27.7027 166.155 27.5384 166.271 27.4488L167.787 26.269C167.912 26.1718 168.092 26.2003 168.184 26.3289C168.988 27.4476 170.221 28.1101 171.706 28.1101C173.043 28.1101 174.055 27.4598 174.055 26.5206C174.055 25.798 173.549 25.4729 171.851 25.1116C168.925 24.4975 167.769 23.4137 167.769 21.6435C167.769 19.5896 169.495 18.0381 172.098 17.8366L172.383 16.4809C172.41 16.3526 172.523 16.2607 172.654 16.2607H174.795C174.971 16.2607 175.103 16.4238 175.066 16.5964L174.737 18.1154C175.857 18.4603 176.769 19.077 177.337 19.8379C177.425 19.9559 177.403 20.1229 177.289 20.2162L175.905 21.351C175.785 21.4496 175.609 21.4281 175.511 21.3072C174.808 20.4372 173.701 19.9456 172.501 19.9456C171.164 19.9456 170.334 20.5236 170.334 21.3545C170.334 22.0409 170.984 22.4022 172.971 22.8357Z" fill="white"/>
<path d="M197.862 18.1467C197.822 18.0388 197.718 17.9674 197.603 17.9674H195.351C195.235 17.9674 195.132 18.0389 195.091 18.1469L190.752 29.6866C190.684 29.8678 190.817 30.0612 191.011 30.0612H192.717C192.833 30.0612 192.937 29.9891 192.977 29.8805L193.904 27.383H199.007L199.942 29.8812C199.983 29.9895 200.086 30.0612 200.202 30.0612H201.951C202.144 30.0612 202.278 29.8677 202.21 29.6865L197.862 18.1467ZM194.645 25.3871L196.439 20.536L198.258 25.3871H194.645Z" fill="white"/>
<path d="M213.184 28.239C213.027 28.2523 212.879 28.2589 212.667 28.2589C211.96 28.2589 211.522 28.1663 211.522 27.3915V23.0542H213.072C213.225 23.0542 213.349 22.9301 213.349 22.7771V21.4869C213.349 21.3339 213.225 21.2098 213.072 21.2098H211.522V18.9266C211.522 18.7736 211.398 18.6496 211.245 18.6496H209.643C209.49 18.6496 209.366 18.7736 209.366 18.9266V21.2098H205.871V20.8224C205.871 19.8791 206.284 19.6518 207.05 19.6518C207.181 19.6518 207.277 19.6518 207.372 19.6541C207.528 19.6579 207.656 19.5332 207.656 19.3772V18.0772C207.656 17.9293 207.54 17.8072 207.392 17.8004C207.18 17.7906 207.021 17.7906 206.781 17.7906C204.7 17.7906 203.681 18.8264 203.681 20.6792V21.2098H202.746C202.593 21.2098 202.469 21.3339 202.469 21.4869V22.7771C202.469 22.9301 202.593 23.0542 202.746 23.0542H203.681V29.7842C203.681 29.9372 203.805 30.0612 203.958 30.0612H205.594C205.747 30.0612 205.871 29.9372 205.871 29.7842V23.0542H209.366V27.7957C209.366 29.6065 210.292 30.1622 212.027 30.1622C212.479 30.1622 212.898 30.1289 213.251 30.0757C213.386 30.0554 213.484 29.9382 213.484 29.8019V28.515C213.484 28.3528 213.345 28.2253 213.184 28.239Z" fill="white"/>
<path d="M218.68 21.0413C216.196 21.0413 214.419 23.0374 214.419 25.6397C214.419 28.3768 216.196 30.2465 218.765 30.2465C220.428 30.2465 221.808 29.4344 222.492 28.0207C222.563 27.8747 222.488 27.6994 222.336 27.6435L221.01 27.1574C220.874 27.1077 220.722 27.17 220.663 27.3018C220.338 28.0319 219.635 28.4189 218.773 28.4189C217.544 28.4189 216.676 27.5515 216.516 26.1197H222.387C222.54 26.1197 222.664 25.9957 222.664 25.8427V25.4376C222.664 22.9868 221.274 21.0413 218.68 21.0413ZM216.609 24.5617C216.903 23.4247 217.67 22.8352 218.664 22.8352C219.876 22.8352 220.457 23.6353 220.474 24.5617H216.609Z" fill="white"/>
<path d="M229.103 21.1699C229.009 21.1635 228.905 21.1592 228.787 21.1592C227.675 21.1592 226.782 21.6899 226.395 22.4899V21.4868C226.395 21.3338 226.271 21.2098 226.118 21.2098H224.482C224.329 21.2098 224.205 21.3338 224.205 21.4868V29.7841C224.205 29.9371 224.329 30.0612 224.482 30.0612H226.118C226.271 30.0612 226.395 29.9371 226.395 29.7841V25.4882C226.395 24.0985 227.355 23.3069 228.61 23.3069C228.779 23.3069 228.918 23.3127 229.058 23.3245C229.22 23.3381 229.359 23.2111 229.359 23.0486V21.4462C229.359 21.3011 229.248 21.1797 229.103 21.1699Z" fill="white"/>
<path d="M235.49 21.0413C234.362 21.0413 233.519 21.4877 232.98 22.1362V21.4868C232.98 21.3338 232.856 21.2098 232.703 21.2098H231.068C230.915 21.2098 230.791 21.3338 230.791 21.4868V32.7992C230.791 32.9522 230.915 33.0762 231.068 33.0762H232.703C232.856 33.0762 232.98 32.9522 232.98 32.7992V29.1432C233.519 29.8001 234.362 30.2465 235.49 30.2465C237.949 30.2465 239.364 28.1578 239.364 25.6397C239.364 23.13 237.949 21.0413 235.49 21.0413ZM235.01 28.3516C233.823 28.3516 232.93 27.4672 232.93 25.9008V25.3955C232.93 23.8038 233.823 22.9363 235.01 22.9363C236.408 22.9363 237.158 24.0395 237.158 25.6397C237.158 27.2483 236.408 28.3516 235.01 28.3516Z" fill="white"/>
<path d="M248.342 28.4077C248.001 28.3924 247.862 28.2179 247.862 27.821V24.1069C247.862 22.0604 246.548 21.0413 244.367 21.0413C242.48 21.0413 241.205 22.0597 240.696 23.3932C240.635 23.5536 240.73 23.731 240.899 23.7659L242.42 24.0813C242.554 24.1091 242.689 24.0349 242.736 23.9063C242.98 23.2315 243.452 22.8942 244.282 22.8942C245.31 22.8942 245.723 23.3911 245.723 24.1912V24.3343L243.398 24.7975C241.655 25.1344 240.316 25.8755 240.316 27.602C240.316 29.1768 241.604 30.2128 243.314 30.2128C244.468 30.2128 245.377 29.8506 245.942 29.2274C246.267 29.9179 247.034 30.2194 248.361 30.0898C248.503 30.076 248.611 29.956 248.611 29.8137V28.6842C248.611 28.5345 248.492 28.4144 248.342 28.4077ZM245.723 26.9282C245.723 27.9641 244.737 28.5115 243.701 28.5115C242.96 28.5115 242.48 28.141 242.48 27.4925C242.48 26.743 243.087 26.4819 243.903 26.3134L245.723 25.9345V26.9282Z" fill="white"/>
<path d="M257.113 21.2098H255.48C255.361 21.2098 255.256 21.2855 255.218 21.3979L253.243 27.223L251.219 21.3959C251.181 21.2845 251.076 21.2098 250.958 21.2098H249.272C249.079 21.2098 248.945 21.4032 249.013 21.5843L252.073 29.7243L251.761 30.4907C251.491 31.1644 251.163 31.3413 250.515 31.3413C250.368 31.3413 250.256 31.336 250.139 31.3268C249.978 31.3142 249.841 31.4416 249.841 31.603V32.8528C249.841 32.9953 249.949 33.1151 250.091 33.1285C250.257 33.1442 250.418 33.152 250.717 33.152C252.612 33.152 253.403 32.1835 253.942 30.7266L257.373 21.5842C257.441 21.403 257.307 21.2098 257.113 21.2098Z" fill="white"/>
</svg>
