<svg width="34" height="21" viewBox="0 0 34 21" fill="none" xmlns="http://www.w3.org/2000/svg">
<path d="M0 2.8C0 1.2536 1.21779 0 2.72 0H31.28C32.7822 0 34 1.2536 34 2.8V18.2C34 19.7464 32.7822 21 31.28 21H2.72C1.21778 21 0 19.7464 0 18.2V2.8Z" fill="white"/>
<path d="M34 18.2V9.8C34 9.8 31.4232 12.9111 25.6253 16.0222C19.8274 19.1333 9.52 21 9.52 21H31.28C32.7822 21 34 19.7464 34 18.2Z" fill="#E87E04"/>
<path d="M5.24835 6.32871H4.08V10.5411H5.24835C5.86407 10.5411 6.31728 10.3878 6.7069 10.0527C7.17424 9.65163 7.4503 9.05417 7.4503 8.43489C7.44273 7.19581 6.54389 6.32871 5.24835 6.32871ZM6.18253 9.49162C5.93473 9.72489 5.6092 9.82672 5.0924 9.82672H4.87993V7.04307H5.0924C5.6092 7.04307 5.9206 7.13762 6.18253 7.38544C6.45859 7.64053 6.62161 8.02654 6.62161 8.43489C6.62161 8.83545 6.45859 9.23653 6.18253 9.49162Z" fill="#231F20"/>
<path d="M8.60997 6.32871H7.81004V10.5411H8.60997V6.32871Z" fill="#231F20"/>
<path d="M10.558 7.94655C10.0765 7.76419 9.94224 7.64054 9.94224 7.41454C9.94224 7.15218 10.19 6.94801 10.5368 6.94801C10.7775 6.94801 10.9688 7.04983 11.1807 7.29038L11.5986 6.72928C11.259 6.42328 10.8482 6.26274 10.3949 6.26274C9.67273 6.26274 9.12061 6.7802 9.12061 7.46546C9.12061 8.04837 9.37547 8.33983 10.1259 8.61674C10.4373 8.73312 10.6004 8.80637 10.6781 8.85728C10.8411 8.96639 10.9188 9.11965 10.9188 9.29473C10.9188 9.6371 10.6569 9.88492 10.3031 9.88492C9.92104 9.88492 9.61621 9.68801 9.4325 9.32382L8.9157 9.834C9.28362 10.3878 9.7227 10.6356 10.3314 10.6356C11.1595 10.6356 11.7399 10.0673 11.7399 9.25109C11.7404 8.58817 11.4714 8.28892 10.558 7.94655Z" fill="#231F20"/>
<path d="M11.9877 8.43521C11.9877 9.67429 12.9294 10.6287 14.1467 10.6287C14.4864 10.6287 14.7836 10.5559 15.145 10.3809V9.4114C14.8265 9.73923 14.5434 9.87067 14.182 9.87067C13.3821 9.87067 12.8088 9.27321 12.8088 8.42066C12.8088 7.61175 13.3962 6.97792 14.1467 6.97792C14.5288 6.97792 14.8124 7.11663 15.145 7.45173V6.48229C14.7983 6.29993 14.5081 6.2272 14.1608 6.2272C12.9572 6.23447 11.9877 7.21067 11.9877 8.43521Z" fill="#231F20"/>
<path d="M21.4669 9.15652L20.3768 6.32871H19.5062L21.2473 10.6502H21.6723L23.4422 6.32871H22.5787L21.4669 9.15652Z" fill="#231F20"/>
<path d="M23.8033 10.5411H26.0618V9.82672H24.5962V8.68998H26.0053V7.97563H24.5962V7.04307H26.0618V6.32871H23.8033V10.5411Z" fill="#231F20"/>
<path d="M29.2193 7.57507C29.2193 6.78798 28.6954 6.32871 27.7749 6.32871H26.5924V10.5411H27.3923V8.85052H27.4983L28.6026 10.5411H29.5867L28.2982 8.76999C28.8867 8.63907 29.2193 8.21617 29.2193 7.57507ZM27.6194 8.26708H27.3858V6.99163H27.6336C28.1292 6.99163 28.3982 7.20308 28.3982 7.61819C28.3982 8.04109 28.1292 8.26708 27.6194 8.26708Z" fill="#231F20"/>
<path d="M17.5801 10.6867C18.7803 10.6867 19.7533 9.68512 19.7533 8.4496C19.7533 7.21408 18.7803 6.2125 17.5801 6.2125C16.3799 6.2125 15.4069 7.21408 15.4069 8.4496C15.4069 9.68512 16.3799 10.6867 17.5801 10.6867Z" fill="url(#paint0_linear_8694_77739)"/>
<path d="M17.5801 10.6867C18.7803 10.6867 19.7533 9.68512 19.7533 8.4496C19.7533 7.21408 18.7803 6.2125 17.5801 6.2125C16.3799 6.2125 15.4069 7.21408 15.4069 8.4496C15.4069 9.68512 16.3799 10.6867 17.5801 10.6867Z" fill="url(#paint1_linear_8694_77739)"/>
<path d="M29.7287 6.4886C29.7287 6.41587 29.6793 6.37223 29.594 6.37223H29.4809V6.74369H29.5657V6.5977L29.6646 6.74369H29.7706L29.6505 6.59043C29.7005 6.57588 29.7287 6.53952 29.7287 6.4886ZM29.5803 6.53952H29.5662V6.44496H29.5803C29.6227 6.44496 29.6439 6.45951 29.6439 6.49588C29.6439 6.52497 29.6227 6.53952 29.5803 6.53952Z" fill="#231F20"/>
<path d="M29.6078 6.23403C29.4307 6.23403 29.2964 6.38002 29.2964 6.55458C29.2964 6.73694 29.4383 6.87513 29.6078 6.87513C29.7779 6.87513 29.9192 6.72915 29.9192 6.55458C29.9192 6.38002 29.7774 6.23403 29.6078 6.23403ZM29.6078 6.82422C29.4731 6.82422 29.36 6.70785 29.36 6.56186C29.36 6.41587 29.4731 6.29949 29.6078 6.29949C29.7426 6.29949 29.8556 6.42314 29.8556 6.56186C29.8556 6.70733 29.7421 6.82422 29.6078 6.82422Z" fill="#231F20"/>
<path fill-rule="evenodd" clip-rule="evenodd" d="M31.28 0.7H2.72C1.59334 0.7 0.68 1.6402 0.68 2.8V18.2C0.68 19.3598 1.59334 20.3 2.72 20.3H31.28C32.4067 20.3 33.32 19.3598 33.32 18.2V2.8C33.32 1.6402 32.4067 0.7 31.28 0.7ZM2.72 0C1.21779 0 0 1.2536 0 2.8V18.2C0 19.7464 1.21778 21 2.72 21H31.28C32.7822 21 34 19.7464 34 18.2V2.8C34 1.2536 32.7822 0 31.28 0H2.72Z" fill="#E87E04"/>
<defs>
<linearGradient id="paint0_linear_8694_77739" x1="25.7139" y1="18.9258" x2="20.238" y2="5.04471" gradientUnits="userSpaceOnUse">
<stop stop-color="#F89F20"/>
<stop offset="0.2502" stop-color="#F79A20"/>
<stop offset="0.5331" stop-color="#F68D20"/>
<stop offset="0.6196" stop-color="#F58720"/>
<stop offset="0.7232" stop-color="#F48120"/>
<stop offset="1" stop-color="#F37521"/>
</linearGradient>
<linearGradient id="paint1_linear_8694_77739" x1="23.8518" y1="18.7704" x2="16.3158" y2="-5.07728" gradientUnits="userSpaceOnUse">
<stop stop-color="#F58720"/>
<stop offset="0.3587" stop-color="#E16F27"/>
<stop offset="0.703" stop-color="#D4602C"/>
<stop offset="0.9816" stop-color="#D05B2E"/>
</linearGradient>
</defs>
</svg>
