<svg width="616" height="662" viewBox="0 0 616 662" fill="none" xmlns="http://www.w3.org/2000/svg">
<rect width="616" height="662" fill="#1E1E1E"/>
<rect width="616" height="662" fill="white"/>
<rect x="126.5" y="0.5" width="362" height="73" stroke="black"/>
<path d="M138.129 30.76C138.129 26.12 141.769 23.12 147.369 23.12C152.249 23.12 155.489 25.84 156.049 30.4H154.049C153.649 26.88 151.249 24.88 147.369 24.88C142.969 24.88 140.049 27.2 140.049 30.76C140.049 33.48 141.689 35.28 144.929 36.12L149.969 37.4C154.249 38.48 156.529 41.04 156.529 44.68C156.529 49.44 152.849 52.48 147.169 52.48C141.849 52.48 138.249 49.72 137.809 45.28H139.849C140.009 48.52 142.929 50.68 147.169 50.68C151.689 50.68 154.609 48.36 154.609 44.72C154.609 41.92 152.969 40.04 149.609 39.2L144.689 37.96C140.409 36.88 138.129 34.44 138.129 30.76ZM169.16 52.48C163.6 52.48 159.92 48.48 159.92 42.44C159.92 36.44 163.56 32.32 168.92 32.32C173.92 32.32 177.36 35.92 177.36 41.16V42.44H161.76C161.92 47.68 164.64 50.8 169.16 50.8C172.56 50.8 174.72 49.32 175.48 46.48H177.36C176.24 50.44 173.48 52.48 169.16 52.48ZM168.92 34C165 34 162.24 36.72 161.8 40.92H175.48C175.48 36.76 172.88 34 168.92 34ZM183.985 52H182.145V23.12H183.985V52ZM192.228 52H190.388V23.12H192.228V52ZM206.27 52.48C200.71 52.48 197.03 48.48 197.03 42.44C197.03 36.44 200.67 32.32 206.03 32.32C211.03 32.32 214.47 35.92 214.47 41.16V42.44H198.87C199.03 47.68 201.75 50.8 206.27 50.8C209.67 50.8 211.83 49.32 212.59 46.48H214.47C213.35 50.44 210.59 52.48 206.27 52.48ZM206.03 34C202.11 34 199.35 36.72 198.91 40.92H212.59C212.59 36.76 209.99 34 206.03 34ZM228.255 32.52V34.12H226.815C223.255 34.12 220.935 36.72 220.935 40.32V52H219.095V32.8H220.815L220.975 35.88C221.735 33.72 223.855 32.32 226.575 32.32C227.175 32.32 227.615 32.36 228.255 32.52ZM241.593 46.8H243.393C243.393 49.28 245.233 50.8 248.193 50.8C251.433 50.8 253.433 49.36 253.433 47C253.433 45.12 252.513 44.16 250.033 43.52L246.793 42.68C243.513 41.84 241.953 40 241.953 37.64C241.953 34.44 244.593 32.32 248.553 32.32C252.513 32.32 254.993 34.44 255.113 37.92H253.313C253.193 35.44 251.433 34 248.553 34C245.473 34 243.793 35.28 243.793 37.64C243.793 39.28 244.913 40.44 247.233 41.04L250.433 41.88C253.793 42.76 255.273 44.32 255.273 47C255.273 50.28 252.473 52.48 248.273 52.48C244.193 52.48 241.593 50.28 241.593 46.8ZM273.868 32.8H275.708V52H274.228L273.868 48.44C272.828 50.84 270.108 52.48 266.908 52.48C262.308 52.48 259.948 49.32 259.948 44.64V32.76H261.828V44.16C261.828 49.08 264.148 50.8 267.348 50.8C271.388 50.8 273.868 48 273.868 43.04V32.8ZM283.27 52H281.79V23.12H283.63V36.96C285.03 33.84 287.67 32.32 291.07 32.32C296.71 32.32 299.91 36.72 299.91 42.4C299.91 48.08 296.71 52.48 291.07 52.48C287.75 52.48 284.99 50.96 283.55 47.68L283.27 52ZM283.67 42.4C283.67 47.28 286.27 50.8 290.87 50.8C295.43 50.8 298.03 47.28 298.03 42.4C298.03 37.56 295.43 34 290.87 34C286.27 34 283.67 37.56 283.67 42.4ZM306.403 52H304.563V32.8H306.043L306.323 35.76C307.323 33.56 309.523 32.32 312.203 32.32C315.283 32.32 317.643 34 318.483 36.64C319.323 34 321.643 32.32 324.843 32.32C328.803 32.32 331.643 34.96 331.643 39.44V52H329.883V39.68C329.883 36.16 327.883 34 324.683 34C321.043 34 319.043 36.84 319.043 39.72V52H317.243V39.64C317.243 36.12 315.243 34 312.043 34C308.403 34 306.403 36.8 306.403 39.68V52ZM338.413 26.92C337.493 26.92 336.733 26.16 336.733 25.28C336.733 24.36 337.493 23.56 338.413 23.56C339.293 23.56 340.093 24.36 340.093 25.28C340.093 26.16 339.293 26.92 338.413 26.92ZM337.493 52V32.8H339.333V52H337.493ZM348.903 52H347.063V34.4H343.183V32.8H347.063V26.72H348.903V32.8H352.783V34.4H348.903V52ZM354.914 46.8H356.714C356.714 49.28 358.554 50.8 361.514 50.8C364.754 50.8 366.754 49.36 366.754 47C366.754 45.12 365.834 44.16 363.354 43.52L360.114 42.68C356.834 41.84 355.274 40 355.274 37.64C355.274 34.44 357.914 32.32 361.874 32.32C365.834 32.32 368.314 34.44 368.434 37.92H366.634C366.514 35.44 364.754 34 361.874 34C358.794 34 357.114 35.28 357.114 37.64C357.114 39.28 358.234 40.44 360.554 41.04L363.754 41.88C367.114 42.76 368.594 44.32 368.594 47C368.594 50.28 365.794 52.48 361.594 52.48C357.514 52.48 354.914 50.28 354.914 46.8ZM386.72 52H384.88V23.12H386.72V52ZM393.882 26.92C392.962 26.92 392.202 26.16 392.202 25.28C392.202 24.36 392.962 23.56 393.882 23.56C394.762 23.56 395.562 24.36 395.562 25.28C395.562 26.16 394.762 26.92 393.882 26.92ZM392.962 52V32.8H394.802V52H392.962ZM399.172 46.8H400.972C400.972 49.28 402.812 50.8 405.772 50.8C409.012 50.8 411.012 49.36 411.012 47C411.012 45.12 410.092 44.16 407.612 43.52L404.372 42.68C401.092 41.84 399.532 40 399.532 37.64C399.532 34.44 402.172 32.32 406.132 32.32C410.092 32.32 412.572 34.44 412.692 37.92H410.892C410.772 35.44 409.012 34 406.132 34C403.052 34 401.372 35.28 401.372 37.64C401.372 39.28 402.492 40.44 404.812 41.04L408.012 41.88C411.372 42.76 412.852 44.32 412.852 47C412.852 50.28 410.052 52.48 405.852 52.48C401.772 52.48 399.172 50.28 399.172 46.8ZM421.247 52H419.407V34.4H415.527V32.8H419.407V26.72H421.247V32.8H425.127V34.4H421.247V52ZM429.898 26.92C428.978 26.92 428.218 26.16 428.218 25.28C428.218 24.36 428.978 23.56 429.898 23.56C430.778 23.56 431.578 24.36 431.578 25.28C431.578 26.16 430.778 26.92 429.898 26.92ZM428.978 52V32.8H430.818V52H428.978ZM438.747 52H436.907V32.8H438.387L438.787 36.52C440.067 33.84 442.707 32.32 445.587 32.32C451.027 32.32 453.067 35.52 453.067 40.32V52H451.227V40.68C451.227 35.6 449.027 34 445.547 34C441.187 34 438.747 37.24 438.747 42.08V52ZM457.459 41.8C457.459 36.72 460.739 32.32 466.419 32.32C469.979 32.32 472.659 34.08 473.939 37.28L474.179 32.8H475.659V51.6C475.659 56.96 472.099 60.56 466.739 60.56C462.099 60.56 458.779 57.96 457.979 53.56H459.779C460.499 56.92 463.099 58.88 466.779 58.88C471.019 58.88 473.859 55.96 473.859 51.6V46.4C472.539 49.48 469.699 51.28 466.219 51.28C460.699 51.28 457.459 46.88 457.459 41.8ZM459.339 41.8C459.339 46.04 461.899 49.6 466.339 49.6C470.899 49.6 473.539 46.28 473.539 41.76C473.539 37.32 471.019 34 466.419 34C461.859 34 459.339 37.6 459.339 41.8Z" fill="black"/>
<rect x="69.5" y="196.5" width="476" height="73" stroke="black"/>
<path d="M84.6606 248H82.7406V219.6H84.6606L95.5406 245.68L106.381 219.6H108.341V248H106.421V232.44C106.421 227.8 106.501 225.4 106.621 223.52L96.5006 248H94.5806L84.4606 223.64C84.5406 224.44 84.6606 227.76 84.6606 232.44V248ZM122.793 248.48C117.233 248.48 113.553 244.48 113.553 238.44C113.553 232.44 117.193 228.32 122.553 228.32C127.553 228.32 130.993 231.92 130.993 237.16V238.44H115.393C115.553 243.68 118.273 246.8 122.793 246.8C126.193 246.8 128.353 245.32 129.113 242.48H130.993C129.873 246.44 127.113 248.48 122.793 248.48ZM122.553 230C118.633 230 115.873 232.72 115.433 236.92H129.113C129.113 232.76 126.513 230 122.553 230ZM138.903 248H137.063V230.4H133.183V228.8H137.063V222.72H138.903V228.8H142.783V230.4H138.903V248ZM151.683 248.48C147.563 248.48 145.203 246.2 145.203 242.92C145.203 239.4 147.923 237.16 152.403 236.8L159.003 236.28V235.56C159.003 231.24 156.443 230 153.403 230C149.843 230 147.723 231.68 147.723 234.48H145.883C145.883 230.72 148.923 228.32 153.443 228.32C157.563 228.32 160.843 230.32 160.843 235.28V248H159.363L159.003 244.4C157.683 247 155.003 248.48 151.683 248.48ZM151.923 246.84C156.443 246.84 159.003 243.56 159.003 238.84V237.8L152.563 238.32C148.683 238.64 147.043 240.52 147.043 242.88C147.043 245.52 149.043 246.84 151.923 246.84ZM174.073 248.48C168.433 248.48 165.233 244.08 165.233 238.4C165.233 232.72 168.433 228.32 174.073 228.32C177.473 228.32 180.113 229.84 181.513 232.96V219.12H183.353V248H181.873L181.593 243.68C180.153 246.96 177.393 248.48 174.073 248.48ZM174.273 246.8C178.873 246.8 181.473 243.28 181.473 238.4C181.473 233.56 178.873 230 174.273 230C169.713 230 167.113 233.56 167.113 238.4C167.113 243.28 169.713 246.8 174.273 246.8ZM194.886 248.48C190.766 248.48 188.406 246.2 188.406 242.92C188.406 239.4 191.126 237.16 195.606 236.8L202.206 236.28V235.56C202.206 231.24 199.646 230 196.606 230C193.046 230 190.926 231.68 190.926 234.48H189.086C189.086 230.72 192.126 228.32 196.646 228.32C200.766 228.32 204.046 230.32 204.046 235.28V248H202.566L202.206 244.4C200.886 247 198.206 248.48 194.886 248.48ZM195.126 246.84C199.646 246.84 202.206 243.56 202.206 238.84V237.8L195.766 238.32C191.886 238.64 190.246 240.52 190.246 242.88C190.246 245.52 192.246 246.84 195.126 246.84ZM212.965 248H211.125V230.4H207.245V228.8H211.125V222.72H212.965V228.8H216.845V230.4H212.965V248ZM225.746 248.48C221.626 248.48 219.266 246.2 219.266 242.92C219.266 239.4 221.986 237.16 226.466 236.8L233.066 236.28V235.56C233.066 231.24 230.506 230 227.466 230C223.906 230 221.786 231.68 221.786 234.48H219.946C219.946 230.72 222.986 228.32 227.506 228.32C231.626 228.32 234.906 230.32 234.906 235.28V248H233.426L233.066 244.4C231.746 247 229.066 248.48 225.746 248.48ZM225.986 246.84C230.506 246.84 233.066 243.56 233.066 238.84V237.8L226.626 238.32C222.746 238.64 221.106 240.52 221.106 242.88C221.106 245.52 223.106 246.84 225.986 246.84ZM252.106 233.64H261.226V224.52H262.986V233.64H272.106V235.4H262.986V244.56H261.226V235.4H252.106V233.64ZM290.483 222.92C289.563 222.92 288.803 222.16 288.803 221.28C288.803 220.36 289.563 219.56 290.483 219.56C291.363 219.56 292.163 220.36 292.163 221.28C292.163 222.16 291.363 222.92 290.483 222.92ZM289.563 248V228.8H291.403V248H289.563ZM299.333 248H297.493V228.8H298.973L299.253 231.76C300.253 229.56 302.453 228.32 305.133 228.32C308.213 228.32 310.573 230 311.413 232.64C312.253 230 314.573 228.32 317.773 228.32C321.733 228.32 324.573 230.96 324.573 235.44V248H322.813V235.68C322.813 232.16 320.813 230 317.613 230C313.973 230 311.973 232.84 311.973 235.72V248H310.173V235.64C310.173 232.12 308.173 230 304.973 230C301.333 230 299.333 232.8 299.333 235.68V248ZM335.863 248.48C331.743 248.48 329.383 246.2 329.383 242.92C329.383 239.4 332.103 237.16 336.583 236.8L343.183 236.28V235.56C343.183 231.24 340.623 230 337.583 230C334.023 230 331.903 231.68 331.903 234.48H330.063C330.063 230.72 333.103 228.32 337.623 228.32C341.743 228.32 345.023 230.32 345.023 235.28V248H343.543L343.183 244.4C341.863 247 339.183 248.48 335.863 248.48ZM336.103 246.84C340.623 246.84 343.183 243.56 343.183 238.84V237.8L336.743 238.32C332.863 238.64 331.223 240.52 331.223 242.88C331.223 245.52 333.223 246.84 336.103 246.84ZM349.413 237.8C349.413 232.72 352.693 228.32 358.372 228.32C361.933 228.32 364.613 230.08 365.893 233.28L366.133 228.8H367.613V247.6C367.613 252.96 364.053 256.56 358.693 256.56C354.053 256.56 350.733 253.96 349.933 249.56H351.733C352.453 252.92 355.053 254.88 358.733 254.88C362.973 254.88 365.813 251.96 365.813 247.6V242.4C364.493 245.48 361.653 247.28 358.173 247.28C352.653 247.28 349.413 242.88 349.413 237.8ZM351.293 237.8C351.293 242.04 353.853 245.6 358.293 245.6C362.853 245.6 365.493 242.28 365.493 237.76C365.493 233.32 362.973 230 358.372 230C353.813 230 351.293 233.6 351.293 237.8ZM381.504 248.48C375.944 248.48 372.264 244.48 372.264 238.44C372.264 232.44 375.904 228.32 381.264 228.32C386.264 228.32 389.704 231.92 389.704 237.16V238.44H374.104C374.264 243.68 376.984 246.8 381.504 246.8C384.904 246.8 387.064 245.32 387.824 242.48H389.704C388.584 246.44 385.824 248.48 381.504 248.48ZM381.264 230C377.344 230 374.584 232.72 374.144 236.92H387.824C387.824 232.76 385.224 230 381.264 230ZM392.609 242.8H394.409C394.409 245.28 396.249 246.8 399.209 246.8C402.449 246.8 404.449 245.36 404.449 243C404.449 241.12 403.529 240.16 401.049 239.52L397.809 238.68C394.529 237.84 392.969 236 392.969 233.64C392.969 230.44 395.609 228.32 399.569 228.32C403.529 228.32 406.009 230.44 406.129 233.92H404.329C404.209 231.44 402.449 230 399.569 230C396.489 230 394.809 231.28 394.809 233.64C394.809 235.28 395.929 236.44 398.249 237.04L401.449 237.88C404.809 238.76 406.289 240.32 406.289 243C406.289 246.28 403.489 248.48 399.289 248.48C395.209 248.48 392.609 246.28 392.609 242.8ZM422.415 256.12V228.8H423.895L424.175 233.12C425.615 229.84 428.375 228.32 431.695 228.32C437.335 228.32 440.535 232.72 440.535 238.4C440.535 244.08 437.335 248.48 431.695 248.48C428.295 248.48 425.655 246.96 424.255 243.84V256.12H422.415ZM424.295 238.4C424.295 243.24 426.895 246.8 431.495 246.8C436.055 246.8 438.655 243.24 438.655 238.4C438.655 233.52 436.055 230 431.495 230C426.895 230 424.295 233.52 424.295 238.4ZM450.628 248.48C446.508 248.48 444.148 246.2 444.148 242.92C444.148 239.4 446.868 237.16 451.348 236.8L457.948 236.28V235.56C457.948 231.24 455.388 230 452.348 230C448.788 230 446.668 231.68 446.668 234.48H444.828C444.828 230.72 447.868 228.32 452.388 228.32C456.508 228.32 459.788 230.32 459.788 235.28V248H458.308L457.948 244.4C456.628 247 453.948 248.48 450.628 248.48ZM450.868 246.84C455.388 246.84 457.948 243.56 457.948 238.84V237.8L451.508 238.32C447.628 238.64 445.988 240.52 445.988 242.88C445.988 245.52 447.988 246.84 450.868 246.84ZM474.778 228.52V230.12H473.338C469.778 230.12 467.458 232.72 467.458 236.32V248H465.618V228.8H467.338L467.498 231.88C468.258 229.72 470.378 228.32 473.098 228.32C473.698 228.32 474.138 228.36 474.778 228.52ZM476.906 242.8H478.706C478.706 245.28 480.546 246.8 483.506 246.8C486.746 246.8 488.746 245.36 488.746 243C488.746 241.12 487.826 240.16 485.346 239.52L482.106 238.68C478.826 237.84 477.266 236 477.266 233.64C477.266 230.44 479.906 228.32 483.866 228.32C487.826 228.32 490.306 230.44 490.426 233.92H488.626C488.506 231.44 486.746 230 483.866 230C480.786 230 479.106 231.28 479.106 233.64C479.106 235.28 480.226 236.44 482.546 237.04L485.746 237.88C489.106 238.76 490.586 240.32 490.586 243C490.586 246.28 487.786 248.48 483.586 248.48C479.506 248.48 476.906 246.28 476.906 242.8ZM503.301 248.48C497.741 248.48 494.061 244.48 494.061 238.44C494.061 232.44 497.701 228.32 503.061 228.32C508.061 228.32 511.501 231.92 511.501 237.16V238.44H495.901C496.061 243.68 498.781 246.8 503.301 246.8C506.701 246.8 508.861 245.32 509.621 242.48H511.501C510.381 246.44 507.621 248.48 503.301 248.48ZM503.061 230C499.141 230 496.381 232.72 495.941 236.92H509.621C509.621 232.76 507.021 230 503.061 230ZM523.526 248.48C517.886 248.48 514.686 244.08 514.686 238.4C514.686 232.72 517.886 228.32 523.526 228.32C526.926 228.32 529.566 229.84 530.966 232.96V219.12H532.806V248H531.326L531.046 243.68C529.606 246.96 526.846 248.48 523.526 248.48ZM523.726 246.8C528.326 246.8 530.926 243.28 530.926 238.4C530.926 233.56 528.326 230 523.726 230C519.166 230 516.566 233.56 516.566 238.4C516.566 243.28 519.166 246.8 523.726 246.8Z" fill="black"/>
<rect x="0.5" y="392.5" width="615" height="73" stroke="black"/>
<path d="M12.5903 444H10.6703L21.1903 415.6H24.0303L34.6703 444H32.7103L29.7103 436.04H15.5503L12.5903 444ZM22.3503 417.64L16.1903 434.28H29.0703L22.8303 417.64C22.7503 417.4 22.6303 417.12 22.5903 416.92C22.5503 417.08 22.4303 417.44 22.3503 417.64ZM51.7903 424.8H53.6303V444H52.1503L51.7903 440.44C50.7503 442.84 48.0303 444.48 44.8303 444.48C40.2303 444.48 37.8703 441.32 37.8703 436.64V424.76H39.7503V436.16C39.7503 441.08 42.0703 442.8 45.2703 442.8C49.3103 442.8 51.7903 440 51.7903 435.04V424.8ZM63.1919 444H61.3519V426.4H57.4719V424.8H61.3519V418.72H63.1919V424.8H67.0719V426.4H63.1919V444ZM69.2875 434.4C69.2875 428.6 73.3275 424.32 78.8075 424.32C84.2875 424.32 88.3275 428.6 88.3275 434.4C88.3275 440.2 84.2875 444.48 78.8075 444.48C73.3275 444.48 69.2875 440.2 69.2875 434.4ZM71.1675 434.4C71.1675 439.32 74.3275 442.8 78.8075 442.8C83.2875 442.8 86.4475 439.32 86.4475 434.4C86.4475 429.48 83.2875 426 78.8075 426C74.3275 426 71.1675 429.48 71.1675 434.4ZM94.7941 444H92.9541V424.8H94.4341L94.7141 427.76C95.7141 425.56 97.9141 424.32 100.594 424.32C103.674 424.32 106.034 426 106.874 428.64C107.714 426 110.034 424.32 113.234 424.32C117.194 424.32 120.034 426.96 120.034 431.44V444H118.274V431.68C118.274 428.16 116.274 426 113.074 426C109.434 426 107.434 428.84 107.434 431.72V444H105.634V431.64C105.634 428.12 103.634 426 100.434 426C96.7941 426 94.7941 428.8 94.7941 431.68V444ZM131.324 444.48C127.204 444.48 124.844 442.2 124.844 438.92C124.844 435.4 127.564 433.16 132.044 432.8L138.644 432.28V431.56C138.644 427.24 136.084 426 133.044 426C129.484 426 127.364 427.68 127.364 430.48H125.524C125.524 426.72 128.564 424.32 133.084 424.32C137.204 424.32 140.484 426.32 140.484 431.28V444H139.004L138.644 440.4C137.324 443 134.644 444.48 131.324 444.48ZM131.564 442.84C136.084 442.84 138.644 439.56 138.644 434.84V433.8L132.204 434.32C128.324 434.64 126.684 436.52 126.684 438.88C126.684 441.52 128.684 442.84 131.564 442.84ZM149.403 444H147.563V426.4H143.683V424.8H147.563V418.72H149.403V424.8H153.283V426.4H149.403V444ZM164.738 444.48C159.178 444.48 155.498 440.48 155.498 434.44C155.498 428.44 159.138 424.32 164.498 424.32C169.498 424.32 172.938 427.92 172.938 433.16V434.44H157.338C157.498 439.68 160.218 442.8 164.738 442.8C168.138 442.8 170.298 441.32 171.058 438.48H172.938C171.818 442.44 169.058 444.48 164.738 444.48ZM164.498 426C160.578 426 157.818 428.72 157.378 432.92H171.058C171.058 428.76 168.458 426 164.498 426ZM184.963 444.48C179.323 444.48 176.123 440.08 176.123 434.4C176.123 428.72 179.323 424.32 184.963 424.32C188.363 424.32 191.003 425.84 192.403 428.96V415.12H194.243V444H192.763L192.483 439.68C191.043 442.96 188.283 444.48 184.963 444.48ZM185.163 442.8C189.763 442.8 192.363 439.28 192.363 434.4C192.363 429.56 189.763 426 185.163 426C180.603 426 178.003 429.56 178.003 434.4C178.003 439.28 180.603 442.8 185.163 442.8ZM211.708 429.64H220.828V420.52H222.588V429.64H231.708V431.4H222.588V440.56H220.828V431.4H211.708V429.64ZM258.325 424.52V426.12H256.885C253.325 426.12 251.005 428.72 251.005 432.32V444H249.165V424.8H250.885L251.045 427.88C251.805 425.72 253.925 424.32 256.645 424.32C257.245 424.32 257.685 424.36 258.325 424.52ZM275.853 424.8H277.693V444H276.213L275.853 440.44C274.813 442.84 272.093 444.48 268.893 444.48C264.293 444.48 261.933 441.32 261.933 436.64V424.76H263.813V436.16C263.813 441.08 266.133 442.8 269.333 442.8C273.373 442.8 275.853 440 275.853 435.04V424.8ZM285.774 444H283.934V415.12H285.774V444ZM299.817 444.48C294.257 444.48 290.577 440.48 290.577 434.44C290.577 428.44 294.217 424.32 299.577 424.32C304.577 424.32 308.017 427.92 308.017 433.16V434.44H292.417C292.577 439.68 295.297 442.8 299.817 442.8C303.217 442.8 305.377 441.32 306.137 438.48H308.017C306.897 442.44 304.137 444.48 299.817 444.48ZM299.577 426C295.657 426 292.897 428.72 292.457 432.92H306.137C306.137 428.76 303.537 426 299.577 426ZM312.202 434.4V432.72H323.242V434.4H312.202ZM330.372 444H328.892V415.12H330.732V428.96C332.132 425.84 334.772 424.32 338.172 424.32C343.812 424.32 347.012 428.72 347.012 434.4C347.012 440.08 343.812 444.48 338.172 444.48C334.852 444.48 332.092 442.96 330.652 439.68L330.372 444ZM330.772 434.4C330.772 439.28 333.372 442.8 337.972 442.8C342.532 442.8 345.132 439.28 345.132 434.4C345.132 429.56 342.532 426 337.972 426C333.372 426 330.772 429.56 330.772 434.4ZM357.105 444.48C352.985 444.48 350.625 442.2 350.625 438.92C350.625 435.4 353.345 433.16 357.825 432.8L364.425 432.28V431.56C364.425 427.24 361.865 426 358.825 426C355.265 426 353.145 427.68 353.145 430.48H351.305C351.305 426.72 354.345 424.32 358.865 424.32C362.985 424.32 366.265 426.32 366.265 431.28V444H364.785L364.425 440.4C363.105 443 360.425 444.48 357.105 444.48ZM357.345 442.84C361.865 442.84 364.425 439.56 364.425 434.84V433.8L357.985 434.32C354.105 434.64 352.465 436.52 352.465 438.88C352.465 441.52 354.465 442.84 357.345 442.84ZM370.375 438.8H372.175C372.175 441.28 374.015 442.8 376.975 442.8C380.215 442.8 382.215 441.36 382.215 439C382.215 437.12 381.295 436.16 378.815 435.52L375.575 434.68C372.295 433.84 370.735 432 370.735 429.64C370.735 426.44 373.375 424.32 377.335 424.32C381.295 424.32 383.775 426.44 383.895 429.92H382.095C381.975 427.44 380.215 426 377.335 426C374.255 426 372.575 427.28 372.575 429.64C372.575 431.28 373.695 432.44 376.015 433.04L379.215 433.88C382.575 434.76 384.055 436.32 384.055 439C384.055 442.28 381.255 444.48 377.055 444.48C372.975 444.48 370.375 442.28 370.375 438.8ZM396.77 444.48C391.21 444.48 387.53 440.48 387.53 434.44C387.53 428.44 391.17 424.32 396.53 424.32C401.53 424.32 404.97 427.92 404.97 433.16V434.44H389.37C389.53 439.68 392.25 442.8 396.77 442.8C400.17 442.8 402.33 441.32 403.09 438.48H404.97C403.85 442.44 401.09 444.48 396.77 444.48ZM396.53 426C392.61 426 389.85 428.72 389.41 432.92H403.09C403.09 428.76 400.49 426 396.53 426ZM416.995 444.48C411.355 444.48 408.155 440.08 408.155 434.4C408.155 428.72 411.355 424.32 416.995 424.32C420.395 424.32 423.035 425.84 424.435 428.96V415.12H426.275V444H424.795L424.515 439.68C423.075 442.96 420.315 444.48 416.995 444.48ZM417.195 442.8C421.795 442.8 424.395 439.28 424.395 434.4C424.395 429.56 421.795 426 417.195 426C412.635 426 410.035 429.56 410.035 434.4C410.035 439.28 412.635 442.8 417.195 442.8ZM441.859 438.8H443.659C443.659 441.28 445.499 442.8 448.459 442.8C451.699 442.8 453.699 441.36 453.699 439C453.699 437.12 452.779 436.16 450.299 435.52L447.059 434.68C443.779 433.84 442.219 432 442.219 429.64C442.219 426.44 444.859 424.32 448.819 424.32C452.779 424.32 455.259 426.44 455.379 429.92H453.579C453.459 427.44 451.699 426 448.819 426C445.739 426 444.059 427.28 444.059 429.64C444.059 431.28 445.179 432.44 447.499 433.04L450.699 433.88C454.059 434.76 455.539 436.32 455.539 439C455.539 442.28 452.739 444.48 448.539 444.48C444.459 444.48 441.859 442.28 441.859 438.8ZM459.014 434.48C459.014 428.4 462.614 424.32 468.134 424.32C472.254 424.32 475.334 426.76 476.214 430.4H474.334C473.534 427.56 470.974 425.96 468.134 425.96C463.854 425.96 460.814 429.24 460.814 434.44C460.814 439.4 463.614 442.8 467.894 442.8C470.974 442.8 473.534 441.04 474.414 438.44H476.294C475.254 442.08 471.974 444.48 467.894 444.48C462.614 444.48 459.014 440.48 459.014 434.48ZM489.888 424.52V426.12H488.448C484.888 426.12 482.568 428.72 482.568 432.32V444H480.728V424.8H482.448L482.608 427.88C483.368 425.72 485.488 424.32 488.208 424.32C488.808 424.32 489.248 424.36 489.888 424.52ZM500.754 444.48C495.194 444.48 491.514 440.48 491.514 434.44C491.514 428.44 495.154 424.32 500.514 424.32C505.514 424.32 508.954 427.92 508.954 433.16V434.44H493.354C493.514 439.68 496.234 442.8 500.754 442.8C504.154 442.8 506.314 441.32 507.074 438.48H508.954C507.834 442.44 505.074 444.48 500.754 444.48ZM500.514 426C496.594 426 493.834 428.72 493.394 432.92H507.074C507.074 428.76 504.474 426 500.514 426ZM521.379 444.48C515.819 444.48 512.139 440.48 512.139 434.44C512.139 428.44 515.779 424.32 521.139 424.32C526.139 424.32 529.579 427.92 529.579 433.16V434.44H513.979C514.139 439.68 516.859 442.8 521.379 442.8C524.779 442.8 526.939 441.32 527.699 438.48H529.579C528.459 442.44 525.699 444.48 521.379 444.48ZM521.139 426C517.219 426 514.459 428.72 514.019 432.92H527.699C527.699 428.76 525.099 426 521.139 426ZM536.044 444H534.204V424.8H535.684L536.084 428.52C537.364 425.84 540.004 424.32 542.884 424.32C548.324 424.32 550.364 427.52 550.364 432.32V444H548.524V432.68C548.524 427.6 546.324 426 542.844 426C538.484 426 536.044 429.24 536.044 434.08V444ZM557.116 418.92C556.196 418.92 555.436 418.16 555.436 417.28C555.436 416.36 556.196 415.56 557.116 415.56C557.996 415.56 558.796 416.36 558.796 417.28C558.796 418.16 557.996 418.92 557.116 418.92ZM556.196 444V424.8H558.036V444H556.196ZM565.966 444H564.126V424.8H565.606L566.006 428.52C567.286 425.84 569.926 424.32 572.806 424.32C578.246 424.32 580.286 427.52 580.286 432.32V444H578.446V432.68C578.446 427.6 576.246 426 572.766 426C568.406 426 565.966 429.24 565.966 434.08V444ZM584.678 433.8C584.678 428.72 587.958 424.32 593.638 424.32C597.198 424.32 599.878 426.08 601.158 429.28L601.398 424.8H602.878V443.6C602.878 448.96 599.318 452.56 593.958 452.56C589.318 452.56 585.998 449.96 585.198 445.56H586.998C587.718 448.92 590.318 450.88 593.998 450.88C598.238 450.88 601.078 447.96 601.078 443.6V438.4C599.758 441.48 596.918 443.28 593.438 443.28C587.918 443.28 584.678 438.88 584.678 433.8ZM586.558 433.8C586.558 438.04 589.118 441.6 593.558 441.6C598.118 441.6 600.758 438.28 600.758 433.76C600.758 429.32 598.238 426 593.638 426C589.078 426 586.558 429.6 586.558 433.8Z" fill="black"/>
<path d="M307.293 171.707C307.683 172.098 308.317 172.098 308.707 171.707L315.071 165.343C315.462 164.953 315.462 164.319 315.071 163.929C314.681 163.538 314.047 163.538 313.657 163.929L308 169.586L302.343 163.929C301.953 163.538 301.319 163.538 300.929 163.929C300.538 164.319 300.538 164.953 300.929 165.343L307.293 171.707ZM308 99L307 99L307 171L308 171L309 171L309 99L308 99Z" fill="black"/>
<path d="M307.293 367.707C307.683 368.098 308.317 368.098 308.707 367.707L315.071 361.343C315.462 360.953 315.462 360.319 315.071 359.929C314.681 359.538 314.047 359.538 313.657 359.929L308 365.586L302.343 359.929C301.953 359.538 301.319 359.538 300.929 359.929C300.538 360.319 300.538 360.953 300.929 361.343L307.293 367.707ZM308 295L307 295L307 367L308 367L309 367L309 295L308 295Z" fill="black"/>
<rect x="213.5" y="588.5" width="189" height="73" stroke="black"/>
<path d="M237.591 629.32H228.911V640H226.991V611.6H237.591C242.991 611.6 246.311 615.12 246.311 620.4C246.311 625.4 242.951 629.32 237.591 629.32ZM237.511 613.36H228.911V627.56H237.271C241.711 627.56 244.351 624.56 244.351 620.32C244.351 616.04 241.671 613.36 237.511 613.36ZM255.191 640.48C251.071 640.48 248.711 638.2 248.711 634.92C248.711 631.4 251.431 629.16 255.911 628.8L262.511 628.28V627.56C262.511 623.24 259.951 622 256.911 622C253.351 622 251.231 623.68 251.231 626.48H249.391C249.391 622.72 252.431 620.32 256.951 620.32C261.071 620.32 264.351 622.32 264.351 627.28V640H262.871L262.511 636.4C261.191 639 258.511 640.48 255.191 640.48ZM255.431 638.84C259.951 638.84 262.511 635.56 262.511 630.84V629.8L256.071 630.32C252.191 630.64 250.551 632.52 250.551 634.88C250.551 637.52 252.551 638.84 255.431 638.84ZM268.461 634.8H270.261C270.261 637.28 272.101 638.8 275.061 638.8C278.301 638.8 280.301 637.36 280.301 635C280.301 633.12 279.381 632.16 276.901 631.52L273.661 630.68C270.381 629.84 268.821 628 268.821 625.64C268.821 622.44 271.461 620.32 275.421 620.32C279.381 620.32 281.861 622.44 281.981 625.92H280.181C280.061 623.44 278.301 622 275.421 622C272.341 622 270.661 623.28 270.661 625.64C270.661 627.28 271.781 628.44 274.101 629.04L277.301 629.88C280.661 630.76 282.141 632.32 282.141 635C282.141 638.28 279.341 640.48 275.141 640.48C271.061 640.48 268.461 638.28 268.461 634.8ZM285.336 634.8H287.136C287.136 637.28 288.976 638.8 291.936 638.8C295.176 638.8 297.176 637.36 297.176 635C297.176 633.12 296.256 632.16 293.776 631.52L290.536 630.68C287.256 629.84 285.696 628 285.696 625.64C285.696 622.44 288.336 620.32 292.296 620.32C296.256 620.32 298.736 622.44 298.856 625.92H297.056C296.936 623.44 295.176 622 292.296 622C289.216 622 287.536 623.28 287.536 625.64C287.536 627.28 288.656 628.44 290.976 629.04L294.176 629.88C297.536 630.76 299.016 632.32 299.016 635C299.016 638.28 296.216 640.48 292.016 640.48C287.936 640.48 285.336 638.28 285.336 634.8ZM313.942 640H312.102L323.182 611.6H325.062L313.942 640ZM353.881 627.12H341.801V640H339.881V611.6H356.201V613.36H341.801V625.36H353.881V627.12ZM364.488 640.48C360.368 640.48 358.008 638.2 358.008 634.92C358.008 631.4 360.728 629.16 365.208 628.8L371.808 628.28V627.56C371.808 623.24 369.248 622 366.208 622C362.648 622 360.528 623.68 360.528 626.48H358.688C358.688 622.72 361.728 620.32 366.248 620.32C370.368 620.32 373.648 622.32 373.648 627.28V640H372.168L371.808 636.4C370.488 639 367.808 640.48 364.488 640.48ZM364.728 638.84C369.248 638.84 371.808 635.56 371.808 630.84V629.8L365.368 630.32C361.488 630.64 359.848 632.52 359.848 634.88C359.848 637.52 361.848 638.84 364.728 638.84ZM380.398 614.92C379.478 614.92 378.718 614.16 378.718 613.28C378.718 612.36 379.478 611.56 380.398 611.56C381.278 611.56 382.078 612.36 382.078 613.28C382.078 614.16 381.278 614.92 380.398 614.92ZM379.478 640V620.8H381.318V640H379.478ZM389.407 640H387.567V611.12H389.407V640Z" fill="black"/>
<path d="M307.293 563.707C307.683 564.098 308.317 564.098 308.707 563.707L315.071 557.343C315.462 556.953 315.462 556.319 315.071 555.929C314.681 555.538 314.047 555.538 313.657 555.929L308 561.586L302.343 555.929C301.953 555.538 301.319 555.538 300.929 555.929C300.538 556.319 300.538 556.953 300.929 557.343L307.293 563.707ZM308 491L307 491L307 563L308 563L309 563L309 491L308 491Z" fill="black"/>
</svg>
