<svg width="567" height="423" viewBox="0 0 567 423" fill="none" xmlns="http://www.w3.org/2000/svg">
<path d="M481.746 403.97C483.763 411.217 485.269 414.927 488.55 420.98" stroke="black"/>
<path d="M485.867 161.581V5.58091" stroke="#828282" stroke-dasharray="2 2"/>
<path d="M255.867 162.581V5.58091" stroke="#828282" stroke-dasharray="2 2"/>
<path d="M254.867 403.581C345.144 410.259 395.508 410.236 484.867 403.581" stroke="black"/>
<path d="M482.707 162.425C482.902 162.23 482.902 161.913 482.707 161.718L479.525 158.536C479.33 158.341 479.013 158.341 478.818 158.536C478.623 158.731 478.623 159.048 478.818 159.243L481.646 162.071L478.818 164.9C478.623 165.095 478.623 165.412 478.818 165.607C479.013 165.802 479.33 165.802 479.525 165.607L482.707 162.425ZM256.687 162.071L256.687 162.571L482.353 162.571L482.353 162.071L482.353 161.571L256.687 161.571L256.687 162.071Z" fill="#828282"/>
<path d="M256.334 162.425C256.139 162.23 256.139 161.913 256.334 161.718L259.516 158.536C259.711 158.341 260.028 158.341 260.223 158.536C260.418 158.731 260.418 159.048 260.223 159.243L257.395 162.071L260.223 164.9C260.418 165.095 260.418 165.412 260.223 165.607C260.028 165.802 259.711 165.802 259.516 165.607L256.334 162.425ZM482.353 162.071L482.353 162.571L256.687 162.571L256.687 162.071L256.687 161.571L482.353 161.571L482.353 162.071Z" fill="#828282"/>
<path d="M563.221 41.8845C563.026 41.6892 562.709 41.6892 562.514 41.8845L559.332 45.0665C559.137 45.2617 559.137 45.5783 559.332 45.7736C559.527 45.9688 559.844 45.9688 560.039 45.7736L562.867 42.9451L565.696 45.7736C565.891 45.9688 566.208 45.9688 566.403 45.7736C566.598 45.5783 566.598 45.2617 566.403 45.0665L563.221 41.8845ZM562.867 406.252L563.367 406.252L563.367 42.238L562.867 42.238L562.367 42.238L562.367 406.252L562.867 406.252Z" fill="#828282"/>
<path d="M563.221 406.606C563.026 406.801 562.709 406.801 562.514 406.606L559.332 403.424C559.137 403.228 559.137 402.912 559.332 402.716C559.527 402.521 559.844 402.521 560.039 402.716L562.867 405.545L565.696 402.716C565.891 402.521 566.208 402.521 566.403 402.716C566.598 402.912 566.598 403.228 566.403 403.424L563.221 406.606ZM562.867 42.238L563.367 42.238L563.367 406.252L562.867 406.252L562.367 406.252L562.367 42.238L562.867 42.238Z" fill="#828282"/>
<path d="M483.841 4.03556C484.036 3.8403 484.036 3.52372 483.841 3.32845L480.659 0.146473C480.464 -0.0487892 480.147 -0.0487892 479.952 0.146473C479.757 0.341735 479.757 0.658318 479.952 0.85358L482.78 3.68201L479.952 6.51043C479.757 6.7057 479.757 7.02228 479.952 7.21754C480.147 7.4128 480.464 7.4128 480.659 7.21754L483.841 4.03556ZM257.821 3.68201L257.821 4.18201L483.487 4.18201L483.487 3.68201L483.487 3.18201L257.821 3.18201L257.821 3.68201Z" fill="#828282"/>
<path d="M257.468 4.03553C257.273 3.84027 257.273 3.52369 257.468 3.32843L260.65 0.146446C260.845 -0.0488162 261.162 -0.0488163 261.357 0.146446C261.552 0.341708 261.552 0.65829 261.357 0.853553L258.529 3.68198L261.357 6.51041C261.552 6.70567 261.552 7.02225 261.357 7.21751C261.162 7.41278 260.845 7.41278 260.65 7.21751L257.468 4.03553ZM483.487 3.68187L483.487 4.18187L257.821 4.18198L257.821 3.68198L257.821 3.18198L483.487 3.18187L483.487 3.68187Z" fill="#828282"/>
<path d="M1.08569 363.632C1.13703 363.905 1.39758 364.085 1.66766 364.034L6.06871 363.205C6.33878 363.154 6.5161 362.892 6.46476 362.619C6.41342 362.347 6.15287 362.167 5.8828 362.218L1.97074 362.954L1.22708 359.005C1.17574 358.732 0.915181 358.552 0.645111 358.603C0.37504 358.654 0.197723 358.916 0.249063 359.189L1.08569 363.632ZM224.938 33.1677L224.526 32.8837L1.16319 363.256L1.5747 363.54L1.98621 363.824L225.349 33.4517L224.938 33.1677Z" fill="#828282"/>
<path d="M224.845 32.6742C225.115 32.6233 225.376 32.8031 225.427 33.0758L226.263 37.5192C226.315 37.7919 226.137 38.0542 225.867 38.105C225.597 38.1559 225.337 37.9761 225.285 37.7034L224.542 33.7537L220.63 34.4903C220.36 34.5411 220.099 34.3613 220.048 34.0886C219.996 33.8159 220.174 33.5537 220.444 33.5028L224.845 32.6742ZM1.57474 363.54L1.16322 363.256L224.526 32.8839L224.938 33.1679L225.349 33.4519L1.98625 363.824L1.57474 363.54Z" fill="#828282"/>
<path d="M29.8722 382.706L1.86747 366.081" stroke="#828282" stroke-dasharray="2 2"/>
<path d="M64.1316 402.081L28.9951 382.182" stroke="black"/>
<line x1="368.867" y1="39.0809" x2="560.867" y2="39.0809" stroke="#828282" stroke-dasharray="2 2"/>
<line x1="368.867" y1="407.081" x2="560.867" y2="407.081" stroke="#828282" stroke-dasharray="2 2"/>
<path d="M524.859 421.849L487.876 420.388" stroke="black"/>
<path d="M524.266 421.581C533.778 401.631 535.82 390.93 534.51 368.845C531.843 276.943 530.348 225.418 527.681 133.517C526.924 107.432 525.966 90.9374 514.592 67.1713C503.783 56.6223 497.119 52.4505 484.432 47.3243C458.223 38.2182 441.685 37.6928 413.867 32.5809" stroke="black"/>
<mask id="path-19-inside-1_2002_10" fill="white">
<path d="M254.867 161.581H485.867V404.581H254.867V161.581Z"/>
</mask>
<path d="M485.867 161.581H484.867V404.581H485.867H486.867V161.581H485.867ZM254.867 404.581H255.867V161.581H254.867H253.867V404.581H254.867Z" fill="black" mask="url(#path-19-inside-1_2002_10)"/>
<path d="M485.188 161.504C477.207 116.938 477.302 91.6742 485.188 48.1045" stroke="black"/>
<path d="M269.732 387.581H268.867V374.581H273.586C276.017 374.581 277.548 376.009 277.548 378.225C277.548 380.129 276.504 381.484 274.793 381.85L277.656 387.581H276.684L273.892 381.96H269.732V387.581ZM269.732 375.387V381.154H273.622C275.549 381.154 276.666 380.056 276.666 378.261C276.666 376.412 275.459 375.387 273.586 375.387H269.732Z" fill="black"/>
<path d="M287.687 387.581H280.159V374.581H287.669V375.387H281.023V380.66H287.075V381.465H281.023V386.775H287.687V387.581Z" fill="black"/>
<path d="M293.871 387.581L288.954 374.581H289.873L293.565 384.303C293.835 384.999 294.087 385.677 294.357 386.519C294.627 385.658 294.97 384.706 295.132 384.285L298.806 374.581H299.688L294.79 387.581H293.871Z" fill="black"/>
<path d="M309.021 387.581H301.493V374.581H309.003V375.387H302.358V380.66H308.409V381.465H302.358V386.775H309.021V387.581Z" fill="black"/>
<path d="M310.289 375.387V374.581H319.185V375.387H315.169V387.581H314.305V375.387H310.289Z" fill="black"/>
<path d="M321.845 374.581V387.581H320.981V374.581H321.845Z" fill="black"/>
<path d="M325.943 387.581H325.079V374.581H329.797C332.229 374.581 333.759 376.009 333.759 378.225C333.759 380.129 332.715 381.484 331.004 381.85L333.867 387.581H332.895L330.103 381.96H325.943V387.581ZM325.943 375.387V381.154H329.833C331.76 381.154 332.877 380.056 332.877 378.261C332.877 376.412 331.67 375.387 329.797 375.387H325.943Z" fill="black"/>
<path d="M256.342 48.023L228.337 31.3984" stroke="#828282" stroke-dasharray="2 2"/>
<path d="M255.189 161.697L63.8675 401.581" stroke="black"/>
<line y1="-0.5" x2="71.8369" y2="-0.5" transform="matrix(0.978717 -0.205215 -0.205215 -0.978717 255.667 46.9704)" stroke="black"/>
<path d="M256.938 46.5809C274.342 95.8367 271.593 122.128 255.867 162.581" stroke="black"/>
<path d="M256.12 47.341C165.572 177.425 104.842 247.075 29.5199 382.178" stroke="black"/>
<line x1="369.367" y1="47.5809" x2="369.367" y2="408.581" stroke="black"/>
<line x1="325.867" y1="33.0809" x2="325.867" y2="22.0809" stroke="black"/>
<line x1="413.867" y1="33.0809" x2="413.867" y2="22.0809" stroke="black"/>
<path d="M369.367 48.0809C358.152 30.8874 348.669 25.0159 325.367 22.0809" stroke="black"/>
<path d="M369.367 47.5809C380.838 30.3874 390.536 24.5159 414.367 21.5809" stroke="black"/>
<path d="M325.867 22.081C359.5 11.1077 378.657 11.0623 413.367 22.081" stroke="black"/>
</svg>
