<svg width="723" height="142" viewBox="0 0 723 142" fill="none" xmlns="http://www.w3.org/2000/svg">
<path d="M9.79531 142H0.195313V-7.62939e-06H52.5953C79.5953 -7.62939e-06 96.5953 15.6 96.5953 39.8C96.5953 60.6 84.9953 75.4 65.9953 79.4L97.7953 142H86.9953L55.9953 80.6H9.79531V142ZM9.79531 8.8V71.8H52.9953C74.3953 71.8 86.7953 59.8 86.7953 40.2C86.7953 20 73.3953 8.8 52.5953 8.8H9.79531ZM209.186 142H125.586V-7.62939e-06H208.986V8.8H135.186V66.4H202.386V75.2H135.186V133.2H209.186V142ZM277.858 142L223.258 -7.62939e-06H233.458L274.458 106.2C277.458 113.8 280.258 121.2 283.258 130.4C286.258 121 290.058 110.6 291.858 106L332.658 -7.62939e-06H342.458L288.058 142H277.858ZM446.1 142H362.5V-7.62939e-06H445.9V8.8H372.1V66.4H439.3V75.2H372.1V133.2H446.1V142ZM460.172 8.8V-7.62939e-06H558.972V8.8H514.372V142H504.772V8.8H460.172ZM588.506 -7.62939e-06V142H578.906V-7.62939e-06H588.506ZM634.014 142H624.414V-7.62939e-06H676.814C703.814 -7.62939e-06 720.814 15.6 720.814 39.8C720.814 60.6 709.214 75.4 690.214 79.4L722.014 142H711.214L680.214 80.6H634.014V142ZM634.014 8.8V71.8H677.214C698.614 71.8 711.014 59.8 711.014 40.2C711.014 20 697.614 8.8 676.814 8.8H634.014Z" fill="black"/>
</svg>
