<svg width="504" height="521" viewBox="0 0 504 521" fill="none" xmlns="http://www.w3.org/2000/svg">
<path d="M315.201 179.682H314.682V171.682H317.513C318.972 171.682 319.891 172.561 319.891 173.924C319.891 175.096 319.264 175.93 318.237 176.155L319.955 179.682H319.372L317.697 176.223H315.201V179.682ZM315.201 172.178V175.727H317.535C318.691 175.727 319.361 175.051 319.361 173.947C319.361 172.809 318.637 172.178 317.513 172.178H315.201Z" fill="black"/>
<path d="M325.974 179.682H321.457V171.682H325.963V172.178H321.976V175.423H325.606V175.919H321.976V179.186H325.974V179.682Z" fill="black"/>
<path d="M329.684 179.682L326.734 171.682H327.285L329.5 177.665C329.663 178.093 329.814 178.51 329.976 179.028C330.138 178.499 330.343 177.913 330.441 177.654L332.645 171.682H333.174L330.235 179.682H329.684Z" fill="black"/>
<path d="M338.774 179.682H334.257V171.682H338.763V172.178H334.776V175.423H338.407V175.919H334.776V179.186H338.774V179.682Z" fill="black"/>
<path d="M339.535 172.178V171.682H344.873V172.178H342.463V179.682H341.944V172.178H339.535Z" fill="black"/>
<path d="M346.469 171.682V179.682H345.95V171.682H346.469Z" fill="black"/>
<path d="M348.927 179.682H348.409V171.682H351.24C352.699 171.682 353.617 172.561 353.617 173.924C353.617 175.096 352.99 175.93 351.964 176.155L353.682 179.682H353.098L351.424 176.223H348.927V179.682ZM348.927 172.178V175.727H351.261C352.418 175.727 353.088 175.051 353.088 173.947C353.088 172.809 352.364 172.178 351.24 172.178H348.927Z" fill="black"/>
<path d="M498.682 514.682L316.182 514.682M498.682 51.6823L316.182 51.6822" stroke="#828282" stroke-dasharray="2 2"/>
<path d="M236.449 23.182H290.682" stroke="black"/>
<path d="M227.682 51.682H299.182" stroke="black"/>
<path d="M126.182 5.68201L126.182 92.682" stroke="#828282" stroke-dasharray="2 2"/>
<path d="M401.682 5.68201L401.682 92.682" stroke="#828282" stroke-dasharray="2 2"/>
<line x1="117.051" y1="95.682" x2="5.05139" y2="95.682" stroke="#828282" stroke-dasharray="2 2"/>
<line x1="35.182" y1="482.682" x2="5.18199" y2="482.682" stroke="#828282" stroke-dasharray="2 2"/>
<path d="M500.036 513.035C499.84 513.231 499.524 513.231 499.328 513.035L496.146 509.853C495.951 509.658 495.951 509.342 496.146 509.146C496.342 508.951 496.658 508.951 496.854 509.146L499.682 511.975L502.51 509.146C502.706 508.951 503.022 508.951 503.218 509.146C503.413 509.342 503.413 509.658 503.218 509.853L500.036 513.035ZM499.682 53.682L500.182 53.682L500.182 512.682L499.682 512.682L499.182 512.682L499.182 53.682L499.682 53.682Z" fill="#828282"/>
<path d="M500.036 53.3286C499.84 53.1333 499.524 53.1333 499.328 53.3286L496.146 56.5105C495.951 56.7058 495.951 57.0224 496.146 57.2176C496.342 57.4129 496.658 57.4129 496.854 57.2176L499.682 54.3892L502.51 57.2176C502.706 57.4129 503.022 57.4129 503.218 57.2176C503.413 57.0224 503.413 56.7058 503.218 56.5105L500.036 53.3286ZM499.682 512.682L500.182 512.682L500.182 53.6821L499.682 53.6821L499.182 53.6821L499.182 512.682L499.682 512.682Z" fill="#828282"/>
<path d="M4.03555 481.035C3.84029 481.231 3.5237 481.231 3.32844 481.035L0.14646 477.854C-0.0488021 477.658 -0.048802 477.342 0.14646 477.146C0.341722 476.951 0.658305 476.951 0.853567 477.146L3.68199 479.975L6.51042 477.146C6.70568 476.951 7.02227 476.951 7.21753 477.146C7.41279 477.342 7.41279 477.658 7.21753 477.854L4.03555 481.035ZM3.68201 97.682L4.18201 97.682L4.18199 480.682L3.68199 480.682L3.18199 480.682L3.18201 97.682L3.68201 97.682Z" fill="#828282"/>
<path d="M4.03553 97.3285C3.84027 97.1332 3.52369 97.1332 3.32843 97.3285L0.146447 100.51C-0.0488152 100.706 -0.0488152 101.022 0.146447 101.218C0.341709 101.413 0.658292 101.413 0.853554 101.218L3.68198 98.3892L6.51041 101.218C6.70567 101.413 7.02225 101.413 7.21751 101.218C7.41278 101.022 7.41278 100.706 7.21751 100.511L4.03553 97.3285ZM3.68193 480.682L4.18193 480.682L4.18198 97.6821L3.68198 97.6821L3.18198 97.6821L3.18193 480.682L3.68193 480.682Z" fill="#828282"/>
<path d="M127.328 4.03553C127.133 3.84027 127.133 3.52369 127.328 3.32843L130.51 0.146446C130.706 -0.0488163 131.022 -0.0488163 131.218 0.146446C131.413 0.341708 131.413 0.658291 131.218 0.853553L128.389 3.68198L131.218 6.51041C131.413 6.70567 131.413 7.02225 131.218 7.21751C131.022 7.41278 130.706 7.41278 130.51 7.21751L127.328 4.03553ZM399.682 3.68199L399.682 4.18199L127.682 4.18198L127.682 3.68198L127.682 3.18198L399.682 3.18199L399.682 3.68199Z" fill="#828282"/>
<path d="M400.036 4.03553C400.231 3.84027 400.231 3.52369 400.036 3.32843L396.854 0.146445C396.658 -0.0488175 396.342 -0.0488175 396.146 0.146445C395.951 0.341707 395.951 0.658289 396.146 0.853551L398.975 3.68198L396.146 6.51041C395.951 6.70567 395.951 7.02225 396.146 7.21751C396.342 7.41277 396.658 7.41277 396.853 7.21751L400.036 4.03553ZM127.682 3.68196L127.682 4.18196L399.682 4.18198L399.682 3.68198L399.682 3.18198L127.682 3.18196L127.682 3.68196Z" fill="#828282"/>
<path d="M148.328 212.036C148.133 211.84 148.133 211.524 148.328 211.328L151.51 208.146C151.706 207.951 152.022 207.951 152.218 208.146C152.413 208.342 152.413 208.658 152.218 208.854L149.389 211.682L152.218 214.51C152.413 214.706 152.413 215.022 152.218 215.218C152.022 215.413 151.706 215.413 151.51 215.218L148.328 212.036ZM378.682 211.682L378.682 212.182L148.682 212.182L148.682 211.682L148.682 211.182L378.682 211.182L378.682 211.682Z" fill="#828282"/>
<path d="M379.036 212.036C379.231 211.84 379.231 211.524 379.036 211.328L375.854 208.146C375.658 207.951 375.342 207.951 375.146 208.146C374.951 208.342 374.951 208.658 375.146 208.854L377.975 211.682L375.146 214.51C374.951 214.706 374.951 215.022 375.146 215.217C375.342 215.413 375.658 215.413 375.853 215.217L379.036 212.036ZM148.682 211.682L148.682 212.182L378.682 212.182L378.682 211.682L378.682 211.182L148.682 211.182L148.682 211.682Z" fill="#828282"/>
<path d="M147.182 161.182V483.182C185.218 512.865 213.174 518.312 267.682 520.182C317.15 518.108 342.571 511.582 380.682 483.182V161.182" stroke="black"/>
<path d="M434.182 420.682C415.275 337.946 404.052 291.848 380.682 211.182V162.682L382.682 147.682L385.682 132.682C387.356 121.151 389.422 114.889 395.682 104.182L402.182 92.182L411.182 95.682C439.755 161.189 452.024 200.675 467.682 275.682C479.899 325.766 484.972 355.042 488.182 411.182C488.369 420.724 488.356 426.091 488.182 435.682L493.182 482.682L454.682 489.682L441.682 445.182C438.26 435.734 436.454 430.431 434.182 420.682Z" stroke="black"/>
<path d="M446.682 458.682L489.682 451.682" stroke="black"/>
<path d="M402.182 92.182L316.682 51.682" stroke="black"/>
<path d="M263.182 84.182C249.102 94.3293 242.222 100.398 231.182 111.682C219.037 86.7987 188.28 32.7175 236.682 23.182C193.342 32.5935 252.283 75.4971 263.182 84.182Z" stroke="black"/>
<path d="M93.682 420.682C112.589 337.946 123.812 291.848 147.182 211.182V162.682L145.182 147.682L142.182 132.682C140.508 121.151 138.442 114.889 132.182 104.182L125.682 92.182L116.682 95.682C88.1089 161.189 75.84 200.675 60.182 275.682C47.9645 325.766 42.8923 355.042 39.682 411.182C39.4945 420.724 39.5079 426.091 39.682 435.682L34.682 482.682L73.182 489.682L86.182 445.182C89.9173 434.916 91.6372 429.618 93.682 420.682Z" stroke="black"/>
<path d="M81.182 458.682L38.182 451.682" stroke="black"/>
<path d="M125.682 92.182L210.682 51.682" stroke="black"/>
<path d="M263.682 84.182C277.762 94.3293 284.642 100.398 295.682 111.682C307.827 86.7987 338.584 32.7175 290.182 23.182C333.522 32.5935 274.581 75.4971 263.682 84.182Z" stroke="black"/>
<circle cx="233.182" cy="96.182" r="3.5" stroke="black"/>
<circle cx="291.182" cy="96.182" r="3.5" stroke="black"/>
<circle cx="264.182" cy="229.182" r="3.5" stroke="black"/>
<circle cx="264.182" cy="288.182" r="3.5" stroke="black"/>
<circle cx="264.182" cy="406.182" r="3.5" stroke="black"/>
<circle cx="264.182" cy="347.182" r="3.5" stroke="black"/>
<circle cx="264.182" cy="170.182" r="3.5" stroke="black"/>
<circle cx="264.182" cy="111.182" r="3.5" stroke="black"/>
<path d="M355.182 149.182V200.384L334.478 210.13L313.182 200.379V149.182H355.182Z" stroke="black"/>
<line x1="273.316" y1="91.182" x2="273.316" y2="520.182" stroke="black"/>
<line x1="254.182" y1="91.182" x2="254.182" y2="520.182" stroke="black"/>
</svg>
