<svg width="321" height="622" viewBox="0 0 321 622" fill="none" xmlns="http://www.w3.org/2000/svg">
<path d="M1.58948 607.299C1.37817 607.477 1.35098 607.793 1.52875 608.004L4.42568 611.447C4.60345 611.659 4.91886 611.686 5.13017 611.508C5.34148 611.33 5.36867 611.015 5.19091 610.804L2.61586 607.743L5.67677 605.168C5.88807 604.99 5.91527 604.674 5.7375 604.463C5.55972 604.252 5.24431 604.225 5.033 604.402L1.58948 607.299ZM117.911 617.682L117.954 617.184L1.95431 607.184L1.91136 607.682L1.86842 608.18L117.868 618.18L117.911 617.682Z" fill="#828282"/>
<path d="M118.294 617.36C118.472 617.571 118.445 617.887 118.233 618.065L114.79 620.962C114.578 621.139 114.263 621.112 114.085 620.901C113.907 620.69 113.935 620.374 114.146 620.196L117.207 617.621L114.632 614.56C114.454 614.349 114.481 614.034 114.693 613.856C114.904 613.678 115.219 613.705 115.397 613.917L118.294 617.36ZM1.91135 607.682L1.9543 607.184L117.954 617.184L117.911 617.682L117.868 618.18L1.86841 608.18L1.91135 607.682Z" fill="#828282"/>
<path d="M51.5579 3.32843C51.3626 3.52369 51.3626 3.84028 51.5579 4.03554L54.7398 7.21752C54.9351 7.41278 55.2517 7.41278 55.447 7.21752C55.6422 7.02226 55.6422 6.70567 55.447 6.51041L52.6185 3.68198L55.447 0.853557C55.6422 0.658295 55.6422 0.341712 55.447 0.14645C55.2517 -0.0488122 54.9351 -0.0488122 54.7398 0.14645L51.5579 3.32843ZM270.911 3.68198V3.18198L51.9114 3.18198V3.68198V4.18198L270.911 4.18198V3.68198Z" fill="#828282"/>
<path d="M271.265 3.32844C271.46 3.5237 271.46 3.84028 271.265 4.03554L268.083 7.21753C267.888 7.41279 267.571 7.41279 267.376 7.21753C267.181 7.02226 267.181 6.70568 267.376 6.51042L270.204 3.68199L267.376 0.853565C267.181 0.658302 267.181 0.34172 267.376 0.146458C267.571 -0.0488045 267.888 -0.0488045 268.083 0.146458L271.265 3.32844ZM51.9114 3.68199V3.18199L270.911 3.18199V3.68199V4.18199L51.9114 4.18199V3.68199Z" fill="#828282"/>
<path d="M317.265 32.3284C317.07 32.1332 316.753 32.1332 316.558 32.3284L313.376 35.5104C313.181 35.7057 313.181 36.0223 313.376 36.2175C313.571 36.4128 313.888 36.4128 314.083 36.2175L316.911 33.3891L319.74 36.2175C319.935 36.4128 320.252 36.4128 320.447 36.2175C320.642 36.0223 320.642 35.7057 320.447 35.5104L317.265 32.3284ZM316.911 138.682H317.411V32.682H316.911H316.411V138.682H316.911Z" fill="#828282"/>
<path d="M317.265 139.036C317.07 139.231 316.753 139.231 316.558 139.036L313.376 135.854C313.181 135.658 313.181 135.342 313.376 135.146C313.571 134.951 313.888 134.951 314.083 135.146L316.911 137.975L319.74 135.146C319.935 134.951 320.252 134.951 320.447 135.146C320.642 135.342 320.642 135.658 320.447 135.854L317.265 139.036ZM316.911 32.682L317.411 32.682L317.411 138.682L316.911 138.682L316.411 138.682L316.411 32.682L316.911 32.682Z" fill="#828282"/>
<path d="M173.952 143.518C173.738 143.343 173.423 143.375 173.248 143.588L170.397 147.07C170.222 147.284 170.253 147.599 170.467 147.774C170.681 147.948 170.996 147.917 171.171 147.703L173.705 144.609L176.8 147.143C177.013 147.318 177.328 147.287 177.503 147.073C177.678 146.859 177.647 146.544 177.433 146.369L173.952 143.518ZM216.933 578.866L217.431 578.816L174.133 143.856L173.635 143.905L173.137 143.955L216.435 578.915L216.933 578.866Z" fill="#828282"/>
<path d="M217.32 579.183C217.145 579.396 216.83 579.427 216.616 579.252L213.135 576.401C212.922 576.226 212.89 575.91 213.065 575.697C213.24 575.483 213.555 575.452 213.769 575.627L216.863 578.162L219.398 575.068C219.573 574.854 219.888 574.823 220.102 574.998C220.315 575.173 220.347 575.488 220.172 575.702L217.32 579.183ZM173.734 143.895L174.231 143.846L217.431 578.816L216.933 578.866L216.435 578.915L173.236 143.945L173.734 143.895Z" fill="#828282"/>
<line x1="3.32092" y1="573.593" x2="0.498096" y2="605.858" stroke="#828282" stroke-dasharray="2 2"/>
<line x1="122.232" y1="583.726" x2="119.409" y2="615.991" stroke="#828282" stroke-dasharray="2 2"/>
<line x1="271.411" y1="31.182" x2="271.411" y2="6.18198" stroke="#828282" stroke-dasharray="2 2"/>
<line x1="51.4114" y1="31.182" x2="51.4114" y2="6.18198" stroke="#828282" stroke-dasharray="2 2"/>
<line x1="160.911" y1="141.182" x2="315.911" y2="141.182" stroke="#828282" stroke-dasharray="2 2"/>
<line x1="270.911" y1="30.682" x2="315.911" y2="30.682" stroke="#828282" stroke-dasharray="2 2"/>
<line x1="161.411" y1="30.682" x2="161.411" y2="141.682" stroke="black"/>
<line x1="319.394" y1="572.728" x2="271.413" y2="30.726" stroke="black"/>
<line x1="200.413" y1="582.726" x2="161.413" y2="140.726" stroke="black"/>
<line x1="49.9114" y1="47.182" x2="272.911" y2="47.182" stroke="black"/>
<path d="M239.403 47.682C240.538 75.5814 277.395 87.682 276.382 87.682" stroke="black" stroke-linecap="round"/>
<path d="M174.403 47.182V123.682C170.684 126.686 167.925 127.313 161.903 126.682" stroke="black" stroke-linecap="round"/>
<circle cx="167.411" cy="38.182" r="3" stroke="black"/>
<line x1="199.846" y1="582.935" x2="319.89" y2="572.433" stroke="black"/>
<line y1="-0.5" x2="544.122" y2="-0.5" transform="matrix(0.0881794 -0.996105 -0.996105 -0.0881794 2.95338 572.684)" stroke="black"/>
<line y1="-0.5" x2="443.717" y2="-0.5" transform="matrix(0.0878938 -0.99613 -0.99613 -0.0878938 121.934 582.682)" stroke="black"/>
<path d="M83.4424 47.682C82.3071 75.5814 45.4498 87.682 46.463 87.682" stroke="black" stroke-linecap="round"/>
<line y1="-0.5" x2="120.503" y2="-0.5" transform="matrix(-0.996195 -0.0871557 -0.0871557 0.996195 122.956 583.433)" stroke="black"/>
<line x1="50.9103" y1="30.6809" x2="271.91" y2="30.6809" stroke="black"/>
<path d="M79.9808 44.842H79.2224V33.482H83.362C85.495 33.482 86.838 34.73 86.838 36.666C86.838 38.33 85.9216 39.514 84.4206 39.834L86.9328 44.842H86.0796L83.6306 39.93H79.9808V44.842ZM79.9808 34.186V39.226H83.3936C85.0842 39.226 86.0638 38.266 86.0638 36.698C86.0638 35.082 85.0052 34.186 83.362 34.186H79.9808Z" fill="black"/>
<path d="M95.7327 44.842H89.1283V33.482H95.7169V34.186H89.8867V38.794H95.1955V39.498H89.8867V44.138H95.7327V44.842Z" fill="black"/>
<path d="M101.158 44.842L96.8444 33.482H97.6502L100.889 41.978C101.126 42.586 101.347 43.178 101.584 43.914C101.821 43.162 102.122 42.33 102.264 41.962L105.487 33.482H106.261L101.964 44.842H101.158Z" fill="black"/>
<path d="M114.449 44.842H107.844V33.482H114.433V34.186H108.603V38.794H113.912V39.498H108.603V44.138H114.449V44.842Z" fill="black"/>
<path d="M115.561 34.186V33.482H123.366V34.186H119.842V44.842H119.084V34.186H115.561Z" fill="black"/>
<path d="M125.699 33.482V44.842H124.941V33.482H125.699Z" fill="black"/>
<path d="M129.294 44.842H128.536V33.482H132.675C134.808 33.482 136.151 34.73 136.151 36.666C136.151 38.33 135.235 39.514 133.734 39.834L136.246 44.842H135.393L132.944 39.93H129.294V44.842ZM129.294 34.186V39.226H132.707C134.398 39.226 135.377 38.266 135.377 36.698C135.377 35.082 134.319 34.186 132.675 34.186H129.294Z" fill="black"/>
</svg>
