<svg width="600" height="800" viewBox="0 0 600 800" fill="none" xmlns="http://www.w3.org/2000/svg">
<rect width="600" height="800" fill="#1E1E1E"/>
<rect width="600" height="800" fill="white"/>
<path d="M154.679 701.617C154.468 701.795 154.441 702.111 154.619 702.322L157.516 705.765C157.693 705.977 158.009 706.004 158.22 705.826C158.431 705.648 158.459 705.333 158.281 705.122L155.706 702.061L158.767 699.486C158.978 699.308 159.005 698.992 158.828 698.781C158.65 698.57 158.334 698.543 158.123 698.72L154.679 701.617ZM271.001 712L271.044 711.502L155.044 701.502L155.001 702L154.958 702.498L270.958 712.498L271.001 712Z" fill="#828282"/>
<path d="M271.384 711.678C271.562 711.889 271.535 712.205 271.323 712.383L267.88 715.28C267.668 715.457 267.353 715.43 267.175 715.219C266.997 715.008 267.025 714.692 267.236 714.514L270.297 711.939L267.722 708.878C267.544 708.667 267.571 708.352 267.783 708.174C267.994 707.996 268.309 708.023 268.487 708.235L271.384 711.678ZM155.001 702L155.044 701.502L271.044 711.502L271.001 712L270.958 712.498L154.958 702.498L155.001 702Z" fill="#828282"/>
<path d="M204.648 97.6464C204.453 97.8417 204.453 98.1583 204.648 98.3536L207.83 101.536C208.025 101.731 208.342 101.731 208.537 101.536C208.732 101.34 208.732 101.024 208.537 100.828L205.709 98L208.537 95.1716C208.732 94.9763 208.732 94.6597 208.537 94.4645C208.342 94.2692 208.025 94.2692 207.83 94.4645L204.648 97.6464ZM424.001 98V97.5L205.001 97.5V98V98.5L424.001 98.5V98Z" fill="#828282"/>
<path d="M424.355 97.6465C424.55 97.8417 424.55 98.1583 424.355 98.3536L421.173 101.536C420.978 101.731 420.661 101.731 420.466 101.536C420.271 101.34 420.271 101.024 420.466 100.828L423.294 98L420.466 95.1716C420.271 94.9763 420.271 94.6597 420.466 94.4645C420.661 94.2692 420.978 94.2692 421.173 94.4645L424.355 97.6465ZM205.001 98V97.5L424.001 97.5V98V98.5L205.001 98.5V98Z" fill="#828282"/>
<path d="M470.355 126.646C470.16 126.451 469.843 126.451 469.648 126.646L466.466 129.828C466.271 130.024 466.271 130.34 466.466 130.536C466.661 130.731 466.978 130.731 467.173 130.536L470.001 127.707L472.83 130.536C473.025 130.731 473.342 130.731 473.537 130.536C473.732 130.34 473.732 130.024 473.537 129.828L470.355 126.646ZM470.001 233H470.501V127H470.001H469.501V233H470.001Z" fill="#828282"/>
<path d="M470.355 233.354C470.16 233.549 469.843 233.549 469.648 233.354L466.466 230.172C466.271 229.976 466.271 229.66 466.466 229.464C466.661 229.269 466.978 229.269 467.173 229.464L470.001 232.293L472.83 229.464C473.025 229.269 473.342 229.269 473.537 229.464C473.732 229.66 473.732 229.976 473.537 230.172L470.355 233.354ZM470.001 127L470.501 127L470.501 233L470.001 233L469.501 233L469.501 127L470.001 127Z" fill="#828282"/>
<path d="M327.042 237.836C326.828 237.661 326.513 237.693 326.338 237.906L323.487 241.388C323.312 241.602 323.343 241.917 323.557 242.092C323.771 242.267 324.086 242.235 324.261 242.021L326.795 238.927L329.89 241.461C330.103 241.636 330.418 241.605 330.593 241.391C330.768 241.177 330.737 240.862 330.523 240.687L327.042 237.836ZM370.023 673.184L370.521 673.134L327.223 238.174L326.725 238.223L326.227 238.273L369.525 673.233L370.023 673.184Z" fill="#828282"/>
<path d="M370.41 673.501C370.235 673.714 369.92 673.745 369.706 673.57L366.225 670.719C366.012 670.544 365.98 670.228 366.155 670.015C366.33 669.801 366.645 669.77 366.859 669.945L369.953 672.48L372.488 669.386C372.663 669.172 372.978 669.141 373.192 669.316C373.405 669.491 373.437 669.806 373.262 670.02L370.41 673.501ZM326.824 238.213L327.321 238.164L370.521 673.134L370.023 673.184L369.525 673.233L326.326 238.263L326.824 238.213Z" fill="#828282"/>
<line x1="156.411" y1="667.911" x2="153.588" y2="700.176" stroke="#828282" stroke-dasharray="2 2"/>
<line x1="275.322" y1="678.044" x2="272.499" y2="710.309" stroke="#828282" stroke-dasharray="2 2"/>
<line x1="424.501" y1="125.5" x2="424.501" y2="100.5" stroke="#828282" stroke-dasharray="2 2"/>
<line x1="204.501" y1="125.5" x2="204.501" y2="100.5" stroke="#828282" stroke-dasharray="2 2"/>
<line x1="314.001" y1="235.5" x2="469.001" y2="235.5" stroke="#828282" stroke-dasharray="2 2"/>
<line x1="424.001" y1="125" x2="469.001" y2="125" stroke="#828282" stroke-dasharray="2 2"/>
<line x1="314.501" y1="125" x2="314.501" y2="236" stroke="black"/>
<line x1="472.484" y1="667.046" x2="424.503" y2="125.044" stroke="black"/>
<line x1="353.503" y1="677.044" x2="314.503" y2="235.044" stroke="black"/>
<line x1="203.001" y1="141.5" x2="426.001" y2="141.5" stroke="black"/>
<path d="M392.493 142C393.628 169.899 430.485 182 429.472 182" stroke="black" stroke-linecap="round"/>
<path d="M327.493 141.5V218C323.774 221.004 321.015 221.631 314.993 221" stroke="black" stroke-linecap="round"/>
<circle cx="320.501" cy="132.5" r="3" stroke="black"/>
<line x1="352.936" y1="677.253" x2="472.98" y2="666.751" stroke="black"/>
<line y1="-0.5" x2="544.122" y2="-0.5" transform="matrix(0.0881794 -0.996105 -0.996105 -0.0881794 156.043 667.002)" stroke="black"/>
<line y1="-0.5" x2="443.717" y2="-0.5" transform="matrix(0.0878938 -0.99613 -0.99613 -0.0878938 275.024 677)" stroke="black"/>
<path d="M236.532 142C235.397 169.899 198.54 182 199.553 182" stroke="black" stroke-linecap="round"/>
<line y1="-0.5" x2="120.503" y2="-0.5" transform="matrix(-0.996195 -0.0871557 -0.0871557 0.996195 276.046 677.751)" stroke="black"/>
<line x1="204" y1="124.999" x2="425" y2="124.999" stroke="black"/>
<path d="M233.071 139.16H232.312V127.8H236.452C238.585 127.8 239.928 129.048 239.928 130.984C239.928 132.648 239.012 133.832 237.511 134.152L240.023 139.16H239.17L236.721 134.248H233.071V139.16ZM233.071 128.504V133.544H236.484C238.174 133.544 239.154 132.584 239.154 131.016C239.154 129.4 238.095 128.504 236.452 128.504H233.071Z" fill="black"/>
<path d="M248.823 139.16H242.218V127.8H248.807V128.504H242.977V133.112H248.285V133.816H242.977V138.456H248.823V139.16Z" fill="black"/>
<path d="M254.248 139.16L249.934 127.8H250.74L253.979 136.296C254.216 136.904 254.437 137.496 254.674 138.232C254.911 137.48 255.212 136.648 255.354 136.28L258.577 127.8H259.351L255.054 139.16H254.248Z" fill="black"/>
<path d="M267.539 139.16H260.934V127.8H267.523V128.504H261.693V133.112H267.002V133.816H261.693V138.456H267.539V139.16Z" fill="black"/>
<path d="M268.651 128.504V127.8H276.456V128.504H272.932V139.16H272.174V128.504H268.651Z" fill="black"/>
<path d="M278.789 127.8V139.16H278.031V127.8H278.789Z" fill="black"/>
<path d="M282.384 139.16H281.626V127.8H285.765C287.898 127.8 289.241 129.048 289.241 130.984C289.241 132.648 288.325 133.832 286.824 134.152L289.336 139.16H288.483L286.034 134.248H282.384V139.16ZM282.384 128.504V133.544H285.797C287.488 133.544 288.467 132.584 288.467 131.016C288.467 129.4 287.409 128.504 285.765 128.504H282.384Z" fill="black"/>
</svg>
