<svg width="358" height="622" viewBox="0 0 358 622" fill="none" xmlns="http://www.w3.org/2000/svg">
<path d="M38.207 607.299C37.9957 607.477 37.9685 607.793 38.1463 608.004L41.0432 611.447C41.2209 611.659 41.5364 611.686 41.7477 611.508C41.959 611.33 41.9862 611.015 41.8084 610.804L39.2334 607.743L42.2943 605.168C42.5056 604.99 42.5328 604.674 42.355 604.463C42.1772 604.252 41.8618 604.225 41.6505 604.402L38.207 607.299ZM154.529 617.682L154.572 617.184L38.5718 607.184L38.5289 607.682L38.4859 608.18L154.486 618.18L154.529 617.682Z" fill="#828282"/>
<path d="M154.911 617.36C155.089 617.571 155.062 617.887 154.851 618.065L151.407 620.962C151.196 621.139 150.88 621.112 150.703 620.901C150.525 620.69 150.552 620.374 150.763 620.196L153.824 617.621L151.249 614.56C151.072 614.349 151.099 614.034 151.31 613.856C151.521 613.678 151.837 613.705 152.015 613.917L154.911 617.36ZM38.5289 607.682L38.5718 607.184L154.572 617.184L154.529 617.682L154.486 618.18L38.4859 608.18L38.5289 607.682Z" fill="#828282"/>
<path d="M88.1755 3.32843C87.9802 3.52369 87.9802 3.84028 88.1755 4.03554L91.3575 7.21752C91.5527 7.41278 91.8693 7.41278 92.0646 7.21752C92.2598 7.02226 92.2598 6.70567 92.0646 6.51041L89.2361 3.68198L92.0646 0.853557C92.2598 0.658295 92.2598 0.341712 92.0646 0.14645C91.8693 -0.0488122 91.5527 -0.0488122 91.3575 0.14645L88.1755 3.32843ZM307.529 3.68198V3.18198L88.529 3.18198V3.68198V4.18198L307.529 4.18198V3.68198Z" fill="#828282"/>
<path d="M307.883 3.32844C308.078 3.5237 308.078 3.84028 307.883 4.03554L304.701 7.21753C304.505 7.41279 304.189 7.41279 303.993 7.21753C303.798 7.02226 303.798 6.70568 303.993 6.51042L306.822 3.68199L303.993 0.853565C303.798 0.658302 303.798 0.34172 303.993 0.146458C304.189 -0.0488045 304.505 -0.0488045 304.701 0.146458L307.883 3.32844ZM88.529 3.68199V3.18199L307.529 3.18199V3.68199V4.18199L88.529 4.18199V3.68199Z" fill="#828282"/>
<path d="M353.883 32.3284C353.687 32.1332 353.371 32.1332 353.175 32.3284L349.993 35.5104C349.798 35.7057 349.798 36.0223 349.993 36.2175C350.189 36.4128 350.505 36.4128 350.701 36.2175L353.529 33.3891L356.357 36.2175C356.553 36.4128 356.869 36.4128 357.065 36.2175C357.26 36.0223 357.26 35.7057 357.065 35.5104L353.883 32.3284ZM353.529 138.682H354.029V32.682H353.529H353.029V138.682H353.529Z" fill="#828282"/>
<path d="M353.883 139.036C353.687 139.231 353.371 139.231 353.175 139.036L349.993 135.854C349.798 135.658 349.798 135.342 349.993 135.146C350.189 134.951 350.505 134.951 350.701 135.146L353.529 137.975L356.357 135.146C356.553 134.951 356.869 134.951 357.065 135.146C357.26 135.342 357.26 135.658 357.065 135.854L353.883 139.036ZM353.529 32.682L354.029 32.682L354.029 138.682L353.529 138.682L353.029 138.682L353.029 32.682L353.529 32.682Z" fill="#828282"/>
<path d="M210.569 143.518C210.356 143.343 210.041 143.375 209.866 143.588L207.015 147.07C206.84 147.284 206.871 147.599 207.085 147.774C207.298 147.948 207.613 147.917 207.788 147.703L210.323 144.609L213.417 147.143C213.631 147.318 213.946 147.287 214.121 147.073C214.296 146.859 214.264 146.544 214.051 146.369L210.569 143.518ZM253.551 578.866L254.048 578.816L210.75 143.856L210.253 143.905L209.755 143.955L253.053 578.915L253.551 578.866Z" fill="#828282"/>
<path d="M253.937 579.183C253.762 579.396 253.447 579.427 253.234 579.252L249.753 576.401C249.539 576.226 249.508 575.91 249.683 575.697C249.858 575.483 250.173 575.452 250.387 575.627L253.481 578.162L256.016 575.068C256.191 574.854 256.506 574.823 256.719 574.998C256.933 575.173 256.964 575.488 256.789 575.702L253.937 579.183ZM210.351 143.895L210.849 143.846L254.048 578.816L253.551 578.866L253.053 578.915L209.854 143.945L210.351 143.895Z" fill="#828282"/>
<path d="M52.8375 31.1726C52.6609 30.9603 52.3457 30.9315 52.1334 31.1081L48.6743 33.9864C48.462 34.163 48.4331 34.4782 48.6097 34.6905C48.7863 34.9028 49.1016 34.9316 49.3139 34.755L52.3887 32.1966L54.9471 35.2714C55.1237 35.4836 55.439 35.5125 55.6513 35.3359C55.8635 35.1593 55.8924 34.844 55.7158 34.6318L52.8375 31.1726ZM3.37684 566.923L3.87475 566.968L52.9511 31.5381L52.4532 31.4924L51.9553 31.4468L2.87892 566.877L3.37684 566.923Z" fill="#828282"/>
<path d="M3.69654 567.307C3.48419 567.484 3.16894 567.455 2.9924 567.243L0.115532 563.783C-0.0610079 563.571 -0.0319757 563.256 0.180374 563.079C0.392724 562.903 0.707982 562.931 0.884522 563.144L3.44174 566.219L6.5177 563.661C6.73005 563.484 7.04531 563.513 7.22185 563.725C7.39839 563.938 7.36936 564.253 7.15701 564.429L3.69654 567.307ZM52.6833 31.5135L53.1812 31.5592L3.8748 566.969L3.37689 566.923L2.87899 566.877L52.1854 31.4678L52.6833 31.5135Z" fill="#828282"/>
<line x1="39.9384" y1="573.593" x2="37.1156" y2="605.858" stroke="#828282" stroke-dasharray="2 2"/>
<path d="M38.7072 572.385L4.02748 568.682" stroke="#828282" stroke-dasharray="2 2"/>
<path d="M88.4016 30.7971L53.5301 30.182" stroke="#828282" stroke-dasharray="2 2"/>
<line x1="158.85" y1="583.726" x2="156.027" y2="615.991" stroke="#828282" stroke-dasharray="2 2"/>
<line x1="308.029" y1="31.182" x2="308.029" y2="6.18198" stroke="#828282" stroke-dasharray="2 2"/>
<line x1="88.0288" y1="31.182" x2="88.0288" y2="6.18198" stroke="#828282" stroke-dasharray="2 2"/>
<line x1="197.529" y1="141.182" x2="352.529" y2="141.182" stroke="#828282" stroke-dasharray="2 2"/>
<line x1="307.529" y1="30.682" x2="352.529" y2="30.682" stroke="#828282" stroke-dasharray="2 2"/>
<line x1="198.029" y1="30.682" x2="198.029" y2="141.682" stroke="black"/>
<line x1="356.011" y1="572.728" x2="308.031" y2="30.726" stroke="black"/>
<line x1="237.031" y1="582.726" x2="198.031" y2="140.726" stroke="black"/>
<line x1="86.5289" y1="47.182" x2="309.529" y2="47.182" stroke="black"/>
<path d="M276.02 47.682C277.156 75.5814 314.013 87.682 313 87.682" stroke="black" stroke-linecap="round"/>
<path d="M211.02 47.182V123.682C207.301 126.686 204.542 127.313 198.52 126.682" stroke="black" stroke-linecap="round"/>
<circle cx="204.029" cy="38.182" r="3" stroke="black"/>
<line x1="236.463" y1="582.935" x2="356.508" y2="572.433" stroke="black"/>
<line y1="-0.5" x2="544.122" y2="-0.5" transform="matrix(0.0881794 -0.996105 -0.996105 -0.0881794 39.5709 572.684)" stroke="black"/>
<line y1="-0.5" x2="443.717" y2="-0.5" transform="matrix(0.0878938 -0.99613 -0.99613 -0.0878938 158.551 582.682)" stroke="black"/>
<path d="M120.06 47.682C118.925 75.5814 82.0673 87.682 83.0804 87.682" stroke="black" stroke-linecap="round"/>
<line y1="-0.5" x2="120.503" y2="-0.5" transform="matrix(-0.996195 -0.0871557 -0.0871557 0.996195 159.573 583.433)" stroke="black"/>
<line x1="87.5278" y1="30.6809" x2="308.528" y2="30.6809" stroke="black"/>
<path d="M116.598 44.842H115.84V33.482H119.979C122.112 33.482 123.455 34.73 123.455 36.666C123.455 38.33 122.539 39.514 121.038 39.834L123.55 44.842H122.697L120.248 39.93H116.598V44.842ZM116.598 34.186V39.226H120.011C121.702 39.226 122.681 38.266 122.681 36.698C122.681 35.082 121.623 34.186 119.979 34.186H116.598Z" fill="black"/>
<path d="M132.35 44.842H125.746V33.482H132.334V34.186H126.504V38.794H131.813V39.498H126.504V44.138H132.35V44.842Z" fill="black"/>
<path d="M137.775 44.842L133.462 33.482H134.268L137.507 41.978C137.744 42.586 137.965 43.178 138.202 43.914C138.439 43.162 138.739 42.33 138.881 41.962L142.104 33.482H142.879L138.581 44.842H137.775Z" fill="black"/>
<path d="M151.066 44.842H144.462V33.482H151.051V34.186H145.22V38.794H150.529V39.498H145.22V44.138H151.066V44.842Z" fill="black"/>
<path d="M152.178 34.186V33.482H159.983V34.186H156.46V44.842H155.701V34.186H152.178Z" fill="black"/>
<path d="M162.316 33.482V44.842H161.558V33.482H162.316Z" fill="black"/>
<path d="M165.912 44.842H165.153V33.482H169.293C171.426 33.482 172.769 34.73 172.769 36.666C172.769 38.33 171.852 39.514 170.351 39.834L172.864 44.842H172.01L169.561 39.93H165.912V44.842ZM165.912 34.186V39.226H169.324C171.015 39.226 171.995 38.266 171.995 36.698C171.995 35.082 170.936 34.186 169.293 34.186H165.912Z" fill="black"/>
</svg>
