<svg width="1254" height="1913" viewBox="0 0 1254 1913" fill="none" xmlns="http://www.w3.org/2000/svg">
<rect width="1254" height="1913" fill="white"/>
<circle cx="625" cy="625" r="624.5" transform="matrix(1 0 0 -1 2 1912.9)" stroke="black"/>
<path d="M306.75 927.146C306.75 895.146 333.25 872.896 371.75 872.896C408.75 872.896 432.25 893.395 433.25 926.396H401.25C400.5 910.645 389.25 901.395 371.25 901.395C351.5 901.395 338.75 910.896 338.75 926.146C338.75 939.145 345.75 946.396 361 949.896L389.75 956.146C421 962.896 436.25 978.896 436.25 1006.15C436.25 1040.15 409.75 1062.15 369.5 1062.15C330.5 1062.15 305 1041.4 304.25 1008.65H336.25C336.5 1024.15 349 1033.4 369.5 1033.4C390.75 1033.4 404.25 1024.15 404.25 1008.9C404.25 996.646 398 989.396 383 986.146L354 979.646C323 972.896 306.75 955.146 306.75 927.146ZM480.949 1058.9H447.699L513.699 876.146H546.449L612.449 1058.9H578.699L563.949 1016.65H495.699L480.949 1058.9ZM525.949 930.646L505.199 989.646H554.699L533.699 930.646C532.199 925.896 530.449 920.396 529.949 916.646C529.199 920.146 527.699 925.645 525.949 930.646ZM667.365 876.146V1029.4H743.865V1058.9H635.365V876.146H667.365ZM883.387 1058.9H769.887V876.146H883.387V905.645H801.887V952.646H874.887V980.896H801.887V1029.4H883.387V1058.9ZM936.58 970.896C925.58 970.896 916.33 961.896 916.33 951.146C916.33 940.146 925.58 931.145 936.58 931.145C947.58 931.145 956.83 940.146 956.83 951.146C956.83 961.896 947.58 970.896 936.58 970.896ZM936.58 1061.9C925.58 1061.9 916.33 1052.9 916.33 1042.15C916.33 1031.15 925.58 1022.15 936.58 1022.15C947.58 1022.15 956.83 1031.15 956.83 1042.15C956.83 1052.9 947.58 1061.9 936.58 1061.9Z" fill="black"/>
<path d="M37.875 1247.72L37.875 1165.65H46.275L46.275 1247.55C46.275 1271 59.05 1283.77 82.5 1283.77C105.425 1283.77 118.2 1270.82 118.2 1247.55L118.2 1165.65H126.6L126.6 1247.72C126.6 1275.37 110.15 1292 82.5 1292C54.5 1292 37.875 1275.55 37.875 1247.72ZM154.733 1325.42V1205.9H161.208L162.433 1224.8C168.733 1210.45 180.808 1203.8 195.333 1203.8C220.008 1203.8 234.008 1223.05 234.008 1247.9C234.008 1272.75 220.008 1292 195.333 1292C180.458 1292 168.908 1285.35 162.783 1271.7V1325.42H154.733ZM162.958 1247.9C162.958 1269.07 174.333 1284.65 194.458 1284.65C214.408 1284.65 225.783 1269.07 225.783 1247.9C225.783 1226.55 214.408 1211.15 194.458 1211.15C174.333 1211.15 162.958 1226.55 162.958 1247.9ZM318.639 1289.9H310.589V1212.9H293.614V1205.9H310.589V1179.3H318.639V1205.9H335.614V1212.9H318.639V1289.9ZM345.308 1247.9C345.308 1222.52 362.983 1203.8 386.958 1203.8C410.933 1203.8 428.608 1222.52 428.608 1247.9C428.608 1273.27 410.933 1292 386.958 1292C362.983 1292 345.308 1273.27 345.308 1247.9ZM353.533 1247.9C353.533 1269.42 367.358 1284.65 386.958 1284.65C406.558 1284.65 420.383 1269.42 420.383 1247.9C420.383 1226.37 406.558 1211.15 386.958 1211.15C367.358 1211.15 353.533 1226.37 353.533 1247.9ZM494.222 1256.65C494.222 1241.25 503.847 1229 519.072 1223.92C505.947 1218.67 498.597 1208.17 498.597 1195.05C498.597 1176.32 514.172 1163.55 537.097 1163.55C559.847 1163.55 575.247 1176.32 575.247 1195.05C575.247 1208.52 567.897 1219.02 554.947 1223.92C569.997 1228.3 579.797 1240.9 579.797 1256.82C579.797 1277.47 562.297 1292 537.097 1292C511.722 1292 494.222 1277.47 494.222 1256.65ZM506.822 1194.7C506.822 1209.92 518.897 1220.07 537.097 1220.07C555.297 1220.07 567.022 1210.27 567.022 1195.05C567.022 1180.52 555.297 1171.25 537.097 1171.25C518.897 1171.25 506.822 1180.52 506.822 1194.7ZM502.447 1255.77C502.447 1272.75 516.622 1284.3 537.272 1284.3C557.572 1284.3 571.572 1272.75 571.572 1255.95C571.572 1239.15 557.922 1228.12 536.922 1228.12C516.097 1228.12 502.447 1239.15 502.447 1255.77ZM599.857 1227.77C599.857 1189.1 618.057 1163.37 648.332 1163.37C678.607 1163.37 696.807 1189.1 696.807 1227.77C696.807 1266.45 678.607 1292.17 648.332 1292.17C618.057 1292.17 599.857 1266.45 599.857 1227.77ZM608.082 1227.77C608.082 1261.55 622.782 1284.3 648.332 1284.3C673.882 1284.3 688.582 1261.55 688.582 1227.77C688.582 1194 673.882 1171.25 648.332 1171.25C622.782 1171.25 608.082 1194 608.082 1227.77ZM775.877 1193.3C775.877 1210.62 763.452 1223.22 746.302 1223.22C729.152 1223.22 716.727 1210.62 716.727 1193.3C716.727 1175.97 729.152 1163.37 746.302 1163.37C763.452 1163.37 775.877 1175.97 775.877 1193.3ZM836.602 1165.65L742.277 1289.9H733.177L827.327 1165.65H836.602ZM768.177 1193.3C768.177 1180 759.252 1170.72 746.302 1170.72C733.352 1170.72 724.427 1180 724.427 1193.3C724.427 1206.6 733.527 1215.87 746.302 1215.87C759.077 1215.87 768.177 1206.6 768.177 1193.3ZM853.227 1262.25C853.227 1279.57 840.802 1292.17 823.652 1292.17C806.502 1292.17 794.077 1279.57 794.077 1262.25C794.077 1244.92 806.502 1232.32 823.652 1232.32C840.802 1232.32 853.227 1244.92 853.227 1262.25ZM845.527 1262.25C845.527 1248.95 836.602 1239.67 823.652 1239.67C810.702 1239.67 801.777 1248.95 801.777 1262.25C801.777 1275.55 810.877 1284.82 823.652 1284.82C836.427 1284.82 845.527 1275.55 845.527 1262.25ZM1036.97 1227.77C1036.97 1265.4 1012.65 1292 978.172 1292C943.697 1292 919.547 1265.4 919.547 1227.77C919.547 1190.15 943.872 1163.55 978.172 1163.55C1012.65 1163.55 1036.97 1190.15 1036.97 1227.77ZM1028.4 1227.77C1028.4 1194.7 1007.75 1171.6 978.172 1171.6C948.772 1171.6 928.122 1194.7 928.122 1227.77C928.122 1260.85 948.772 1283.95 978.172 1283.95C1007.75 1283.95 1028.4 1260.85 1028.4 1227.77ZM1121.8 1233.55H1068.95V1289.9H1060.55V1165.65H1131.95V1173.35H1068.95V1225.85H1121.8V1233.55ZM1215.11 1233.55H1162.26V1289.9H1153.86V1165.65H1225.26V1173.35H1162.26V1225.85H1215.11V1233.55Z" fill="black"/>
<path d="M1229.19 659.983V662.896H1186V646.997C1186 638.806 1190.75 633.648 1198.11 633.648C1204.43 633.648 1208.93 637.167 1210.15 642.932L1229.19 633.284V636.56L1210.52 645.966V659.983H1229.19ZM1188.68 659.983H1207.84V646.876C1207.84 640.383 1204.19 636.621 1198.23 636.621C1192.08 636.621 1188.68 640.687 1188.68 646.997V659.983Z" fill="black"/>
<path d="M1229.19 599.488V624.852H1186V599.548H1188.68V621.939H1206.2V601.551H1208.87V621.939H1226.51V599.488H1229.19Z" fill="black"/>
<path d="M1229.19 578.653L1186 595.218V592.124L1218.3 579.684C1220.61 578.774 1222.87 577.924 1225.66 577.014C1222.8 576.104 1219.64 574.951 1218.24 574.405L1186 562.026V559.053L1229.19 575.558V578.653Z" fill="black"/>
<path d="M1229.19 527.608V552.972H1186V527.669H1188.68V550.06H1206.2V529.671H1208.87V550.06H1226.51V527.608H1229.19Z" fill="black"/>
<path d="M1188.68 523.338H1186V493.363H1188.68V506.894H1229.19V509.807H1188.68V523.338Z" fill="black"/>
<path d="M1186 484.402H1229.19V487.314H1186V484.402Z" fill="black"/>
<path d="M1229.19 470.595V473.507H1186V457.609C1186 449.417 1190.75 444.26 1198.11 444.26C1204.43 444.26 1208.93 447.779 1210.15 453.544L1229.19 443.896V447.172L1210.52 456.578V470.595H1229.19ZM1188.68 470.595H1207.84V457.488C1207.84 450.995 1204.19 447.233 1198.23 447.233C1192.08 447.233 1188.68 451.298 1188.68 457.609V470.595Z" fill="black"/>
<mask id="path-5-inside-1_0_1" fill="white">
<path d="M1253.74 445.984L1079.05 253.504L851.113 1.00684L850.667 0.511719H322.284L1.00195 0.00195312L0 0V1912.9H1254V446.271L1253.74 445.984ZM4 1909.55V3.51172H849.333L1121.09 304.554L1250 447.42V1909.55H4Z"/>
</mask>
<path d="M1253.74 445.984L1252.26 447.329L1252.26 447.329L1253.74 445.984ZM1079.05 253.504L1077.56 254.848L1077.56 254.844L1079.05 253.504ZM851.113 1.00684L849.629 2.34699L849.628 2.3459L851.113 1.00684ZM850.667 0.511719V-1.48828H851.557L852.153 -0.827344L850.667 0.511719ZM322.284 0.511719L322.284 2.51172L322.281 2.51172L322.284 0.511719ZM1.00195 0.00195312L0.99878 2.00195L0.998054 2.00195L1.00195 0.00195312ZM0 0H-2V-2.0039L0.00389863 -2L0 0ZM0 1912.9V1914.9H-2V1912.9H0ZM1254 1912.9H1256V1914.9H1254V1912.9ZM1254 446.271L1255.48 444.926L1256 445.498V446.271H1254ZM4 1909.55V1911.55H2V1909.55H4ZM4 3.51172H2V1.51172H4V3.51172ZM849.333 3.51172V1.51172H850.222L850.818 2.17156L849.333 3.51172ZM1121.09 304.554L1122.57 303.214L1122.57 303.214L1121.09 304.554ZM1250 447.42L1251.48 446.08L1252 446.651V447.42H1250ZM1250 1909.55H1252V1911.55H1250V1909.55ZM1253.74 445.984L1252.26 447.329L1077.56 254.848L1079.05 253.504L1080.53 252.16L1255.22 444.64L1253.74 445.984ZM1079.05 253.504L1077.56 254.844L849.629 2.34699L851.113 1.00684L852.598 -0.333318L1080.53 252.164L1079.05 253.504ZM851.113 1.00684L849.628 2.3459L849.181 1.85078L850.667 0.511719L852.153 -0.827344L852.599 -0.332226L851.113 1.00684ZM850.667 0.511719V2.51172H322.284V0.511719V-1.48828H850.667V0.511719ZM322.284 0.511719L322.281 2.51172L0.99878 2.00195L1.00195 0.00195312L1.00513 -1.99804L322.287 -1.48828L322.284 0.511719ZM1.00195 0.00195312L0.998054 2.00195L-0.00389863 2L0 0L0.00389863 -2L1.00585 -1.99804L1.00195 0.00195312ZM0 0H2V1912.9H0H-2V0H0ZM0 1912.9V1910.9H1254V1912.9V1914.9H0V1912.9ZM1254 1912.9H1252V446.271H1254H1256V1912.9H1254ZM1254 446.271L1252.52 447.615L1252.26 447.329L1253.74 445.984L1255.22 444.64L1255.48 444.926L1254 446.271ZM4 1909.55H2V3.51172H4H6V1909.55H4ZM4 3.51172V1.51172H849.333V3.51172V5.51172H4V3.51172ZM849.333 3.51172L850.818 2.17156L1122.57 303.214L1121.09 304.554L1119.6 305.894L847.848 4.85188L849.333 3.51172ZM1121.09 304.554L1122.57 303.214L1251.48 446.08L1250 447.42L1248.52 448.76L1119.6 305.894L1121.09 304.554ZM1250 447.42H1252V1909.55H1250H1248V447.42H1250ZM1250 1909.55V1911.55H4V1909.55V1907.55H1250V1909.55Z" fill="black" mask="url(#path-5-inside-1_0_1)"/>
</svg>
