<svg width="2000" height="2000" viewBox="0 0 2000 2000" fill="none" xmlns="http://www.w3.org/2000/svg">
  <path d="M259.235 470.8C259.235 447.6 277.435 432.6 305.435 432.6C329.835 432.6 346.035 446.2 348.835 469H338.835C336.835 451.4 324.835 441.4 305.435 441.4C283.435 441.4 268.835 453 268.835 470.8C268.835 484.4 277.035 493.4 293.235 497.6L318.435 504C339.835 509.4 351.235 522.2 351.235 540.4C351.235 564.2 332.835 579.4 304.435 579.4C277.835 579.4 259.835 565.6 257.635 543.4H267.835C268.635 559.6 283.235 570.4 304.435 570.4C327.035 570.4 341.635 558.8 341.635 540.6C341.635 526.6 333.435 517.2 316.635 513L292.035 506.8C270.635 501.4 259.235 489.2 259.235 470.8ZM372.791 577H363.191L415.791 435H429.991L483.191 577H473.391L458.391 537.2H387.591L372.791 577ZM421.591 445.2L390.791 528.4H455.191L423.991 445.2C423.591 444 422.991 442.6 422.791 441.6C422.591 442.4 421.991 444.2 421.591 445.2ZM513.768 435V568.2H581.368V577H504.168V435H513.768ZM686.987 577H603.387V435H686.787V443.8H612.987V501.4H680.187V510.2H612.987V568.2H686.987V577ZM726.059 500.8C720.059 500.8 715.059 495.8 715.059 490C715.059 484 720.059 479 726.059 479C732.059 479 737.059 484 737.059 490C737.059 495.8 732.059 500.8 726.059 500.8ZM726.059 579.2C720.059 579.2 715.059 574.2 715.059 568.4C715.059 562.4 720.059 557.4 726.059 557.4C732.059 557.4 737.059 562.4 737.059 568.4C737.059 574.2 732.059 579.2 726.059 579.2Z" fill="black"/>
  <path d="M1078.4 1518.67V1457.7H1084.64V1518.54C1084.64 1535.96 1094.13 1545.45 1111.55 1545.45C1128.58 1545.45 1138.07 1535.83 1138.07 1518.54V1457.7H1144.31V1518.67C1144.31 1539.21 1132.09 1551.56 1111.55 1551.56C1090.75 1551.56 1078.4 1539.34 1078.4 1518.67ZM1165.21 1576.39V1487.6H1170.02L1170.93 1501.64C1175.61 1490.98 1184.58 1486.04 1195.37 1486.04C1213.7 1486.04 1224.1 1500.34 1224.1 1518.8C1224.1 1537.26 1213.7 1551.56 1195.37 1551.56C1184.32 1551.56 1175.74 1546.62 1171.19 1536.48V1576.39H1165.21ZM1171.32 1518.8C1171.32 1534.53 1179.77 1546.1 1194.72 1546.1C1209.54 1546.1 1217.99 1534.53 1217.99 1518.8C1217.99 1502.94 1209.54 1491.5 1194.72 1491.5C1179.77 1491.5 1171.32 1502.94 1171.32 1518.8ZM1286.97 1550H1280.99V1492.8H1268.38V1487.6H1280.99V1467.84H1286.97V1487.6H1299.58V1492.8H1286.97V1550ZM1306.78 1518.8C1306.78 1499.95 1319.91 1486.04 1337.72 1486.04C1355.53 1486.04 1368.66 1499.95 1368.66 1518.8C1368.66 1537.65 1355.53 1551.56 1337.72 1551.56C1319.91 1551.56 1306.78 1537.65 1306.78 1518.8ZM1312.89 1518.8C1312.89 1534.79 1323.16 1546.1 1337.72 1546.1C1352.28 1546.1 1362.55 1534.79 1362.55 1518.8C1362.55 1502.81 1352.28 1491.5 1337.72 1491.5C1323.16 1491.5 1312.89 1502.81 1312.89 1518.8ZM1470.57 1517.11L1446.13 1550H1438.72L1464.46 1515.94C1458.48 1519.58 1454.06 1520.62 1448.73 1520.62C1429.49 1520.62 1416.75 1506.32 1416.75 1488.51C1416.75 1470.05 1430.92 1456.14 1448.86 1456.14C1466.8 1456.14 1481.23 1470.31 1481.23 1488.51C1481.23 1499.04 1478.63 1506.32 1470.57 1517.11ZM1474.99 1488.51C1474.99 1473.17 1464.2 1461.99 1448.86 1461.99C1433.78 1461.99 1422.99 1473.17 1422.99 1488.51C1422.99 1503.72 1433.78 1514.77 1448.86 1514.77C1464.2 1514.77 1474.99 1503.72 1474.99 1488.51ZM1495.49 1503.85C1495.49 1475.12 1509.01 1456.01 1531.5 1456.01C1553.99 1456.01 1567.51 1475.12 1567.51 1503.85C1567.51 1532.58 1553.99 1551.69 1531.5 1551.69C1509.01 1551.69 1495.49 1532.58 1495.49 1503.85ZM1501.6 1503.85C1501.6 1528.94 1512.52 1545.84 1531.5 1545.84C1550.48 1545.84 1561.4 1528.94 1561.4 1503.85C1561.4 1478.76 1550.48 1461.86 1531.5 1461.86C1512.52 1461.86 1501.6 1478.76 1501.6 1503.85ZM1626.25 1478.24C1626.25 1491.11 1617.02 1500.47 1604.28 1500.47C1591.54 1500.47 1582.31 1491.11 1582.31 1478.24C1582.31 1465.37 1591.54 1456.01 1604.28 1456.01C1617.02 1456.01 1626.25 1465.37 1626.25 1478.24ZM1671.36 1457.7L1601.29 1550H1594.53L1664.47 1457.7H1671.36ZM1620.53 1478.24C1620.53 1468.36 1613.9 1461.47 1604.28 1461.47C1594.66 1461.47 1588.03 1468.36 1588.03 1478.24C1588.03 1488.12 1594.79 1495.01 1604.28 1495.01C1613.77 1495.01 1620.53 1488.12 1620.53 1478.24ZM1683.71 1529.46C1683.71 1542.33 1674.48 1551.69 1661.74 1551.69C1649 1551.69 1639.77 1542.33 1639.77 1529.46C1639.77 1516.59 1649 1507.23 1661.74 1507.23C1674.48 1507.23 1683.71 1516.59 1683.71 1529.46ZM1677.99 1529.46C1677.99 1519.58 1671.36 1512.69 1661.74 1512.69C1652.12 1512.69 1645.49 1519.58 1645.49 1529.46C1645.49 1539.34 1652.25 1546.23 1661.74 1546.23C1671.23 1546.23 1677.99 1539.34 1677.99 1529.46ZM1820.2 1503.85C1820.2 1531.8 1802.13 1551.56 1776.52 1551.56C1750.91 1551.56 1732.97 1531.8 1732.97 1503.85C1732.97 1475.9 1751.04 1456.14 1776.52 1456.14C1802.13 1456.14 1820.2 1475.9 1820.2 1503.85ZM1813.83 1503.85C1813.83 1479.28 1798.49 1462.12 1776.52 1462.12C1754.68 1462.12 1739.34 1479.28 1739.34 1503.85C1739.34 1528.42 1754.68 1545.58 1776.52 1545.58C1798.49 1545.58 1813.83 1528.42 1813.83 1503.85ZM1883.22 1508.14H1843.96V1550H1837.72V1457.7H1890.76V1463.42H1843.96V1502.42H1883.22V1508.14ZM1952.54 1508.14H1913.28V1550H1907.04V1457.7H1960.08V1463.42H1913.28V1502.42H1952.54V1508.14Z" fill="black"/>
</svg>