<svg width="1254" height="1818" viewBox="0 0 1254 1818" fill="none" xmlns="http://www.w3.org/2000/svg">
<rect width="1254" height="1818" fill="white"/>
<circle cx="625" cy="625" r="624.5" transform="matrix(1 0 0 -1 2 1817.34)" stroke="black"/>
<path d="M306.75 831.584C306.75 799.584 333.25 777.334 371.75 777.334C408.75 777.334 432.25 797.834 433.25 830.834H401.25C400.5 815.084 389.25 805.834 371.25 805.834C351.5 805.834 338.75 815.334 338.75 830.584C338.75 843.584 345.75 850.834 361 854.334L389.75 860.584C421 867.334 436.25 883.334 436.25 910.584C436.25 944.584 409.75 966.584 369.5 966.584C330.5 966.584 305 945.834 304.25 913.084H336.25C336.5 928.584 349 937.834 369.5 937.834C390.75 937.834 404.25 928.584 404.25 913.334C404.25 901.084 398 893.834 383 890.584L354 884.084C323 877.334 306.75 859.584 306.75 831.584ZM480.949 963.334H447.699L513.699 780.584H546.449L612.449 963.334H578.699L563.949 921.084H495.699L480.949 963.334ZM525.949 835.084L505.199 894.084H554.699L533.699 835.084C532.199 830.334 530.449 824.834 529.949 821.084C529.199 824.584 527.699 830.084 525.949 835.084ZM667.365 780.584V933.834H743.865V963.334H635.365V780.584H667.365ZM883.387 963.334H769.887V780.584H883.387V810.084H801.887V857.084H874.887V885.334H801.887V933.834H883.387V963.334ZM936.58 875.334C925.58 875.334 916.33 866.334 916.33 855.584C916.33 844.584 925.58 835.584 936.58 835.584C947.58 835.584 956.83 844.584 956.83 855.584C956.83 866.334 947.58 875.334 936.58 875.334ZM936.58 966.334C925.58 966.334 916.33 957.334 916.33 946.584C916.33 935.584 925.58 926.584 936.58 926.584C947.58 926.584 956.83 935.584 956.83 946.584C956.83 957.334 947.58 966.334 936.58 966.334Z" fill="black"/>
<path d="M37.875 1152.16L37.875 1070.08H46.275L46.275 1151.98C46.275 1175.43 59.05 1188.21 82.5 1188.21C105.425 1188.21 118.2 1175.26 118.2 1151.98L118.2 1070.08H126.6L126.6 1152.16C126.6 1179.81 110.15 1196.43 82.5 1196.43C54.5 1196.43 37.875 1179.98 37.875 1152.16ZM154.733 1229.86V1110.33H161.208L162.433 1129.23C168.733 1114.88 180.808 1108.23 195.333 1108.23C220.008 1108.23 234.008 1127.48 234.008 1152.33C234.008 1177.18 220.008 1196.43 195.333 1196.43C180.458 1196.43 168.908 1189.78 162.783 1176.13V1229.86H154.733ZM162.958 1152.33C162.958 1173.51 174.333 1189.08 194.458 1189.08C214.408 1189.08 225.783 1173.51 225.783 1152.33C225.783 1130.98 214.408 1115.58 194.458 1115.58C174.333 1115.58 162.958 1130.98 162.958 1152.33ZM318.639 1194.33H310.589V1117.33H293.614V1110.33H310.589V1083.73H318.639V1110.33H335.614V1117.33H318.639V1194.33ZM345.308 1152.33C345.308 1126.96 362.983 1108.23 386.958 1108.23C410.933 1108.23 428.608 1126.96 428.608 1152.33C428.608 1177.71 410.933 1196.43 386.958 1196.43C362.983 1196.43 345.308 1177.71 345.308 1152.33ZM353.533 1152.33C353.533 1173.86 367.358 1189.08 386.958 1189.08C406.558 1189.08 420.383 1173.86 420.383 1152.33C420.383 1130.81 406.558 1115.58 386.958 1115.58C367.358 1115.58 353.533 1130.81 353.533 1152.33ZM494.222 1161.08C494.222 1145.68 503.847 1133.43 519.072 1128.36C505.947 1123.11 498.597 1112.61 498.597 1099.48C498.597 1080.76 514.172 1067.98 537.097 1067.98C559.847 1067.98 575.247 1080.76 575.247 1099.48C575.247 1112.96 567.897 1123.46 554.947 1128.36C569.997 1132.73 579.797 1145.33 579.797 1161.26C579.797 1181.91 562.297 1196.43 537.097 1196.43C511.722 1196.43 494.222 1181.91 494.222 1161.08ZM506.822 1099.13C506.822 1114.36 518.897 1124.51 537.097 1124.51C555.297 1124.51 567.022 1114.71 567.022 1099.48C567.022 1084.96 555.297 1075.68 537.097 1075.68C518.897 1075.68 506.822 1084.96 506.822 1099.13ZM502.447 1160.21C502.447 1177.18 516.622 1188.73 537.272 1188.73C557.572 1188.73 571.572 1177.18 571.572 1160.38C571.572 1143.58 557.922 1132.56 536.922 1132.56C516.097 1132.56 502.447 1143.58 502.447 1160.21ZM599.857 1132.21C599.857 1093.53 618.057 1067.81 648.332 1067.81C678.607 1067.81 696.807 1093.53 696.807 1132.21C696.807 1170.88 678.607 1196.61 648.332 1196.61C618.057 1196.61 599.857 1170.88 599.857 1132.21ZM608.082 1132.21C608.082 1165.98 622.782 1188.73 648.332 1188.73C673.882 1188.73 688.582 1165.98 688.582 1132.21C688.582 1098.43 673.882 1075.68 648.332 1075.68C622.782 1075.68 608.082 1098.43 608.082 1132.21ZM775.877 1097.73C775.877 1115.06 763.452 1127.66 746.302 1127.66C729.152 1127.66 716.727 1115.06 716.727 1097.73C716.727 1080.41 729.152 1067.81 746.302 1067.81C763.452 1067.81 775.877 1080.41 775.877 1097.73ZM836.602 1070.08L742.277 1194.33H733.177L827.327 1070.08H836.602ZM768.177 1097.73C768.177 1084.43 759.252 1075.16 746.302 1075.16C733.352 1075.16 724.427 1084.43 724.427 1097.73C724.427 1111.03 733.527 1120.31 746.302 1120.31C759.077 1120.31 768.177 1111.03 768.177 1097.73ZM853.227 1166.68C853.227 1184.01 840.802 1196.61 823.652 1196.61C806.502 1196.61 794.077 1184.01 794.077 1166.68C794.077 1149.36 806.502 1136.76 823.652 1136.76C840.802 1136.76 853.227 1149.36 853.227 1166.68ZM845.527 1166.68C845.527 1153.38 836.602 1144.11 823.652 1144.11C810.702 1144.11 801.777 1153.38 801.777 1166.68C801.777 1179.98 810.877 1189.26 823.652 1189.26C836.427 1189.26 845.527 1179.98 845.527 1166.68ZM1036.97 1132.21C1036.97 1169.83 1012.65 1196.43 978.172 1196.43C943.697 1196.43 919.547 1169.83 919.547 1132.21C919.547 1094.58 943.872 1067.98 978.172 1067.98C1012.65 1067.98 1036.97 1094.58 1036.97 1132.21ZM1028.4 1132.21C1028.4 1099.13 1007.75 1076.03 978.172 1076.03C948.772 1076.03 928.122 1099.13 928.122 1132.21C928.122 1165.28 948.772 1188.38 978.172 1188.38C1007.75 1188.38 1028.4 1165.28 1028.4 1132.21ZM1121.8 1137.98H1068.95V1194.33H1060.55V1070.08H1131.95V1077.78H1068.95V1130.28H1121.8V1137.98ZM1215.11 1137.98H1162.26V1194.33H1153.86V1070.08H1225.26V1077.78H1162.26V1130.28H1215.11V1137.98Z" fill="black"/>
<path d="M1229.19 651.421V654.334H1186V638.436C1186 630.244 1190.75 625.086 1198.11 625.086C1204.43 625.086 1208.93 628.606 1210.15 634.37L1229.19 624.722V627.999L1210.52 637.404V651.421H1229.19ZM1188.68 651.421H1207.84V638.314C1207.84 631.822 1204.19 628.06 1198.23 628.06C1192.08 628.06 1188.68 632.125 1188.68 638.436V651.421Z" fill="black"/>
<path d="M1229.19 590.926V616.29H1186V590.987H1188.68V613.378H1206.2V592.989H1208.87V613.378H1226.51V590.926H1229.19Z" fill="black"/>
<path d="M1229.19 570.091L1186 586.657V583.562L1218.3 571.123C1220.61 570.212 1222.87 569.363 1225.66 568.453C1222.8 567.543 1219.64 566.39 1218.24 565.844L1186 553.465V550.491L1229.19 566.996V570.091Z" fill="black"/>
<path d="M1229.19 519.046V544.411H1186V519.107H1188.68V541.498H1206.2V521.11H1208.87V541.498H1226.51V519.046H1229.19Z" fill="black"/>
<path d="M1188.68 514.777H1186V484.801H1188.68V498.333H1229.19V501.245H1188.68V514.777Z" fill="black"/>
<path d="M1186 475.84H1229.19V478.753H1186V475.84Z" fill="black"/>
<path d="M1229.19 462.033V464.946H1186V449.048C1186 440.856 1190.75 435.698 1198.11 435.698C1204.43 435.698 1208.93 439.218 1210.15 444.982L1229.19 435.334V438.611L1210.52 448.016V462.033H1229.19ZM1188.68 462.033H1207.84V448.926C1207.84 442.434 1204.19 438.671 1198.23 438.671C1192.08 438.671 1188.68 442.737 1188.68 449.048V462.033Z" fill="black"/>
<mask id="path-5-inside-1_0_1" fill="white">
<path d="M1253.72 423.678L1081.91 243.841L851.087 0.927734L850.644 0.460938H305.931L1.00195 0.000976562L0 0V1817.34H1254V423.968L1253.72 423.678ZM4 1814.06V3.46094H849.357L1156.2 326.375L1250 425.129V1814.06H4Z"/>
</mask>
<path d="M1253.72 423.678L1252.28 425.06L1252.28 425.059L1253.72 423.678ZM1081.91 243.841L1080.47 245.222L1080.46 245.219L1081.91 243.841ZM851.087 0.927734L849.637 2.30541L849.637 2.30507L851.087 0.927734ZM850.644 0.460938V-1.53906H851.502L852.094 -0.916402L850.644 0.460938ZM305.931 0.460938L305.931 2.46094L305.928 2.46094L305.931 0.460938ZM1.00195 0.000976562L1.0039 -1.99902L1.00497 -1.99902L1.00195 0.000976562ZM0 0H-2V-2.00195L0.00194932 -2L0 0ZM0 1817.34V1819.34H-2V1817.34H0ZM1254 1817.34H1256V1819.34H1254V1817.34ZM1254 423.968L1255.45 422.586L1256 423.165V423.968H1254ZM4 1814.06V1816.06H2V1814.06H4ZM4 3.46094H2V1.46094H4V3.46094ZM849.357 3.46094V1.46094H850.216L850.807 2.08326L849.357 3.46094ZM1156.2 326.375L1157.65 324.997L1157.65 324.998L1156.2 326.375ZM1250 425.129L1251.45 423.752L1252 424.33V425.129H1250ZM1250 1814.06H1252V1816.06H1250V1814.06ZM1253.72 423.678L1252.28 425.059L1080.47 245.222L1081.91 243.841L1083.36 242.459L1255.17 422.296L1253.72 423.678ZM1081.91 243.841L1080.46 245.219L849.637 2.30541L851.087 0.927734L852.537 -0.449946L1083.36 242.463L1081.91 243.841ZM851.087 0.927734L849.637 2.30507L849.193 1.83828L850.644 0.460938L852.094 -0.916402L852.537 -0.449605L851.087 0.927734ZM850.644 0.460938V2.46094H305.931V0.460938V-1.53906H850.644V0.460938ZM305.931 0.460938L305.928 2.46094L0.998936 2.00097L1.00195 0.000976562L1.00497 -1.99902L305.934 -1.53906L305.931 0.460938ZM1.00195 0.000976562L1 2.00098L-0.00194932 2L0 0L0.00194932 -2L1.0039 -1.99902L1.00195 0.000976562ZM0 0H2V1817.34H0H-2V0H0ZM0 1817.34V1815.34H1254V1817.34V1819.34H0V1817.34ZM1254 1817.34H1252V423.968H1254H1256V1817.34H1254ZM1254 423.968L1252.55 425.35L1252.28 425.06L1253.72 423.678L1255.17 422.296L1255.45 422.586L1254 423.968ZM4 1814.06H2V3.46094H4H6V1814.06H4ZM4 3.46094V1.46094H849.357V3.46094V5.46094H4V3.46094ZM849.357 3.46094L850.807 2.08326L1157.65 324.997L1156.2 326.375L1154.75 327.753L847.908 4.83861L849.357 3.46094ZM1156.2 326.375L1157.65 324.998L1251.45 423.752L1250 425.129L1248.55 426.506L1154.75 327.752L1156.2 326.375ZM1250 425.129H1252V1814.06H1250H1248V425.129H1250ZM1250 1814.06V1816.06H4V1814.06V1812.06H1250V1814.06Z" fill="black" mask="url(#path-5-inside-1_0_1)"/>
</svg>
