<svg width="1254" height="1635" viewBox="0 0 1254 1635" fill="none" xmlns="http://www.w3.org/2000/svg">
<rect width="1254" height="1635" fill="white"/>
<circle cx="625" cy="625" r="624.5" transform="matrix(1 0 0 -1 2 1634.14)" stroke="black"/>
<path d="M306.75 648.388C306.75 616.388 333.25 594.138 371.75 594.138C408.75 594.138 432.25 614.638 433.25 647.638H401.25C400.5 631.888 389.25 622.638 371.25 622.638C351.5 622.638 338.75 632.138 338.75 647.388C338.75 660.388 345.75 667.638 361 671.138L389.75 677.388C421 684.138 436.25 700.138 436.25 727.388C436.25 761.388 409.75 783.388 369.5 783.388C330.5 783.388 305 762.638 304.25 729.888H336.25C336.5 745.388 349 754.638 369.5 754.638C390.75 754.638 404.25 745.388 404.25 730.138C404.25 717.888 398 710.638 383 707.388L354 700.888C323 694.138 306.75 676.388 306.75 648.388ZM480.949 780.138H447.699L513.699 597.388H546.449L612.449 780.138H578.699L563.949 737.888H495.699L480.949 780.138ZM525.949 651.888L505.199 710.888H554.699L533.699 651.888C532.199 647.138 530.449 641.638 529.949 637.888C529.199 641.388 527.699 646.888 525.949 651.888ZM667.365 597.388V750.638H743.865V780.138H635.365V597.388H667.365ZM883.387 780.138H769.887V597.388H883.387V626.888H801.887V673.888H874.887V702.138H801.887V750.638H883.387V780.138ZM936.58 692.138C925.58 692.138 916.33 683.138 916.33 672.388C916.33 661.388 925.58 652.388 936.58 652.388C947.58 652.388 956.83 661.388 956.83 672.388C956.83 683.138 947.58 692.138 936.58 692.138ZM936.58 783.138C925.58 783.138 916.33 774.138 916.33 763.388C916.33 752.388 925.58 743.388 936.58 743.388C947.58 743.388 956.83 752.388 956.83 763.388C956.83 774.138 947.58 783.138 936.58 783.138Z" fill="black"/>
<path d="M37.875 968.963L37.875 886.888H46.275L46.275 968.788C46.275 992.238 59.05 1005.01 82.5 1005.01C105.425 1005.01 118.2 992.063 118.2 968.788L118.2 886.888H126.6L126.6 968.963C126.6 996.613 110.15 1013.24 82.5 1013.24C54.5 1013.24 37.875 996.788 37.875 968.963ZM154.733 1046.66V927.138H161.208L162.433 946.038C168.733 931.688 180.808 925.038 195.333 925.038C220.008 925.038 234.008 944.288 234.008 969.138C234.008 993.988 220.008 1013.24 195.333 1013.24C180.458 1013.24 168.908 1006.59 162.783 992.938V1046.66H154.733ZM162.958 969.138C162.958 990.313 174.333 1005.89 194.458 1005.89C214.408 1005.89 225.783 990.313 225.783 969.138C225.783 947.788 214.408 932.388 194.458 932.388C174.333 932.388 162.958 947.788 162.958 969.138ZM318.639 1011.14H310.589V934.138H293.614V927.138H310.589V900.538H318.639V927.138H335.614V934.138H318.639V1011.14ZM345.308 969.138C345.308 943.763 362.983 925.038 386.958 925.038C410.933 925.038 428.608 943.763 428.608 969.138C428.608 994.513 410.933 1013.24 386.958 1013.24C362.983 1013.24 345.308 994.513 345.308 969.138ZM353.533 969.138C353.533 990.663 367.358 1005.89 386.958 1005.89C406.558 1005.89 420.383 990.663 420.383 969.138C420.383 947.613 406.558 932.388 386.958 932.388C367.358 932.388 353.533 947.613 353.533 969.138ZM494.222 977.888C494.222 962.488 503.847 950.238 519.072 945.163C505.947 939.913 498.597 929.413 498.597 916.288C498.597 897.563 514.172 884.788 537.097 884.788C559.847 884.788 575.247 897.563 575.247 916.288C575.247 929.763 567.897 940.263 554.947 945.163C569.997 949.538 579.797 962.138 579.797 978.063C579.797 998.713 562.297 1013.24 537.097 1013.24C511.722 1013.24 494.222 998.713 494.222 977.888ZM506.822 915.938C506.822 931.163 518.897 941.313 537.097 941.313C555.297 941.313 567.022 931.513 567.022 916.288C567.022 901.763 555.297 892.488 537.097 892.488C518.897 892.488 506.822 901.763 506.822 915.938ZM502.447 977.013C502.447 993.988 516.622 1005.54 537.272 1005.54C557.572 1005.54 571.572 993.988 571.572 977.188C571.572 960.388 557.922 949.363 536.922 949.363C516.097 949.363 502.447 960.388 502.447 977.013ZM599.857 949.013C599.857 910.338 618.057 884.613 648.332 884.613C678.607 884.613 696.807 910.338 696.807 949.013C696.807 987.688 678.607 1013.41 648.332 1013.41C618.057 1013.41 599.857 987.688 599.857 949.013ZM608.082 949.013C608.082 982.788 622.782 1005.54 648.332 1005.54C673.882 1005.54 688.582 982.788 688.582 949.013C688.582 915.238 673.882 892.488 648.332 892.488C622.782 892.488 608.082 915.238 608.082 949.013ZM775.877 914.538C775.877 931.863 763.452 944.463 746.302 944.463C729.152 944.463 716.727 931.863 716.727 914.538C716.727 897.213 729.152 884.613 746.302 884.613C763.452 884.613 775.877 897.213 775.877 914.538ZM836.602 886.888L742.277 1011.14H733.177L827.327 886.888H836.602ZM768.177 914.538C768.177 901.238 759.252 891.963 746.302 891.963C733.352 891.963 724.427 901.238 724.427 914.538C724.427 927.838 733.527 937.113 746.302 937.113C759.077 937.113 768.177 927.838 768.177 914.538ZM853.227 983.488C853.227 1000.81 840.802 1013.41 823.652 1013.41C806.502 1013.41 794.077 1000.81 794.077 983.488C794.077 966.163 806.502 953.563 823.652 953.563C840.802 953.563 853.227 966.163 853.227 983.488ZM845.527 983.488C845.527 970.188 836.602 960.913 823.652 960.913C810.702 960.913 801.777 970.188 801.777 983.488C801.777 996.788 810.877 1006.06 823.652 1006.06C836.427 1006.06 845.527 996.788 845.527 983.488ZM1036.97 949.013C1036.97 986.638 1012.65 1013.24 978.172 1013.24C943.697 1013.24 919.547 986.638 919.547 949.013C919.547 911.388 943.872 884.788 978.172 884.788C1012.65 884.788 1036.97 911.388 1036.97 949.013ZM1028.4 949.013C1028.4 915.938 1007.75 892.838 978.172 892.838C948.772 892.838 928.122 915.938 928.122 949.013C928.122 982.088 948.772 1005.19 978.172 1005.19C1007.75 1005.19 1028.4 982.088 1028.4 949.013ZM1121.8 954.788H1068.95V1011.14H1060.55V886.888H1131.95V894.588H1068.95V947.088H1121.8V954.788ZM1215.11 954.788L1162.26 954.788V1011.14H1153.86V886.888H1225.26V894.588H1162.26V947.088H1215.11V954.788Z" fill="black"/>
<path d="M1234.19 1616.23V1619.14H1191V1603.24C1191 1595.05 1195.75 1589.89 1203.11 1589.89C1209.43 1589.89 1213.93 1593.41 1215.15 1599.17L1234.19 1589.53V1592.8L1215.52 1602.21V1616.23H1234.19ZM1193.68 1616.23H1212.84V1603.12C1212.84 1596.63 1209.19 1592.86 1203.23 1592.86C1197.08 1592.86 1193.68 1596.93 1193.68 1603.24V1616.23Z" fill="black"/>
<path d="M1234.19 1555.73V1581.09H1191V1555.79H1193.68V1578.18H1211.2V1557.79H1213.87V1578.18H1231.51V1555.73H1234.19Z" fill="black"/>
<path d="M1234.19 1534.89L1191 1551.46V1548.37L1223.3 1535.93C1225.61 1535.02 1227.87 1534.17 1230.66 1533.26C1227.8 1532.35 1224.64 1531.19 1223.24 1530.65L1191 1518.27V1515.3L1234.19 1531.8V1534.89Z" fill="black"/>
<path d="M1234.19 1483.85V1509.21H1191V1483.91H1193.68V1506.3H1211.2V1485.91H1213.87V1506.3H1231.51V1483.85H1234.19Z" fill="black"/>
<path d="M1193.68 1479.58H1191V1449.6H1193.68V1463.14H1234.19V1466.05H1193.68V1479.58Z" fill="black"/>
<path d="M1191 1440.64H1234.19V1443.56H1191V1440.64Z" fill="black"/>
<path d="M1234.19 1426.84V1429.75H1191V1413.85C1191 1405.66 1195.75 1400.5 1203.11 1400.5C1209.43 1400.5 1213.93 1404.02 1215.15 1409.79L1234.19 1400.14V1403.41L1215.52 1412.82V1426.84H1234.19ZM1193.68 1426.84H1212.84V1413.73C1212.84 1407.24 1209.19 1403.48 1203.23 1403.48C1197.08 1403.48 1193.68 1407.54 1193.68 1413.85V1426.84Z" fill="black"/>
<mask id="path-5-inside-1_0_1" fill="white">
<path d="M1253.69 380.916L1089.08 226.006L851.031 0.774414L850.597 0.364258H269.027L1.00098 0.000976562L0 0V1634.14H1254V381.212L1253.69 380.916ZM4 1630.99V3.36426H849.403L1243.61 376.347L1250 382.399V1630.99H4Z"/>
</mask>
<path d="M1253.69 380.916L1252.31 382.373L1252.31 382.372L1253.69 380.916ZM1089.08 226.006L1087.71 227.462L1087.7 227.459L1089.08 226.006ZM851.031 0.774414L852.404 -0.680066L852.406 -0.678364L851.031 0.774414ZM850.597 0.364258V-1.63574H851.391L851.969 -1.09022L850.597 0.364258ZM269.027 0.364258L269.027 2.36426L269.025 2.36426L269.027 0.364258ZM1.00098 0.000976562L1.00293 -1.99902L1.00369 -1.99902L1.00098 0.000976562ZM0 0H-2V-2.00195L0.00195122 -2L0 0ZM0 1634.14V1636.14H-2V1634.14H0ZM1254 1634.14H1256V1636.14H1254V1634.14ZM1254 381.212L1255.37 379.755L1256 380.348V381.212H1254ZM4 1630.99V1632.99H2V1630.99H4ZM4 3.36426H2V1.36426H4V3.36426ZM849.403 3.36426V1.36426H850.2L850.778 1.91148L849.403 3.36426ZM1243.61 376.347L1244.98 374.894L1244.98 374.894L1243.61 376.347ZM1250 382.399L1251.37 380.947L1252 381.539V382.399H1250ZM1250 1630.99H1252V1632.99H1250V1630.99ZM1253.69 380.916L1252.31 382.372L1087.71 227.462L1089.08 226.006L1090.45 224.549L1255.06 379.46L1253.69 380.916ZM1089.08 226.006L1087.7 227.459L849.657 2.22719L851.031 0.774414L852.406 -0.678364L1090.45 224.553L1089.08 226.006ZM851.031 0.774414L849.658 2.22889L849.224 1.81874L850.597 0.364258L851.969 -1.09022L852.404 -0.680065L851.031 0.774414ZM850.597 0.364258V2.36426H269.027V0.364258V-1.63574H850.597V0.364258ZM269.027 0.364258L269.025 2.36426L0.998266 2.00097L1.00098 0.000976562L1.00369 -1.99902L269.03 -1.63574L269.027 0.364258ZM1.00098 0.000976562L0.999025 2.00098L-0.00195122 2L0 0L0.00195122 -2L1.00293 -1.99902L1.00098 0.000976562ZM0 0H2V1634.14H0H-2V0H0ZM0 1634.14V1632.14H1254V1634.14V1636.14H0V1634.14ZM1254 1634.14H1252V381.212H1254H1256V1634.14H1254ZM1254 381.212L1252.63 382.668L1252.31 382.373L1253.69 380.916L1255.06 379.459L1255.37 379.755L1254 381.212ZM4 1630.99H2V3.36426H4H6V1630.99H4ZM4 3.36426V1.36426H849.403V3.36426V5.36426H4V3.36426ZM849.403 3.36426L850.778 1.91148L1244.98 374.894L1243.61 376.347L1242.23 377.799L848.029 4.81703L849.403 3.36426ZM1243.61 376.347L1244.98 374.894L1251.37 380.947L1250 382.399L1248.63 383.852L1242.23 377.799L1243.61 376.347ZM1250 382.399H1252V1630.99H1250H1248V382.399H1250ZM1250 1630.99V1632.99H4V1630.99V1628.99H1250V1630.99Z" fill="black" mask="url(#path-5-inside-1_0_1)"/>
</svg>
