<svg width="1254" height="2464" viewBox="0 0 1254 2464" fill="none" xmlns="http://www.w3.org/2000/svg">
<rect width="1254" height="2464" fill="white"/>
<circle cx="625" cy="625" r="624.5" transform="matrix(1 0 0 -1 2 2463.93)" stroke="black"/>
<path d="M306.75 1478.17C306.75 1446.17 333.25 1423.92 371.75 1423.92C408.75 1423.92 432.25 1444.42 433.25 1477.42H401.25C400.5 1461.67 389.25 1452.42 371.25 1452.42C351.5 1452.42 338.75 1461.92 338.75 1477.17C338.75 1490.17 345.75 1497.42 361 1500.92L389.75 1507.17C421 1513.92 436.25 1529.92 436.25 1557.17C436.25 1591.17 409.75 1613.17 369.5 1613.17C330.5 1613.17 305 1592.42 304.25 1559.67H336.25C336.5 1575.17 349 1584.42 369.5 1584.42C390.75 1584.42 404.25 1575.17 404.25 1559.92C404.25 1547.67 398 1540.42 383 1537.17L354 1530.67C323 1523.92 306.75 1506.17 306.75 1478.17ZM480.949 1609.92H447.699L513.699 1427.17H546.449L612.449 1609.92H578.699L563.949 1567.67H495.699L480.949 1609.92ZM525.949 1481.67L505.199 1540.67H554.699L533.699 1481.67C532.199 1476.92 530.449 1471.42 529.949 1467.67C529.199 1471.17 527.699 1476.67 525.949 1481.67ZM667.365 1427.17V1580.42H743.865V1609.92H635.365V1427.17H667.365ZM883.387 1609.92H769.887V1427.17H883.387V1456.67H801.887V1503.67H874.887V1531.92H801.887V1580.42H883.387V1609.92ZM936.58 1521.92C925.58 1521.92 916.33 1512.92 916.33 1502.17C916.33 1491.17 925.58 1482.17 936.58 1482.17C947.58 1482.17 956.83 1491.17 956.83 1502.17C956.83 1512.92 947.58 1521.92 936.58 1521.92ZM936.58 1612.92C925.58 1612.92 916.33 1603.92 916.33 1593.17C916.33 1582.17 925.58 1573.17 936.58 1573.17C947.58 1573.17 956.83 1582.17 956.83 1593.17C956.83 1603.92 947.58 1612.92 936.58 1612.92Z" fill="black"/>
<path d="M37.875 1798.75L37.875 1716.67H46.275L46.275 1798.57C46.275 1822.02 59.05 1834.8 82.5 1834.8C105.425 1834.8 118.2 1821.85 118.2 1798.57L118.2 1716.67H126.6L126.6 1798.75C126.6 1826.4 110.15 1843.02 82.5 1843.02C54.5 1843.02 37.875 1826.57 37.875 1798.75ZM154.733 1876.45V1756.92H161.208L162.433 1775.82C168.733 1761.47 180.808 1754.82 195.333 1754.82C220.008 1754.82 234.008 1774.07 234.008 1798.92C234.008 1823.77 220.008 1843.02 195.333 1843.02C180.458 1843.02 168.908 1836.37 162.783 1822.72V1876.45H154.733ZM162.958 1798.92C162.958 1820.1 174.333 1835.67 194.458 1835.67C214.408 1835.67 225.783 1820.1 225.783 1798.92C225.783 1777.57 214.408 1762.17 194.458 1762.17C174.333 1762.17 162.958 1777.57 162.958 1798.92ZM318.639 1840.92H310.589V1763.92H293.614V1756.92H310.589V1730.32H318.639V1756.92H335.614V1763.92H318.639V1840.92ZM345.308 1798.92C345.308 1773.55 362.983 1754.82 386.958 1754.82C410.933 1754.82 428.608 1773.55 428.608 1798.92C428.608 1824.3 410.933 1843.02 386.958 1843.02C362.983 1843.02 345.308 1824.3 345.308 1798.92ZM353.533 1798.92C353.533 1820.45 367.358 1835.67 386.958 1835.67C406.558 1835.67 420.383 1820.45 420.383 1798.92C420.383 1777.4 406.558 1762.17 386.958 1762.17C367.358 1762.17 353.533 1777.4 353.533 1798.92ZM494.222 1807.67C494.222 1792.27 503.847 1780.02 519.072 1774.95C505.947 1769.7 498.597 1759.2 498.597 1746.07C498.597 1727.35 514.172 1714.57 537.097 1714.57C559.847 1714.57 575.247 1727.35 575.247 1746.07C575.247 1759.55 567.897 1770.05 554.947 1774.95C569.997 1779.32 579.797 1791.92 579.797 1807.85C579.797 1828.5 562.297 1843.02 537.097 1843.02C511.722 1843.02 494.222 1828.5 494.222 1807.67ZM506.822 1745.72C506.822 1760.95 518.897 1771.1 537.097 1771.1C555.297 1771.1 567.022 1761.3 567.022 1746.07C567.022 1731.55 555.297 1722.27 537.097 1722.27C518.897 1722.27 506.822 1731.55 506.822 1745.72ZM502.447 1806.8C502.447 1823.77 516.622 1835.32 537.272 1835.32C557.572 1835.32 571.572 1823.77 571.572 1806.97C571.572 1790.17 557.922 1779.15 536.922 1779.15C516.097 1779.15 502.447 1790.17 502.447 1806.8ZM599.857 1778.8C599.857 1740.12 618.057 1714.4 648.332 1714.4C678.607 1714.4 696.807 1740.12 696.807 1778.8C696.807 1817.47 678.607 1843.2 648.332 1843.2C618.057 1843.2 599.857 1817.47 599.857 1778.8ZM608.082 1778.8C608.082 1812.57 622.782 1835.32 648.332 1835.32C673.882 1835.32 688.582 1812.57 688.582 1778.8C688.582 1745.02 673.882 1722.27 648.332 1722.27C622.782 1722.27 608.082 1745.02 608.082 1778.8ZM775.877 1744.32C775.877 1761.65 763.452 1774.25 746.302 1774.25C729.152 1774.25 716.727 1761.65 716.727 1744.32C716.727 1727 729.152 1714.4 746.302 1714.4C763.452 1714.4 775.877 1727 775.877 1744.32ZM836.602 1716.67L742.277 1840.92H733.177L827.327 1716.67H836.602ZM768.177 1744.32C768.177 1731.02 759.252 1721.75 746.302 1721.75C733.352 1721.75 724.427 1731.02 724.427 1744.32C724.427 1757.62 733.527 1766.9 746.302 1766.9C759.077 1766.9 768.177 1757.62 768.177 1744.32ZM853.227 1813.27C853.227 1830.6 840.802 1843.2 823.652 1843.2C806.502 1843.2 794.077 1830.6 794.077 1813.27C794.077 1795.95 806.502 1783.35 823.652 1783.35C840.802 1783.35 853.227 1795.95 853.227 1813.27ZM845.527 1813.27C845.527 1799.97 836.602 1790.7 823.652 1790.7C810.702 1790.7 801.777 1799.97 801.777 1813.27C801.777 1826.57 810.877 1835.85 823.652 1835.85C836.427 1835.85 845.527 1826.57 845.527 1813.27ZM1036.97 1778.8C1036.97 1816.42 1012.65 1843.02 978.172 1843.02C943.697 1843.02 919.547 1816.42 919.547 1778.8C919.547 1741.17 943.872 1714.57 978.172 1714.57C1012.65 1714.57 1036.97 1741.17 1036.97 1778.8ZM1028.4 1778.8C1028.4 1745.72 1007.75 1722.62 978.172 1722.62C948.772 1722.62 928.122 1745.72 928.122 1778.8C928.122 1811.87 948.772 1834.97 978.172 1834.97C1007.75 1834.97 1028.4 1811.87 1028.4 1778.8ZM1121.8 1784.57H1068.95V1840.92H1060.55V1716.67H1131.95V1724.37H1068.95V1776.87H1121.8V1784.57ZM1215.11 1784.57H1162.26V1840.92H1153.86V1716.67H1225.26V1724.37H1162.26V1776.87H1215.11V1784.57Z" fill="black"/>
<path d="M1219.17 888.933V892.923H1160V871.145C1160 859.923 1166.5 852.857 1176.58 852.857C1185.25 852.857 1191.42 857.679 1193.08 865.575L1219.17 852.359V856.847L1193.58 869.731V888.933H1219.17ZM1163.67 888.933H1189.92V870.978C1189.92 862.084 1184.92 856.93 1176.75 856.93C1168.33 856.93 1163.67 862.5 1163.67 871.145V888.933Z" fill="black"/>
<path d="M1219.17 806.063V840.808H1160V806.146H1163.67V836.818H1187.67V808.889H1191.33V836.818H1215.5V806.063H1219.17Z" fill="black"/>
<path d="M1219.17 777.522L1160 800.214V795.975L1204.25 778.935C1207.42 777.688 1210.5 776.524 1214.33 775.277C1210.42 774.03 1206.08 772.451 1204.17 771.703L1160 754.746V750.673L1219.17 773.282V777.522Z" fill="black"/>
<path d="M1219.17 707.597V742.343H1160V707.68H1163.67V738.353H1187.67V710.424H1191.33V738.353H1215.5V707.597H1219.17Z" fill="black"/>
<path d="M1163.67 701.749H1160V660.686H1163.67V679.222H1219.17V683.212H1163.67V701.749Z" fill="black"/>
<path d="M1160 648.411H1219.17V652.401H1160V648.411Z" fill="black"/>
<path d="M1219.17 629.497V633.487H1160V611.709C1160 600.487 1166.5 593.422 1176.58 593.422C1185.25 593.422 1191.42 598.243 1193.08 606.139L1219.17 592.923V597.412L1193.58 610.296V629.497H1219.17ZM1163.67 629.497H1189.92V611.542C1189.92 602.648 1184.92 597.495 1176.75 597.495C1168.33 597.495 1163.67 603.064 1163.67 611.709V629.497Z" fill="black"/>
<mask id="path-5-inside-1_0_1" fill="white">
<path d="M1253.82 574.589L1067.36 309.903L851.229 1.44238L850.78 0.802734H392.66L1.00195 0.00195312L0 0V2463.93H1254V574.849L1253.82 574.589ZM4 2460.19V3.80273H849.22L976.836 185.938L1250 575.971V2460.19H4Z"/>
</mask>
<path d="M1253.82 574.589L1255.45 573.437L1255.45 573.439L1253.82 574.589ZM1067.36 309.903L1065.72 311.055L1065.72 311.051L1067.36 309.903ZM851.229 1.44238L852.866 0.294619L852.866 0.29472L851.229 1.44238ZM850.78 0.802734V-1.19727H851.821L852.418 -0.345029L850.78 0.802734ZM392.66 0.802734L392.66 2.80274L392.656 2.80273L392.66 0.802734ZM1.00195 0.00195312L1.00585 -1.99804L1.00604 -1.99804L1.00195 0.00195312ZM0 0H-2V-2.0039L0.00389863 -2L0 0ZM0 2463.93V2465.93H-2V2463.93H0ZM1254 2463.93H1256V2465.93H1254V2463.93ZM1254 574.849L1255.64 573.698L1256 574.216V574.849H1254ZM4 2460.19V2462.19H2V2460.19H4ZM4 3.80273H2V1.80273H4V3.80273ZM849.22 3.80273V1.80273H850.26L850.858 2.65507L849.22 3.80273ZM976.836 185.938L978.474 184.79L978.474 184.79L976.836 185.938ZM1250 575.971L1251.64 574.823L1252 575.34V575.971H1250ZM1250 2460.19H1252V2462.19H1250V2460.19ZM1253.82 574.589L1252.18 575.741L1065.72 311.055L1067.36 309.903L1068.99 308.752L1255.45 573.437L1253.82 574.589ZM1067.36 309.903L1065.72 311.051L849.591 2.59005L851.229 1.44238L852.866 0.29472L1069 308.756L1067.36 309.903ZM851.229 1.44238L849.591 2.59015L849.142 1.9505L850.78 0.802734L852.418 -0.345029L852.866 0.294619L851.229 1.44238ZM850.78 0.802734V2.80273H392.66V0.802734V-1.19727H850.78V0.802734ZM392.66 0.802734L392.656 2.80273L0.997864 2.00195L1.00195 0.00195312L1.00604 -1.99804L392.664 -1.19726L392.66 0.802734ZM1.00195 0.00195312L0.998054 2.00195L-0.00389863 2L0 0L0.00389863 -2L1.00585 -1.99804L1.00195 0.00195312ZM0 0H2V2463.93H0H-2V0H0ZM0 2463.93V2461.93H1254V2463.93V2465.93H0V2463.93ZM1254 2463.93H1252V574.849H1254H1256V2463.93H1254ZM1254 574.849L1252.36 575.999L1252.18 575.739L1253.82 574.589L1255.45 573.439L1255.64 573.698L1254 574.849ZM4 2460.19H2V3.80273H4H6V2460.19H4ZM4 3.80273V1.80273H849.22V3.80273V5.80273H4V3.80273ZM849.22 3.80273L850.858 2.65507L978.474 184.79L976.836 185.938L975.198 187.085L847.582 4.95039L849.22 3.80273ZM976.836 185.938L978.474 184.79L1251.64 574.823L1250 575.971L1248.36 577.118L975.198 187.085L976.836 185.938ZM1250 575.971H1252V2460.19H1250H1248V575.971H1250ZM1250 2460.19V2462.19H4V2460.19V2458.19H1250V2460.19Z" fill="black" mask="url(#path-5-inside-1_0_1)"/>
</svg>
