<svg width="2841" height="1256" viewBox="0 0 2841 1256" fill="none" xmlns="http://www.w3.org/2000/svg">
<rect width="2841" height="1256" fill="white"/>
<circle cx="628" cy="628" r="624.5" stroke="black"/>
<path d="M12.75 225.25C12.75 193.25 39.25 171 77.75 171C114.75 171 138.25 191.5 139.25 224.5H107.25C106.5 208.75 95.25 199.5 77.25 199.5C57.5 199.5 44.75 209 44.75 224.25C44.75 237.25 51.75 244.5 67 248L95.75 254.25C127 261 142.25 277 142.25 304.25C142.25 338.25 115.75 360.25 75.5 360.25C36.5 360.25 11 339.5 10.25 306.75H42.25C42.5 322.25 55 331.5 75.5 331.5C96.75 331.5 110.25 322.25 110.25 307C110.25 294.75 104 287.5 89 284.25L60 277.75C29 271 12.75 253.25 12.75 225.25ZM186.949 357H153.699L219.699 174.25H252.449L318.449 357H284.699L269.949 314.75H201.699L186.949 357ZM231.949 228.75L211.199 287.75H260.699L239.699 228.75C238.199 224 236.449 218.5 235.949 214.75C235.199 218.25 233.699 223.75 231.949 228.75ZM373.365 174.25V327.5H449.865V357H341.365V174.25H373.365ZM589.387 357H475.887V174.25H589.387V203.75H507.887V250.75H580.887V279H507.887V327.5H589.387V357ZM642.58 269C631.58 269 622.33 260 622.33 249.25C622.33 238.25 631.58 229.25 642.58 229.25C653.58 229.25 662.83 238.25 662.83 249.25C662.83 260 653.58 269 642.58 269ZM642.58 360C631.58 360 622.33 351 622.33 340.25C622.33 329.25 631.58 320.25 642.58 320.25C653.58 320.25 662.83 329.25 662.83 340.25C662.83 351 653.58 360 642.58 360Z" fill="black"/>
<path d="M24.25 607.75V490.5H36.25V607.5C36.25 641 54.5 659.25 88 659.25C120.75 659.25 139 640.75 139 607.5V490.5H151V607.75C151 647.25 127.5 671 88 671C48 671 24.25 647.5 24.25 607.75ZM191.189 718.75V548H200.439L202.189 575C211.189 554.5 228.439 545 249.189 545C284.439 545 304.439 572.5 304.439 608C304.439 643.5 284.439 671 249.189 671C227.939 671 211.439 661.5 202.689 642V718.75H191.189ZM202.939 608C202.939 638.25 219.189 660.5 247.939 660.5C276.439 660.5 292.689 638.25 292.689 608C292.689 577.5 276.439 555.5 247.939 555.5C219.189 555.5 202.939 577.5 202.939 608ZM425.342 668H413.842V558H389.592V548H413.842V510H425.342V548H449.592V558H425.342V668ZM463.439 608C463.439 571.75 488.689 545 522.939 545C557.189 545 582.439 571.75 582.439 608C582.439 644.25 557.189 671 522.939 671C488.689 671 463.439 644.25 463.439 608ZM475.189 608C475.189 638.75 494.939 660.5 522.939 660.5C550.939 660.5 570.689 638.75 570.689 608C570.689 577.25 550.939 555.5 522.939 555.5C494.939 555.5 475.189 577.25 475.189 608ZM676.174 620.5C676.174 598.5 689.924 581 711.674 573.75C692.924 566.25 682.424 551.25 682.424 532.5C682.424 505.75 704.674 487.5 737.424 487.5C769.924 487.5 791.924 505.75 791.924 532.5C791.924 551.75 781.424 566.75 762.924 573.75C784.424 580 798.424 598 798.424 620.75C798.424 650.25 773.424 671 737.424 671C701.174 671 676.174 650.25 676.174 620.5ZM694.174 532C694.174 553.75 711.424 568.25 737.424 568.25C763.424 568.25 780.174 554.25 780.174 532.5C780.174 511.75 763.424 498.5 737.424 498.5C711.424 498.5 694.174 511.75 694.174 532ZM687.924 619.25C687.924 643.5 708.174 660 737.674 660C766.674 660 786.674 643.5 786.674 619.5C786.674 595.5 767.174 579.75 737.174 579.75C707.424 579.75 687.924 595.5 687.924 619.25ZM827.082 579.25C827.082 524 853.082 487.25 896.332 487.25C939.582 487.25 965.582 524 965.582 579.25C965.582 634.5 939.582 671.25 896.332 671.25C853.082 671.25 827.082 634.5 827.082 579.25ZM838.832 579.25C838.832 627.5 859.832 660 896.332 660C932.832 660 953.832 627.5 953.832 579.25C953.832 531 932.832 498.5 896.332 498.5C859.832 498.5 838.832 531 838.832 579.25ZM1078.54 530C1078.54 554.75 1060.79 572.75 1036.29 572.75C1011.79 572.75 994.039 554.75 994.039 530C994.039 505.25 1011.79 487.25 1036.29 487.25C1060.79 487.25 1078.54 505.25 1078.54 530ZM1165.29 490.5L1030.54 668H1017.54L1152.04 490.5H1165.29ZM1067.54 530C1067.54 511 1054.79 497.75 1036.29 497.75C1017.79 497.75 1005.04 511 1005.04 530C1005.04 549 1018.04 562.25 1036.29 562.25C1054.54 562.25 1067.54 549 1067.54 530ZM1189.04 628.5C1189.04 653.25 1171.29 671.25 1146.79 671.25C1122.29 671.25 1104.54 653.25 1104.54 628.5C1104.54 603.75 1122.29 585.75 1146.79 585.75C1171.29 585.75 1189.04 603.75 1189.04 628.5ZM1178.04 628.5C1178.04 609.5 1165.29 596.25 1146.79 596.25C1128.29 596.25 1115.54 609.5 1115.54 628.5C1115.54 647.5 1128.54 660.75 1146.79 660.75C1165.04 660.75 1178.04 647.5 1178.04 628.5ZM1451.53 579.25C1451.53 633 1416.78 671 1367.53 671C1318.28 671 1283.78 633 1283.78 579.25C1283.78 525.5 1318.53 487.5 1367.53 487.5C1416.78 487.5 1451.53 525.5 1451.53 579.25ZM1439.28 579.25C1439.28 532 1409.78 499 1367.53 499C1325.53 499 1296.03 532 1296.03 579.25C1296.03 626.5 1325.53 659.5 1367.53 659.5C1409.78 659.5 1439.28 626.5 1439.28 579.25ZM1572.72 587.5H1497.22V668H1485.22V490.5H1587.22V501.5H1497.22V576.5H1572.72V587.5ZM1706.02 587.5H1630.52V668H1618.52V490.5H1720.52V501.5H1630.52V576.5H1706.02V587.5Z" fill="black"/>
<path d="M2293.7 1236H2286.5V1129.5H2325.8C2346.05 1129.5 2358.8 1141.2 2358.8 1159.35C2358.8 1174.95 2350.1 1186.05 2335.85 1189.05L2359.7 1236H2351.6L2328.35 1189.95H2293.7V1236ZM2293.7 1136.1V1183.35H2326.1C2342.15 1183.35 2351.45 1174.35 2351.45 1159.65C2351.45 1144.5 2341.4 1136.1 2325.8 1136.1H2293.7ZM2443.24 1236H2380.54V1129.5H2443.09V1136.1H2387.74V1179.3H2438.14V1185.9H2387.74V1229.4H2443.24V1236ZM2494.75 1236L2453.8 1129.5H2461.45L2492.2 1209.15C2494.45 1214.85 2496.55 1220.4 2498.8 1227.3C2501.05 1220.25 2503.9 1212.45 2505.25 1209L2535.85 1129.5H2543.2L2502.4 1236H2494.75ZM2620.93 1236H2558.23V1129.5H2620.78V1136.1H2565.43V1179.3H2615.83V1185.9H2565.43V1229.4H2620.93V1236ZM2631.48 1136.1V1129.5H2705.58V1136.1H2672.13V1236H2664.93V1136.1H2631.48ZM2727.73 1129.5V1236H2720.53V1129.5H2727.73ZM2761.86 1236H2754.66V1129.5H2793.96C2814.21 1129.5 2826.96 1141.2 2826.96 1159.35C2826.96 1174.95 2818.26 1186.05 2804.01 1189.05L2827.86 1236H2819.76L2796.51 1189.95H2761.86V1236ZM2761.86 1136.1V1183.35H2794.26C2810.31 1183.35 2819.61 1174.35 2819.61 1159.65C2819.61 1144.5 2809.56 1136.1 2793.96 1136.1H2761.86Z" fill="black"/>
<path d="M2177.88 1.14648L2490.84 192.463L2838.28 403.719L2839 404.156V829.623L2840 1254L2840 1255H1V1H2177.64L2177.88 1.14648ZM5 1251H2836V405.843L2719.91 335.256L2176.52 5H5V1251Z" fill="black"/>
<path d="M2177.88 1.14648L2178.41 0.293281L2178.4 0.292688L2177.88 1.14648ZM2490.84 192.463L2490.32 193.316L2490.32 193.317L2490.84 192.463ZM2838.28 403.719L2837.76 404.573L2837.76 404.574L2838.28 403.719ZM2839 404.156H2840V403.593L2839.52 403.301L2839 404.156ZM2839 829.623H2838L2838 829.625L2839 829.623ZM2840 1254L2841 1254L2841 1254L2840 1254ZM2840 1255V1256H2841L2841 1255L2840 1255ZM1 1255H0V1256H1V1255ZM1 1V0H0V1H1ZM2177.64 1L2178.16 0.146204L2177.92 0H2177.64V1ZM5 1251H4V1252H5V1251ZM2836 1251V1252H2837V1251H2836ZM2836 405.843H2837V405.28L2836.52 404.988L2836 405.843ZM2719.91 335.256L2720.43 334.401L2720.43 334.401L2719.91 335.256ZM2176.52 5L2177.04 4.14545L2176.8 4H2176.52V5ZM5 5V4H4V5H5ZM2177.88 1.14648L2177.36 1.99969L2490.32 193.316L2490.84 192.463L2491.36 191.61L2178.41 0.293281L2177.88 1.14648ZM2490.84 192.463L2490.32 193.317L2837.76 404.573L2838.28 403.719L2838.8 402.864L2491.36 191.608L2490.84 192.463ZM2838.28 403.719L2837.76 404.574L2838.48 405.011L2839 404.156L2839.52 403.301L2838.8 402.864L2838.28 403.719ZM2839 404.156H2838V829.623H2839H2840V404.156H2839ZM2839 829.623L2838 829.625L2839 1254L2840 1254L2841 1254L2840 829.621L2839 829.623ZM2840 1254L2839 1254L2839 1255L2840 1255L2841 1255L2841 1254L2840 1254ZM2840 1255V1254H1V1255V1256H2840V1255ZM1 1255H2V1H1H0V1255H1ZM1 1V2H2177.64V1V0H1V1ZM2177.64 1L2177.12 1.8538L2177.36 2.00028L2177.88 1.14648L2178.4 0.292688L2178.16 0.146204L2177.64 1ZM5 1251V1252H2836V1251V1250H5V1251ZM2836 1251H2837V405.843H2836H2835V1251H2836ZM2836 405.843L2836.52 404.988L2720.43 334.401L2719.91 335.256L2719.39 336.11L2835.48 406.697L2836 405.843ZM2719.91 335.256L2720.43 334.401L2177.04 4.14545L2176.52 5L2176 5.85455L2719.39 336.11L2719.91 335.256ZM2176.52 5V4H5V5V6H2176.52V5ZM5 5H4V1251H5H6V5H5Z" fill="black"/>
</svg>
