<svg width="1254" height="1756" viewBox="0 0 1254 1756" fill="none" xmlns="http://www.w3.org/2000/svg">
<rect width="1254" height="1756" fill="white"/>
<circle cx="625" cy="625" r="624.5" transform="matrix(1 0 0 -1 2 1755.17)" stroke="black"/>
<path d="M306.75 769.415C306.75 737.415 333.25 715.165 371.75 715.165C408.75 715.165 432.25 735.665 433.25 768.665H401.25C400.5 752.915 389.25 743.665 371.25 743.665C351.5 743.665 338.75 753.165 338.75 768.415C338.75 781.415 345.75 788.665 361 792.165L389.75 798.415C421 805.165 436.25 821.165 436.25 848.415C436.25 882.415 409.75 904.415 369.5 904.415C330.5 904.415 305 883.665 304.25 850.915H336.25C336.5 866.415 349 875.665 369.5 875.665C390.75 875.665 404.25 866.415 404.25 851.165C404.25 838.915 398 831.665 383 828.415L354 821.915C323 815.165 306.75 797.415 306.75 769.415ZM480.949 901.165H447.699L513.699 718.415H546.449L612.449 901.165H578.699L563.949 858.915H495.699L480.949 901.165ZM525.949 772.915L505.199 831.915H554.699L533.699 772.915C532.199 768.165 530.449 762.665 529.949 758.915C529.199 762.415 527.699 767.915 525.949 772.915ZM667.365 718.415V871.665H743.865V901.165H635.365V718.415H667.365ZM883.387 901.165H769.887V718.415H883.387V747.915H801.887V794.915H874.887V823.165H801.887V871.665H883.387V901.165ZM936.58 813.165C925.58 813.165 916.33 804.165 916.33 793.415C916.33 782.415 925.58 773.415 936.58 773.415C947.58 773.415 956.83 782.415 956.83 793.415C956.83 804.165 947.58 813.165 936.58 813.165ZM936.58 904.165C925.58 904.165 916.33 895.165 916.33 884.415C916.33 873.415 925.58 864.415 936.58 864.415C947.58 864.415 956.83 873.415 956.83 884.415C956.83 895.165 947.58 904.165 936.58 904.165Z" fill="black"/>
<path d="M37.875 1089.99L37.875 1007.92H46.275L46.275 1089.82C46.275 1113.27 59.05 1126.04 82.5 1126.04C105.425 1126.04 118.2 1113.09 118.2 1089.82L118.2 1007.92H126.6L126.6 1089.99C126.6 1117.64 110.15 1134.27 82.5 1134.27C54.5 1134.27 37.875 1117.82 37.875 1089.99ZM154.733 1167.69V1048.17H161.208L162.433 1067.07C168.733 1052.72 180.808 1046.07 195.333 1046.07C220.008 1046.07 234.008 1065.32 234.008 1090.17C234.008 1115.02 220.008 1134.27 195.333 1134.27C180.458 1134.27 168.908 1127.62 162.783 1113.97V1167.69H154.733ZM162.958 1090.17C162.958 1111.34 174.333 1126.92 194.458 1126.92C214.408 1126.92 225.783 1111.34 225.783 1090.17C225.783 1068.82 214.408 1053.42 194.458 1053.42C174.333 1053.42 162.958 1068.82 162.958 1090.17ZM318.639 1132.17H310.589V1055.17H293.614V1048.17H310.589V1021.57H318.639V1048.17H335.614V1055.17H318.639V1132.17ZM345.308 1090.17C345.308 1064.79 362.983 1046.07 386.958 1046.07C410.933 1046.07 428.608 1064.79 428.608 1090.17C428.608 1115.54 410.933 1134.27 386.958 1134.27C362.983 1134.27 345.308 1115.54 345.308 1090.17ZM353.533 1090.17C353.533 1111.69 367.358 1126.92 386.958 1126.92C406.558 1126.92 420.383 1111.69 420.383 1090.17C420.383 1068.64 406.558 1053.42 386.958 1053.42C367.358 1053.42 353.533 1068.64 353.533 1090.17ZM494.222 1098.92C494.222 1083.52 503.847 1071.27 519.072 1066.19C505.947 1060.94 498.597 1050.44 498.597 1037.32C498.597 1018.59 514.172 1005.82 537.097 1005.82C559.847 1005.82 575.247 1018.59 575.247 1037.32C575.247 1050.79 567.897 1061.29 554.947 1066.19C569.997 1070.57 579.797 1083.17 579.797 1099.09C579.797 1119.74 562.297 1134.27 537.097 1134.27C511.722 1134.27 494.222 1119.74 494.222 1098.92ZM506.822 1036.97C506.822 1052.19 518.897 1062.34 537.097 1062.34C555.297 1062.34 567.022 1052.54 567.022 1037.32C567.022 1022.79 555.297 1013.52 537.097 1013.52C518.897 1013.52 506.822 1022.79 506.822 1036.97ZM502.447 1098.04C502.447 1115.02 516.622 1126.57 537.272 1126.57C557.572 1126.57 571.572 1115.02 571.572 1098.22C571.572 1081.42 557.922 1070.39 536.922 1070.39C516.097 1070.39 502.447 1081.42 502.447 1098.04ZM599.857 1070.04C599.857 1031.37 618.057 1005.64 648.332 1005.64C678.607 1005.64 696.807 1031.37 696.807 1070.04C696.807 1108.72 678.607 1134.44 648.332 1134.44C618.057 1134.44 599.857 1108.72 599.857 1070.04ZM608.082 1070.04C608.082 1103.82 622.782 1126.57 648.332 1126.57C673.882 1126.57 688.582 1103.82 688.582 1070.04C688.582 1036.27 673.882 1013.52 648.332 1013.52C622.782 1013.52 608.082 1036.27 608.082 1070.04ZM775.877 1035.57C775.877 1052.89 763.452 1065.49 746.302 1065.49C729.152 1065.49 716.727 1052.89 716.727 1035.57C716.727 1018.24 729.152 1005.64 746.302 1005.64C763.452 1005.64 775.877 1018.24 775.877 1035.57ZM836.602 1007.92L742.277 1132.17H733.177L827.327 1007.92H836.602ZM768.177 1035.57C768.177 1022.27 759.252 1012.99 746.302 1012.99C733.352 1012.99 724.427 1022.27 724.427 1035.57C724.427 1048.87 733.527 1058.14 746.302 1058.14C759.077 1058.14 768.177 1048.87 768.177 1035.57ZM853.227 1104.52C853.227 1121.84 840.802 1134.44 823.652 1134.44C806.502 1134.44 794.077 1121.84 794.077 1104.52C794.077 1087.19 806.502 1074.59 823.652 1074.59C840.802 1074.59 853.227 1087.19 853.227 1104.52ZM845.527 1104.52C845.527 1091.22 836.602 1081.94 823.652 1081.94C810.702 1081.94 801.777 1091.22 801.777 1104.52C801.777 1117.82 810.877 1127.09 823.652 1127.09C836.427 1127.09 845.527 1117.82 845.527 1104.52ZM1036.97 1070.04C1036.97 1107.67 1012.65 1134.27 978.172 1134.27C943.697 1134.27 919.547 1107.67 919.547 1070.04C919.547 1032.42 943.872 1005.82 978.172 1005.82C1012.65 1005.82 1036.97 1032.42 1036.97 1070.04ZM1028.4 1070.04C1028.4 1036.97 1007.75 1013.87 978.172 1013.87C948.772 1013.87 928.122 1036.97 928.122 1070.04C928.122 1103.12 948.772 1126.22 978.172 1126.22C1007.75 1126.22 1028.4 1103.12 1028.4 1070.04ZM1121.8 1075.82H1068.95V1132.17H1060.55V1007.92H1131.95V1015.62H1068.95V1068.12H1121.8V1075.82ZM1215.11 1075.82H1162.26V1132.17H1153.86V1007.92H1225.26V1015.62H1162.26V1068.12H1215.11V1075.82Z" fill="black"/>
<path d="M1234.19 1737.25V1740.17H1191V1724.27C1191 1716.08 1195.75 1710.92 1203.11 1710.92C1209.43 1710.92 1213.93 1714.44 1215.15 1720.2L1234.19 1710.55V1713.83L1215.52 1723.24V1737.25H1234.19ZM1193.68 1737.25H1212.84V1724.15C1212.84 1717.65 1209.19 1713.89 1203.23 1713.89C1197.08 1713.89 1193.68 1717.96 1193.68 1724.27V1737.25Z" fill="black"/>
<path d="M1234.19 1676.76V1702.12H1191V1676.82H1193.68V1699.21H1211.2V1678.82H1213.87V1699.21H1231.51V1676.76H1234.19Z" fill="black"/>
<path d="M1234.19 1655.92L1191 1672.49V1669.39L1223.3 1656.95C1225.61 1656.04 1227.87 1655.19 1230.66 1654.28C1227.8 1653.37 1224.64 1652.22 1223.24 1651.67L1191 1639.3V1636.32L1234.19 1652.83V1655.92Z" fill="black"/>
<path d="M1234.19 1604.88V1630.24H1191V1604.94H1193.68V1627.33H1211.2V1606.94H1213.87V1627.33H1231.51V1604.88H1234.19Z" fill="black"/>
<path d="M1193.68 1600.61H1191V1570.63H1193.68V1584.16H1234.19V1587.08H1193.68V1600.61Z" fill="black"/>
<path d="M1191 1561.67H1234.19V1564.58H1191V1561.67Z" fill="black"/>
<path d="M1234.19 1547.86V1550.78H1191V1534.88C1191 1526.69 1195.75 1521.53 1203.11 1521.53C1209.43 1521.53 1213.93 1525.05 1215.15 1530.81L1234.19 1521.17V1524.44L1215.52 1533.85V1547.86H1234.19ZM1193.68 1547.86H1212.84V1534.76C1212.84 1528.26 1209.19 1524.5 1203.23 1524.5C1197.08 1524.5 1193.68 1528.57 1193.68 1534.88V1547.86Z" fill="black"/>
<mask id="path-5-inside-1_0_1" fill="white">
<path d="M1253.71 409.167L1084.08 237.689L851.069 0.876953L850.629 0.428711H294.206L1.00098 0.00195312L0 0V1755.17H1254V409.459L1253.71 409.167ZM4 1751.93V3.42871H849.372L1182.9 342.403L1250 410.629V1751.93H4Z"/>
</mask>
<path d="M1253.71 409.167L1252.29 410.574L1252.29 410.574L1253.71 409.167ZM1084.08 237.689L1082.66 239.096L1082.65 239.092L1084.08 237.689ZM851.069 0.876953L849.644 2.27967L849.643 2.27868L851.069 0.876953ZM850.629 0.428711V-1.57129H851.468L852.055 -0.973016L850.629 0.428711ZM294.206 0.428711V2.42871L294.203 2.42871L294.206 0.428711ZM1.00098 0.00195312L0.998066 2.00195L0.997074 2.00195L1.00098 0.00195312ZM0 0H-2V-2.00391L0.00390243 -2L0 0ZM0 1755.17V1757.17H-2V1755.17H0ZM1254 1755.17H1256V1757.17H1254V1755.17ZM1254 409.459L1255.42 408.052L1256 408.636V409.459H1254ZM4 1751.93V1753.93H2V1751.93H4ZM4 3.42871H2V1.42871H4V3.42871ZM849.372 3.42871V1.42871H850.21L850.798 2.026L849.372 3.42871ZM1182.9 342.403L1184.33 341.001L1184.33 341.001L1182.9 342.403ZM1250 410.629L1251.43 409.227L1252 409.81V410.629H1250ZM1250 1751.93H1252V1753.93H1250V1751.93ZM1253.71 409.167L1252.29 410.574L1082.66 239.096L1084.08 237.689L1085.5 236.283L1255.13 407.76L1253.71 409.167ZM1084.08 237.689L1082.65 239.092L849.644 2.27967L851.069 0.876953L852.495 -0.525762L1085.5 236.287L1084.08 237.689ZM851.069 0.876953L849.643 2.27868L849.202 1.83044L850.629 0.428711L852.055 -0.973016L852.496 -0.524774L851.069 0.876953ZM850.629 0.428711V2.42871H294.206V0.428711V-1.57129H850.629V0.428711ZM294.206 0.428711L294.203 2.42871L0.998066 2.00195L1.00098 0.00195312L1.00389 -1.99804L294.209 -1.57129L294.206 0.428711ZM1.00098 0.00195312L0.997074 2.00195L-0.00390243 2L0 0L0.00390243 -2L1.00488 -1.99804L1.00098 0.00195312ZM0 0H2V1755.17H0H-2V0H0ZM0 1755.17V1753.17H1254V1755.17V1757.17H0V1755.17ZM1254 1755.17H1252V409.459H1254H1256V1755.17H1254ZM1254 409.459L1252.58 410.866L1252.29 410.574L1253.71 409.167L1255.13 407.76L1255.42 408.052L1254 409.459ZM4 1751.93H2V3.42871H4H6V1751.93H4ZM4 3.42871V1.42871H849.372V3.42871V5.42871H4V3.42871ZM849.372 3.42871L850.798 2.026L1184.33 341.001L1182.9 342.403L1181.47 343.806L847.946 4.83143L849.372 3.42871ZM1182.9 342.403L1184.33 341.001L1251.43 409.227L1250 410.629L1248.57 412.031L1181.47 343.806L1182.9 342.403ZM1250 410.629H1252V1751.93H1250H1248V410.629H1250ZM1250 1751.93V1753.93H4V1751.93V1749.93H1250V1751.93Z" fill="black" mask="url(#path-5-inside-1_0_1)"/>
</svg>
