<svg width="2000" height="2000" viewBox="0 0 2000 2000" fill="none" xmlns="http://www.w3.org/2000/svg">
<rect width="2000" height="2000" fill="white"/>
<mask id="path-2-outside-1_4_30" maskUnits="userSpaceOnUse" x="256" y="431" width="483" height="150" fill="black">
<rect fill="white" x="256" y="431" width="483" height="150"/>
<path d="M259.235 470.8C259.235 447.6 277.435 432.6 305.435 432.6C329.835 432.6 346.035 446.2 348.835 469H338.835C336.835 451.4 324.835 441.4 305.435 441.4C283.435 441.4 268.835 453 268.835 470.8C268.835 484.4 277.035 493.4 293.235 497.6L318.435 504C339.835 509.4 351.235 522.2 351.235 540.4C351.235 564.2 332.835 579.4 304.435 579.4C277.835 579.4 259.835 565.6 257.635 543.4H267.835C268.635 559.6 283.235 570.4 304.435 570.4C327.035 570.4 341.635 558.8 341.635 540.6C341.635 526.6 333.435 517.2 316.635 513L292.035 506.8C270.635 501.4 259.235 489.2 259.235 470.8ZM372.791 577H363.191L415.791 435H429.991L483.191 577H473.391L458.391 537.2H387.591L372.791 577ZM421.591 445.2L390.791 528.4H455.191L423.991 445.2C423.591 444 422.991 442.6 422.791 441.6C422.591 442.4 421.991 444.2 421.591 445.2ZM513.768 435V568.2H581.368V577H504.168V435H513.768ZM686.987 577H603.387V435H686.787V443.8H612.987V501.4H680.187V510.2H612.987V568.2H686.987V577ZM726.059 500.8C720.059 500.8 715.059 495.8 715.059 490C715.059 484 720.059 479 726.059 479C732.059 479 737.059 484 737.059 490C737.059 495.8 732.059 500.8 726.059 500.8ZM726.059 579.2C720.059 579.2 715.059 574.2 715.059 568.4C715.059 562.4 720.059 557.4 726.059 557.4C732.059 557.4 737.059 562.4 737.059 568.4C737.059 574.2 732.059 579.2 726.059 579.2Z"/>
</mask>
<path d="M259.235 470.8C259.235 447.6 277.435 432.6 305.435 432.6C329.835 432.6 346.035 446.2 348.835 469H338.835C336.835 451.4 324.835 441.4 305.435 441.4C283.435 441.4 268.835 453 268.835 470.8C268.835 484.4 277.035 493.4 293.235 497.6L318.435 504C339.835 509.4 351.235 522.2 351.235 540.4C351.235 564.2 332.835 579.4 304.435 579.4C277.835 579.4 259.835 565.6 257.635 543.4H267.835C268.635 559.6 283.235 570.4 304.435 570.4C327.035 570.4 341.635 558.8 341.635 540.6C341.635 526.6 333.435 517.2 316.635 513L292.035 506.8C270.635 501.4 259.235 489.2 259.235 470.8ZM372.791 577H363.191L415.791 435H429.991L483.191 577H473.391L458.391 537.2H387.591L372.791 577ZM421.591 445.2L390.791 528.4H455.191L423.991 445.2C423.591 444 422.991 442.6 422.791 441.6C422.591 442.4 421.991 444.2 421.591 445.2ZM513.768 435V568.2H581.368V577H504.168V435H513.768ZM686.987 577H603.387V435H686.787V443.8H612.987V501.4H680.187V510.2H612.987V568.2H686.987V577ZM726.059 500.8C720.059 500.8 715.059 495.8 715.059 490C715.059 484 720.059 479 726.059 479C732.059 479 737.059 484 737.059 490C737.059 495.8 732.059 500.8 726.059 500.8ZM726.059 579.2C720.059 579.2 715.059 574.2 715.059 568.4C715.059 562.4 720.059 557.4 726.059 557.4C732.059 557.4 737.059 562.4 737.059 568.4C737.059 574.2 732.059 579.2 726.059 579.2Z" fill="black"/>
<path d="M348.835 469V470H349.965L349.828 468.878L348.835 469ZM338.835 469L337.842 469.113L337.942 470H338.835V469ZM293.235 497.6L292.984 498.568L292.989 498.569L293.235 497.6ZM318.435 504L318.189 504.969L318.19 504.97L318.435 504ZM257.635 543.4V542.4H256.531L256.64 543.499L257.635 543.4ZM267.835 543.4L268.834 543.351L268.787 542.4H267.835V543.4ZM316.635 513L316.391 513.97L316.393 513.97L316.635 513ZM292.035 506.8L291.79 507.77L291.791 507.77L292.035 506.8ZM259.235 470.8H260.235C260.235 459.484 264.663 450.222 272.472 443.771C280.3 437.304 291.605 433.6 305.435 433.6V432.6V431.6C291.265 431.6 279.47 435.396 271.198 442.229C262.907 449.078 258.235 458.916 258.235 470.8H259.235ZM305.435 432.6V433.6C317.449 433.6 327.357 436.946 334.592 443.016C341.823 449.082 346.469 457.937 347.843 469.122L348.835 469L349.828 468.878C348.401 457.263 343.548 447.918 335.878 441.484C328.213 435.054 317.821 431.6 305.435 431.6V432.6ZM348.835 469V468H338.835V469V470H348.835V469ZM338.835 469L339.829 468.887C338.805 459.877 335.206 452.723 329.298 447.83C323.399 442.945 315.303 440.4 305.435 440.4V441.4V442.4C314.967 442.4 322.571 444.855 328.022 449.37C333.464 453.877 336.865 460.523 337.842 469.113L338.835 469ZM305.435 441.4V440.4C294.269 440.4 284.88 443.344 278.26 448.644C271.62 453.962 267.835 461.6 267.835 470.8H268.835H269.835C269.835 462.2 273.35 455.138 279.51 450.206C285.691 445.256 294.602 442.4 305.435 442.4V441.4ZM268.835 470.8H267.835C267.835 477.817 269.958 483.717 274.221 488.398C278.467 493.062 284.765 496.437 292.984 498.568L293.235 497.6L293.486 496.632C285.505 494.563 279.603 491.338 275.7 487.052C271.813 482.783 269.835 477.383 269.835 470.8H268.835ZM293.235 497.6L292.989 498.569L318.189 504.969L318.435 504L318.681 503.031L293.481 496.631L293.235 497.6ZM318.435 504L318.19 504.97C328.756 507.636 336.759 512.105 342.116 518.068C347.461 524.018 350.235 531.523 350.235 540.4H351.235H352.235C352.235 531.077 349.309 523.082 343.604 516.732C337.911 510.395 329.515 505.764 318.68 503.03L318.435 504ZM351.235 540.4H350.235C350.235 552.021 345.754 561.482 337.846 568.056C329.919 574.646 318.465 578.4 304.435 578.4V579.4V580.4C318.805 580.4 330.751 576.554 339.124 569.594C347.516 562.618 352.235 552.579 352.235 540.4H351.235ZM304.435 579.4V578.4C291.302 578.4 280.382 574.994 272.495 568.932C264.622 562.882 259.704 554.137 258.63 543.301L257.635 543.4L256.64 543.499C257.766 554.863 262.949 564.118 271.276 570.518C279.588 576.906 290.968 580.4 304.435 580.4V579.4ZM257.635 543.4V544.4H267.835V543.4V542.4H257.635V543.4ZM267.835 543.4L266.836 543.449C267.252 551.866 271.263 558.886 277.891 563.779C284.501 568.66 293.674 571.4 304.435 571.4V570.4V569.4C293.996 569.4 285.269 566.74 279.079 562.171C272.907 557.614 269.218 551.134 268.834 543.351L267.835 543.4ZM304.435 570.4V571.4C315.896 571.4 325.437 568.459 332.134 563.106C338.855 557.735 342.635 549.993 342.635 540.6H341.635H340.635C340.635 549.407 337.115 556.565 330.886 561.544C324.634 566.541 315.574 569.4 304.435 569.4V570.4ZM341.635 540.6H342.635C342.635 533.391 340.518 527.292 336.179 522.457C331.856 517.638 325.403 514.161 316.878 512.03L316.635 513L316.393 513.97C324.668 516.039 330.715 519.362 334.691 523.793C338.653 528.208 340.635 533.809 340.635 540.6H341.635ZM316.635 513L316.88 512.03L292.28 505.83L292.035 506.8L291.791 507.77L316.391 513.97L316.635 513ZM292.035 506.8L292.28 505.83C281.704 503.162 273.701 498.838 268.347 492.999C263.009 487.178 260.235 479.777 260.235 470.8H259.235H258.235C258.235 480.223 261.161 488.122 266.873 494.351C272.569 500.562 280.966 505.038 291.79 507.77L292.035 506.8ZM372.791 577V578H373.486L373.729 577.349L372.791 577ZM363.191 577L362.254 576.653L361.755 578H363.191V577ZM415.791 435V434H415.095L414.854 434.653L415.791 435ZM429.991 435L430.928 434.649L430.685 434H429.991V435ZM483.191 577V578H484.634L484.128 576.649L483.191 577ZM473.391 577L472.456 577.353L472.7 578H473.391V577ZM458.391 537.2L459.327 536.847L459.083 536.2H458.391V537.2ZM387.591 537.2V536.2H386.896L386.654 536.851L387.591 537.2ZM421.591 445.2L420.663 444.829L420.658 444.841L420.654 444.853L421.591 445.2ZM390.791 528.4L389.854 528.053L389.355 529.4H390.791V528.4ZM455.191 528.4V529.4H456.634L456.128 528.049L455.191 528.4ZM423.991 445.2L423.043 445.516L423.049 445.534L423.055 445.551L423.991 445.2ZM422.791 441.6L423.772 441.404L421.821 441.357L422.791 441.6ZM372.791 577V576H363.191V577V578H372.791V577ZM363.191 577L364.129 577.347L416.729 435.347L415.791 435L414.854 434.653L362.254 576.653L363.191 577ZM415.791 435V436H429.991V435V434H415.791V435ZM429.991 435L429.055 435.351L482.255 577.351L483.191 577L484.128 576.649L430.928 434.649L429.991 435ZM483.191 577V576H473.391V577V578H483.191V577ZM473.391 577L474.327 576.647L459.327 536.847L458.391 537.2L457.456 537.553L472.456 577.353L473.391 577ZM458.391 537.2V536.2H387.591V537.2V538.2H458.391V537.2ZM387.591 537.2L386.654 536.851L371.854 576.651L372.791 577L373.729 577.349L388.529 537.549L387.591 537.2ZM421.591 445.2L420.654 444.853L389.854 528.053L390.791 528.4L391.729 528.747L422.529 445.547L421.591 445.2ZM390.791 528.4V529.4H455.191V528.4V527.4H390.791V528.4ZM455.191 528.4L456.128 528.049L424.928 444.849L423.991 445.2L423.055 445.551L454.255 528.751L455.191 528.4ZM423.991 445.2L424.94 444.884C424.736 444.27 424.471 443.581 424.257 442.986C424.032 442.361 423.856 441.823 423.772 441.404L422.791 441.6L421.811 441.796C421.927 442.377 422.151 443.039 422.376 443.664C422.612 444.319 422.847 444.93 423.043 445.516L423.991 445.2ZM422.791 441.6L421.821 441.357C421.635 442.103 421.051 443.859 420.663 444.829L421.591 445.2L422.52 445.571C422.932 444.541 423.548 442.697 423.762 441.843L422.791 441.6ZM513.768 435H514.768V434H513.768V435ZM513.768 568.2H512.768V569.2H513.768V568.2ZM581.368 568.2H582.368V567.2H581.368V568.2ZM581.368 577V578H582.368V577H581.368ZM504.168 577H503.168V578H504.168V577ZM504.168 435V434H503.168V435H504.168ZM513.768 435H512.768V568.2H513.768H514.768V435H513.768ZM513.768 568.2V569.2H581.368V568.2V567.2H513.768V568.2ZM581.368 568.2H580.368V577H581.368H582.368V568.2H581.368ZM581.368 577V576H504.168V577V578H581.368V577ZM504.168 577H505.168V435H504.168H503.168V577H504.168ZM504.168 435V436H513.768V435V434H504.168V435ZM686.987 577V578H687.987V577H686.987ZM603.387 577H602.387V578H603.387V577ZM603.387 435V434H602.387V435H603.387ZM686.787 435H687.787V434H686.787V435ZM686.787 443.8V444.8H687.787V443.8H686.787ZM612.987 443.8V442.8H611.987V443.8H612.987ZM612.987 501.4H611.987V502.4H612.987V501.4ZM680.187 501.4H681.187V500.4H680.187V501.4ZM680.187 510.2V511.2H681.187V510.2H680.187ZM612.987 510.2V509.2H611.987V510.2H612.987ZM612.987 568.2H611.987V569.2H612.987V568.2ZM686.987 568.2H687.987V567.2H686.987V568.2ZM686.987 577V576H603.387V577V578H686.987V577ZM603.387 577H604.387V435H603.387H602.387V577H603.387ZM603.387 435V436H686.787V435V434H603.387V435ZM686.787 435H685.787V443.8H686.787H687.787V435H686.787ZM686.787 443.8V442.8H612.987V443.8V444.8H686.787V443.8ZM612.987 443.8H611.987V501.4H612.987H613.987V443.8H612.987ZM612.987 501.4V502.4H680.187V501.4V500.4H612.987V501.4ZM680.187 501.4H679.187V510.2H680.187H681.187V501.4H680.187ZM680.187 510.2V509.2H612.987V510.2V511.2H680.187V510.2ZM612.987 510.2H611.987V568.2H612.987H613.987V510.2H612.987ZM612.987 568.2V569.2H686.987V568.2V567.2H612.987V568.2ZM686.987 568.2H685.987V577H686.987H687.987V568.2H686.987ZM726.059 500.8V499.8C720.599 499.8 716.059 495.236 716.059 490H715.059H714.059C714.059 496.364 719.518 501.8 726.059 501.8V500.8ZM715.059 490H716.059C716.059 484.552 720.611 480 726.059 480V479V478C719.506 478 714.059 483.448 714.059 490H715.059ZM726.059 479V480C731.506 480 736.059 484.552 736.059 490H737.059H738.059C738.059 483.448 732.611 478 726.059 478V479ZM737.059 490H736.059C736.059 495.236 731.518 499.8 726.059 499.8V500.8V501.8C732.599 501.8 738.059 496.364 738.059 490H737.059ZM726.059 579.2V578.2C720.599 578.2 716.059 573.636 716.059 568.4H715.059H714.059C714.059 574.764 719.518 580.2 726.059 580.2V579.2ZM715.059 568.4H716.059C716.059 562.952 720.611 558.4 726.059 558.4V557.4V556.4C719.506 556.4 714.059 561.848 714.059 568.4H715.059ZM726.059 557.4V558.4C731.506 558.4 736.059 562.952 736.059 568.4H737.059H738.059C738.059 561.848 732.611 556.4 726.059 556.4V557.4ZM737.059 568.4H736.059C736.059 573.636 731.518 578.2 726.059 578.2V579.2V580.2C732.599 580.2 738.059 574.764 738.059 568.4H737.059Z" fill="black" mask="url(#path-2-outside-1_4_30)"/>
<mask id="path-4-outside-2_4_30" maskUnits="userSpaceOnUse" x="1077" y="1455" width="885" height="123" fill="black">
<rect fill="white" x="1077" y="1455" width="885" height="123"/>
<path d="M1078.4 1518.67V1457.7H1084.64V1518.54C1084.64 1535.96 1094.13 1545.45 1111.55 1545.45C1128.58 1545.45 1138.07 1535.83 1138.07 1518.54V1457.7H1144.31V1518.67C1144.31 1539.21 1132.09 1551.56 1111.55 1551.56C1090.75 1551.56 1078.4 1539.34 1078.4 1518.67ZM1165.21 1576.39V1487.6H1170.02L1170.93 1501.64C1175.61 1490.98 1184.58 1486.04 1195.37 1486.04C1213.7 1486.04 1224.1 1500.34 1224.1 1518.8C1224.1 1537.26 1213.7 1551.56 1195.37 1551.56C1184.32 1551.56 1175.74 1546.62 1171.19 1536.48V1576.39H1165.21ZM1171.32 1518.8C1171.32 1534.53 1179.77 1546.1 1194.72 1546.1C1209.54 1546.1 1217.99 1534.53 1217.99 1518.8C1217.99 1502.94 1209.54 1491.5 1194.72 1491.5C1179.77 1491.5 1171.32 1502.94 1171.32 1518.8ZM1286.97 1550H1280.99V1492.8H1268.38V1487.6H1280.99V1467.84H1286.97V1487.6H1299.58V1492.8H1286.97V1550ZM1306.78 1518.8C1306.78 1499.95 1319.91 1486.04 1337.72 1486.04C1355.53 1486.04 1368.66 1499.95 1368.66 1518.8C1368.66 1537.65 1355.53 1551.56 1337.72 1551.56C1319.91 1551.56 1306.78 1537.65 1306.78 1518.8ZM1312.89 1518.8C1312.89 1534.79 1323.16 1546.1 1337.72 1546.1C1352.28 1546.1 1362.55 1534.79 1362.55 1518.8C1362.55 1502.81 1352.28 1491.5 1337.72 1491.5C1323.16 1491.5 1312.89 1502.81 1312.89 1518.8ZM1470.57 1517.11L1446.13 1550H1438.72L1464.46 1515.94C1458.48 1519.58 1454.06 1520.62 1448.73 1520.62C1429.49 1520.62 1416.75 1506.32 1416.75 1488.51C1416.75 1470.05 1430.92 1456.14 1448.86 1456.14C1466.8 1456.14 1481.23 1470.31 1481.23 1488.51C1481.23 1499.04 1478.63 1506.32 1470.57 1517.11ZM1474.99 1488.51C1474.99 1473.17 1464.2 1461.99 1448.86 1461.99C1433.78 1461.99 1422.99 1473.17 1422.99 1488.51C1422.99 1503.72 1433.78 1514.77 1448.86 1514.77C1464.2 1514.77 1474.99 1503.72 1474.99 1488.51ZM1495.49 1503.85C1495.49 1475.12 1509.01 1456.01 1531.5 1456.01C1553.99 1456.01 1567.51 1475.12 1567.51 1503.85C1567.51 1532.58 1553.99 1551.69 1531.5 1551.69C1509.01 1551.69 1495.49 1532.58 1495.49 1503.85ZM1501.6 1503.85C1501.6 1528.94 1512.52 1545.84 1531.5 1545.84C1550.48 1545.84 1561.4 1528.94 1561.4 1503.85C1561.4 1478.76 1550.48 1461.86 1531.5 1461.86C1512.52 1461.86 1501.6 1478.76 1501.6 1503.85ZM1626.25 1478.24C1626.25 1491.11 1617.02 1500.47 1604.28 1500.47C1591.54 1500.47 1582.31 1491.11 1582.31 1478.24C1582.31 1465.37 1591.54 1456.01 1604.28 1456.01C1617.02 1456.01 1626.25 1465.37 1626.25 1478.24ZM1671.36 1457.7L1601.29 1550H1594.53L1664.47 1457.7H1671.36ZM1620.53 1478.24C1620.53 1468.36 1613.9 1461.47 1604.28 1461.47C1594.66 1461.47 1588.03 1468.36 1588.03 1478.24C1588.03 1488.12 1594.79 1495.01 1604.28 1495.01C1613.77 1495.01 1620.53 1488.12 1620.53 1478.24ZM1683.71 1529.46C1683.71 1542.33 1674.48 1551.69 1661.74 1551.69C1649 1551.69 1639.77 1542.33 1639.77 1529.46C1639.77 1516.59 1649 1507.23 1661.74 1507.23C1674.48 1507.23 1683.71 1516.59 1683.71 1529.46ZM1677.99 1529.46C1677.99 1519.58 1671.36 1512.69 1661.74 1512.69C1652.12 1512.69 1645.49 1519.58 1645.49 1529.46C1645.49 1539.34 1652.25 1546.23 1661.74 1546.23C1671.23 1546.23 1677.99 1539.34 1677.99 1529.46ZM1820.2 1503.85C1820.2 1531.8 1802.13 1551.56 1776.52 1551.56C1750.91 1551.56 1732.97 1531.8 1732.97 1503.85C1732.97 1475.9 1751.04 1456.14 1776.52 1456.14C1802.13 1456.14 1820.2 1475.9 1820.2 1503.85ZM1813.83 1503.85C1813.83 1479.28 1798.49 1462.12 1776.52 1462.12C1754.68 1462.12 1739.34 1479.28 1739.34 1503.85C1739.34 1528.42 1754.68 1545.58 1776.52 1545.58C1798.49 1545.58 1813.83 1528.42 1813.83 1503.85ZM1883.22 1508.14H1843.96V1550H1837.72V1457.7H1890.76V1463.42H1843.96V1502.42H1883.22V1508.14ZM1952.54 1508.14H1913.28V1550H1907.04V1457.7H1960.08V1463.42H1913.28V1502.42H1952.54V1508.14Z"/>
</mask>
<path d="M1078.4 1518.67V1457.7H1084.64V1518.54C1084.64 1535.96 1094.13 1545.45 1111.55 1545.45C1128.58 1545.45 1138.07 1535.83 1138.07 1518.54V1457.7H1144.31V1518.67C1144.31 1539.21 1132.09 1551.56 1111.55 1551.56C1090.75 1551.56 1078.4 1539.34 1078.4 1518.67ZM1165.21 1576.39V1487.6H1170.02L1170.93 1501.64C1175.61 1490.98 1184.58 1486.04 1195.37 1486.04C1213.7 1486.04 1224.1 1500.34 1224.1 1518.8C1224.1 1537.26 1213.7 1551.56 1195.37 1551.56C1184.32 1551.56 1175.74 1546.62 1171.19 1536.48V1576.39H1165.21ZM1171.32 1518.8C1171.32 1534.53 1179.77 1546.1 1194.72 1546.1C1209.54 1546.1 1217.99 1534.53 1217.99 1518.8C1217.99 1502.94 1209.54 1491.5 1194.72 1491.5C1179.77 1491.5 1171.32 1502.94 1171.32 1518.8ZM1286.97 1550H1280.99V1492.8H1268.38V1487.6H1280.99V1467.84H1286.97V1487.6H1299.58V1492.8H1286.97V1550ZM1306.78 1518.8C1306.78 1499.95 1319.91 1486.04 1337.72 1486.04C1355.53 1486.04 1368.66 1499.95 1368.66 1518.8C1368.66 1537.65 1355.53 1551.56 1337.72 1551.56C1319.91 1551.56 1306.78 1537.65 1306.78 1518.8ZM1312.89 1518.8C1312.89 1534.79 1323.16 1546.1 1337.72 1546.1C1352.28 1546.1 1362.55 1534.79 1362.55 1518.8C1362.55 1502.81 1352.28 1491.5 1337.72 1491.5C1323.16 1491.5 1312.89 1502.81 1312.89 1518.8ZM1470.57 1517.11L1446.13 1550H1438.72L1464.46 1515.94C1458.48 1519.58 1454.06 1520.62 1448.73 1520.62C1429.49 1520.62 1416.75 1506.32 1416.75 1488.51C1416.75 1470.05 1430.92 1456.14 1448.86 1456.14C1466.8 1456.14 1481.23 1470.31 1481.23 1488.51C1481.23 1499.04 1478.63 1506.32 1470.57 1517.11ZM1474.99 1488.51C1474.99 1473.17 1464.2 1461.99 1448.86 1461.99C1433.78 1461.99 1422.99 1473.17 1422.99 1488.51C1422.99 1503.72 1433.78 1514.77 1448.86 1514.77C1464.2 1514.77 1474.99 1503.72 1474.99 1488.51ZM1495.49 1503.85C1495.49 1475.12 1509.01 1456.01 1531.5 1456.01C1553.99 1456.01 1567.51 1475.12 1567.51 1503.85C1567.51 1532.58 1553.99 1551.69 1531.5 1551.69C1509.01 1551.69 1495.49 1532.58 1495.49 1503.85ZM1501.6 1503.85C1501.6 1528.94 1512.52 1545.84 1531.5 1545.84C1550.48 1545.84 1561.4 1528.94 1561.4 1503.85C1561.4 1478.76 1550.48 1461.86 1531.5 1461.86C1512.52 1461.86 1501.6 1478.76 1501.6 1503.85ZM1626.25 1478.24C1626.25 1491.11 1617.02 1500.47 1604.28 1500.47C1591.54 1500.47 1582.31 1491.11 1582.31 1478.24C1582.31 1465.37 1591.54 1456.01 1604.28 1456.01C1617.02 1456.01 1626.25 1465.37 1626.25 1478.24ZM1671.36 1457.7L1601.29 1550H1594.53L1664.47 1457.7H1671.36ZM1620.53 1478.24C1620.53 1468.36 1613.9 1461.47 1604.28 1461.47C1594.66 1461.47 1588.03 1468.36 1588.03 1478.24C1588.03 1488.12 1594.79 1495.01 1604.28 1495.01C1613.77 1495.01 1620.53 1488.12 1620.53 1478.24ZM1683.71 1529.46C1683.71 1542.33 1674.48 1551.69 1661.74 1551.69C1649 1551.69 1639.77 1542.33 1639.77 1529.46C1639.77 1516.59 1649 1507.23 1661.74 1507.23C1674.48 1507.23 1683.71 1516.59 1683.71 1529.46ZM1677.99 1529.46C1677.99 1519.58 1671.36 1512.69 1661.74 1512.69C1652.12 1512.69 1645.49 1519.58 1645.49 1529.46C1645.49 1539.34 1652.25 1546.23 1661.74 1546.23C1671.23 1546.23 1677.99 1539.34 1677.99 1529.46ZM1820.2 1503.85C1820.2 1531.8 1802.13 1551.56 1776.52 1551.56C1750.91 1551.56 1732.97 1531.8 1732.97 1503.85C1732.97 1475.9 1751.04 1456.14 1776.52 1456.14C1802.13 1456.14 1820.2 1475.9 1820.2 1503.85ZM1813.83 1503.85C1813.83 1479.28 1798.49 1462.12 1776.52 1462.12C1754.68 1462.12 1739.34 1479.28 1739.34 1503.85C1739.34 1528.42 1754.68 1545.58 1776.52 1545.58C1798.49 1545.58 1813.83 1528.42 1813.83 1503.85ZM1883.22 1508.14H1843.96V1550H1837.72V1457.7H1890.76V1463.42H1843.96V1502.42H1883.22V1508.14ZM1952.54 1508.14H1913.28V1550H1907.04V1457.7H1960.08V1463.42H1913.28V1502.42H1952.54V1508.14Z" fill="black"/>
<path d="M1078.4 1457.7V1456.7H1077.4V1457.7H1078.4ZM1084.64 1457.7H1085.64V1456.7H1084.64V1457.7ZM1138.07 1457.7V1456.7H1137.07V1457.7H1138.07ZM1144.31 1457.7H1145.31V1456.7H1144.31V1457.7ZM1078.4 1518.67H1079.4V1457.7H1078.4H1077.4V1518.67H1078.4ZM1078.4 1457.7V1458.7H1084.64V1457.7V1456.7H1078.4V1457.7ZM1084.64 1457.7H1083.64V1518.54H1084.64H1085.64V1457.7H1084.64ZM1084.64 1518.54H1083.64C1083.64 1527.43 1086.06 1534.44 1090.85 1539.23C1095.65 1544.03 1102.66 1546.45 1111.55 1546.45V1545.45V1544.45C1103.01 1544.45 1096.57 1542.13 1092.27 1537.82C1087.96 1533.51 1085.64 1527.07 1085.64 1518.54H1084.64ZM1111.55 1545.45V1546.45C1120.25 1546.45 1127.17 1543.99 1131.91 1539.18C1136.64 1534.37 1139.07 1527.36 1139.07 1518.54H1138.07H1137.07C1137.07 1527.01 1134.75 1533.45 1130.48 1537.78C1126.22 1542.1 1119.88 1544.45 1111.55 1544.45V1545.45ZM1138.07 1518.54H1139.07V1457.7H1138.07H1137.07V1518.54H1138.07ZM1138.07 1457.7V1458.7H1144.31V1457.7V1456.7H1138.07V1457.7ZM1144.31 1457.7H1143.31V1518.67H1144.31H1145.31V1457.7H1144.31ZM1144.31 1518.67H1143.31C1143.31 1528.74 1140.32 1536.69 1134.92 1542.11C1129.53 1547.54 1121.62 1550.56 1111.55 1550.56V1551.56V1552.56C1122.02 1552.56 1130.49 1549.41 1136.34 1543.52C1142.19 1537.64 1145.31 1529.14 1145.31 1518.67H1144.31ZM1111.55 1551.56V1550.56C1101.34 1550.56 1093.33 1547.57 1087.88 1542.16C1082.42 1536.75 1079.4 1528.81 1079.4 1518.67H1078.4H1077.4C1077.4 1529.2 1080.55 1537.71 1086.47 1543.58C1092.39 1549.44 1100.95 1552.56 1111.55 1552.56V1551.56ZM1165.21 1576.39H1164.21V1577.39H1165.21V1576.39ZM1165.21 1487.6V1486.6H1164.21V1487.6H1165.21ZM1170.02 1487.6L1171.01 1487.54L1170.95 1486.6H1170.02V1487.6ZM1170.93 1501.64L1169.93 1501.7L1171.84 1502.04L1170.93 1501.64ZM1171.19 1536.48L1172.1 1536.07L1170.19 1536.48H1171.19ZM1171.19 1576.39V1577.39H1172.19V1576.39H1171.19ZM1165.21 1576.39H1166.21V1487.6H1165.21H1164.21V1576.39H1165.21ZM1165.21 1487.6V1488.6H1170.02V1487.6V1486.6H1165.21V1487.6ZM1170.02 1487.6L1169.02 1487.66L1169.93 1501.7L1170.93 1501.64L1171.92 1501.58L1171.01 1487.54L1170.02 1487.6ZM1170.93 1501.64L1171.84 1502.04C1176.35 1491.78 1184.93 1487.04 1195.37 1487.04V1486.04V1485.04C1184.22 1485.04 1174.87 1490.18 1170.01 1501.24L1170.93 1501.64ZM1195.37 1486.04V1487.04C1204.25 1487.04 1211.14 1490.49 1215.84 1496.14C1220.55 1501.8 1223.1 1509.75 1223.1 1518.8H1224.1H1225.1C1225.1 1509.39 1222.45 1500.96 1217.37 1494.86C1212.28 1488.74 1204.82 1485.04 1195.37 1485.04V1486.04ZM1224.1 1518.8H1223.1C1223.1 1527.85 1220.55 1535.8 1215.84 1541.46C1211.14 1547.11 1204.25 1550.56 1195.37 1550.56V1551.56V1552.56C1204.82 1552.56 1212.28 1548.86 1217.37 1542.74C1222.45 1536.64 1225.1 1528.21 1225.1 1518.8H1224.1ZM1195.37 1551.56V1550.56C1184.67 1550.56 1176.47 1545.81 1172.1 1536.07L1171.19 1536.48L1170.27 1536.89C1175 1547.43 1183.96 1552.56 1195.37 1552.56V1551.56ZM1171.19 1536.48H1170.19V1576.39H1171.19H1172.19V1536.48H1171.19ZM1171.19 1576.39V1575.39H1165.21V1576.39V1577.39H1171.19V1576.39ZM1171.32 1518.8H1170.32C1170.32 1526.83 1172.47 1533.9 1176.64 1538.98C1180.82 1544.09 1186.96 1547.1 1194.72 1547.1V1546.1V1545.1C1187.52 1545.1 1181.96 1542.33 1178.18 1537.71C1174.38 1533.08 1172.32 1526.5 1172.32 1518.8H1171.32ZM1194.72 1546.1V1547.1C1202.41 1547.1 1208.52 1544.08 1212.68 1538.98C1216.83 1533.9 1218.99 1526.83 1218.99 1518.8H1217.99H1216.99C1216.99 1526.5 1214.92 1533.08 1211.13 1537.72C1207.37 1542.33 1201.84 1545.1 1194.72 1545.1V1546.1ZM1217.99 1518.8H1218.99C1218.99 1510.7 1216.83 1503.63 1212.68 1498.57C1208.52 1493.48 1202.41 1490.5 1194.72 1490.5V1491.5V1492.5C1201.84 1492.5 1207.37 1495.24 1211.13 1499.84C1214.92 1504.46 1216.99 1511.04 1216.99 1518.8H1217.99ZM1194.72 1491.5V1490.5C1186.96 1490.5 1180.82 1493.48 1176.64 1498.57C1172.47 1503.63 1170.32 1510.7 1170.32 1518.8H1171.32H1172.32C1172.32 1511.04 1174.38 1504.46 1178.18 1499.84C1181.96 1495.24 1187.52 1492.5 1194.72 1492.5V1491.5ZM1286.97 1550V1551H1287.97V1550H1286.97ZM1280.99 1550H1279.99V1551H1280.99V1550ZM1280.99 1492.8H1281.99V1491.8H1280.99V1492.8ZM1268.38 1492.8H1267.38V1493.8H1268.38V1492.8ZM1268.38 1487.6V1486.6H1267.38V1487.6H1268.38ZM1280.99 1487.6V1488.6H1281.99V1487.6H1280.99ZM1280.99 1467.84V1466.84H1279.99V1467.84H1280.99ZM1286.97 1467.84H1287.97V1466.84H1286.97V1467.84ZM1286.97 1487.6H1285.97V1488.6H1286.97V1487.6ZM1299.58 1487.6H1300.58V1486.6H1299.58V1487.6ZM1299.58 1492.8V1493.8H1300.58V1492.8H1299.58ZM1286.97 1492.8V1491.8H1285.97V1492.8H1286.97ZM1286.97 1550V1549H1280.99V1550V1551H1286.97V1550ZM1280.99 1550H1281.99V1492.8H1280.99H1279.99V1550H1280.99ZM1280.99 1492.8V1491.8H1268.38V1492.8V1493.8H1280.99V1492.8ZM1268.38 1492.8H1269.38V1487.6H1268.38H1267.38V1492.8H1268.38ZM1268.38 1487.6V1488.6H1280.99V1487.6V1486.6H1268.38V1487.6ZM1280.99 1487.6H1281.99V1467.84H1280.99H1279.99V1487.6H1280.99ZM1280.99 1467.84V1468.84H1286.97V1467.84V1466.84H1280.99V1467.84ZM1286.97 1467.84H1285.97V1487.6H1286.97H1287.97V1467.84H1286.97ZM1286.97 1487.6V1488.6H1299.58V1487.6V1486.6H1286.97V1487.6ZM1299.58 1487.6H1298.58V1492.8H1299.58H1300.58V1487.6H1299.58ZM1299.58 1492.8V1491.8H1286.97V1492.8V1493.8H1299.58V1492.8ZM1286.97 1492.8H1285.97V1550H1286.97H1287.97V1492.8H1286.97ZM1306.78 1518.8H1307.78C1307.78 1500.45 1320.51 1487.04 1337.72 1487.04V1486.04V1485.04C1319.3 1485.04 1305.78 1499.45 1305.78 1518.8H1306.78ZM1337.72 1486.04V1487.04C1354.92 1487.04 1367.66 1500.45 1367.66 1518.8H1368.66H1369.66C1369.66 1499.45 1356.13 1485.04 1337.72 1485.04V1486.04ZM1368.66 1518.8H1367.66C1367.66 1537.15 1354.92 1550.56 1337.72 1550.56V1551.56V1552.56C1356.13 1552.56 1369.66 1538.15 1369.66 1518.8H1368.66ZM1337.72 1551.56V1550.56C1320.51 1550.56 1307.78 1537.15 1307.78 1518.8H1306.78H1305.78C1305.78 1538.15 1319.3 1552.56 1337.72 1552.56V1551.56ZM1312.89 1518.8H1311.89C1311.89 1527.01 1314.52 1534.08 1319.1 1539.12C1323.68 1544.16 1330.16 1547.1 1337.72 1547.1V1546.1V1545.1C1330.71 1545.1 1324.77 1542.38 1320.58 1537.77C1316.38 1533.16 1313.89 1526.58 1313.89 1518.8H1312.89ZM1337.72 1546.1V1547.1C1345.27 1547.1 1351.75 1544.16 1356.33 1539.12C1360.91 1534.08 1363.55 1527.01 1363.55 1518.8H1362.55H1361.55C1361.55 1526.58 1359.05 1533.16 1354.85 1537.77C1350.66 1542.38 1344.72 1545.1 1337.72 1545.1V1546.1ZM1362.55 1518.8H1363.55C1363.55 1510.59 1360.91 1503.52 1356.33 1498.48C1351.75 1493.44 1345.27 1490.5 1337.72 1490.5V1491.5V1492.5C1344.72 1492.5 1350.66 1495.22 1354.85 1499.83C1359.05 1504.44 1361.55 1511.02 1361.55 1518.8H1362.55ZM1337.72 1491.5V1490.5C1330.16 1490.5 1323.68 1493.44 1319.1 1498.48C1314.52 1503.52 1311.89 1510.59 1311.89 1518.8H1312.89H1313.89C1313.89 1511.02 1316.38 1504.44 1320.58 1499.83C1324.77 1495.22 1330.71 1492.5 1337.72 1492.5V1491.5ZM1470.57 1517.11L1469.77 1516.51L1469.77 1516.51L1470.57 1517.11ZM1446.13 1550V1551H1446.63L1446.93 1550.6L1446.13 1550ZM1438.72 1550L1437.92 1549.4L1436.71 1551H1438.72V1550ZM1464.46 1515.94L1465.26 1516.54L1463.94 1515.09L1464.46 1515.94ZM1470.57 1517.11L1469.77 1516.51L1445.33 1549.4L1446.13 1550L1446.93 1550.6L1471.37 1517.71L1470.57 1517.11ZM1446.13 1550V1549H1438.72V1550V1551H1446.13V1550ZM1438.72 1550L1439.52 1550.6L1465.26 1516.54L1464.46 1515.94L1463.66 1515.34L1437.92 1549.4L1438.72 1550ZM1464.46 1515.94L1463.94 1515.09C1458.11 1518.63 1453.87 1519.62 1448.73 1519.62V1520.62V1521.62C1454.25 1521.62 1458.85 1520.53 1464.98 1516.79L1464.46 1515.94ZM1448.73 1520.62V1519.62C1430.07 1519.62 1417.75 1505.8 1417.75 1488.51H1416.75H1415.75C1415.75 1506.84 1428.9 1521.62 1448.73 1521.62V1520.62ZM1416.75 1488.51H1417.75C1417.75 1470.6 1431.47 1457.14 1448.86 1457.14V1456.14V1455.14C1430.37 1455.14 1415.75 1469.5 1415.75 1488.51H1416.75ZM1448.86 1456.14V1457.14C1466.25 1457.14 1480.23 1470.87 1480.23 1488.51H1481.23H1482.23C1482.23 1469.75 1467.35 1455.14 1448.86 1455.14V1456.14ZM1481.23 1488.51H1480.23C1480.23 1493.68 1479.59 1498.02 1477.98 1502.37C1476.37 1506.73 1473.77 1511.16 1469.77 1516.51L1470.57 1517.11L1471.37 1517.71C1475.43 1512.27 1478.16 1507.67 1479.86 1503.06C1481.57 1498.44 1482.23 1493.87 1482.23 1488.51H1481.23ZM1474.99 1488.51H1475.99C1475.99 1472.64 1464.77 1460.99 1448.86 1460.99V1461.99V1462.99C1463.63 1462.99 1473.99 1473.7 1473.99 1488.51H1474.99ZM1448.86 1461.99V1460.99C1433.2 1460.99 1421.99 1472.64 1421.99 1488.51H1422.99H1423.99C1423.99 1473.7 1434.36 1462.99 1448.86 1462.99V1461.99ZM1422.99 1488.51H1421.99C1421.99 1504.26 1433.21 1515.77 1448.86 1515.77V1514.77V1513.77C1434.35 1513.77 1423.99 1503.18 1423.99 1488.51H1422.99ZM1448.86 1514.77V1515.77C1464.76 1515.77 1475.99 1504.26 1475.99 1488.51H1474.99H1473.99C1473.99 1503.18 1463.64 1513.77 1448.86 1513.77V1514.77ZM1495.49 1503.85H1496.49C1496.49 1489.63 1499.84 1477.9 1505.86 1469.75C1511.87 1461.64 1520.57 1457.01 1531.5 1457.01V1456.01V1455.01C1519.94 1455.01 1510.64 1459.94 1504.26 1468.56C1497.9 1477.15 1494.49 1489.34 1494.49 1503.85H1495.49ZM1531.5 1456.01V1457.01C1542.43 1457.01 1551.13 1461.64 1557.13 1469.75C1563.16 1477.9 1566.51 1489.63 1566.51 1503.85H1567.51H1568.51C1568.51 1489.34 1565.1 1477.15 1558.74 1468.56C1552.36 1459.94 1543.06 1455.01 1531.5 1455.01V1456.01ZM1567.51 1503.85H1566.51C1566.51 1518.07 1563.16 1529.8 1557.13 1537.95C1551.13 1546.06 1542.43 1550.69 1531.5 1550.69V1551.69V1552.69C1543.06 1552.69 1552.36 1547.76 1558.74 1539.14C1565.1 1530.55 1568.51 1518.36 1568.51 1503.85H1567.51ZM1531.5 1551.69V1550.69C1520.57 1550.69 1511.87 1546.06 1505.86 1537.95C1499.84 1529.8 1496.49 1518.07 1496.49 1503.85H1495.49H1494.49C1494.49 1518.36 1497.9 1530.55 1504.26 1539.14C1510.64 1547.76 1519.94 1552.69 1531.5 1552.69V1551.69ZM1501.6 1503.85H1500.6C1500.6 1516.52 1503.35 1527.24 1508.61 1534.82C1513.89 1542.44 1521.67 1546.84 1531.5 1546.84V1545.84V1544.84C1522.35 1544.84 1515.18 1540.79 1510.25 1533.68C1505.3 1526.54 1502.6 1516.27 1502.6 1503.85H1501.6ZM1531.5 1545.84V1546.84C1541.33 1546.84 1549.11 1542.44 1554.39 1534.82C1559.64 1527.24 1562.4 1516.52 1562.4 1503.85H1561.4H1560.4C1560.4 1516.27 1557.69 1526.54 1552.75 1533.68C1547.82 1540.79 1540.65 1544.84 1531.5 1544.84V1545.84ZM1561.4 1503.85H1562.4C1562.4 1491.18 1559.64 1480.46 1554.39 1472.88C1549.11 1465.26 1541.33 1460.86 1531.5 1460.86V1461.86V1462.86C1540.65 1462.86 1547.82 1466.91 1552.75 1474.02C1557.69 1481.16 1560.4 1491.43 1560.4 1503.85H1561.4ZM1531.5 1461.86V1460.86C1521.67 1460.86 1513.89 1465.26 1508.61 1472.88C1503.35 1480.46 1500.6 1491.18 1500.6 1503.85H1501.6H1502.6C1502.6 1491.43 1505.3 1481.16 1510.25 1474.02C1515.18 1466.91 1522.35 1462.86 1531.5 1462.86V1461.86ZM1671.36 1457.7L1672.15 1458.3L1673.37 1456.7H1671.36V1457.7ZM1601.29 1550V1551H1601.78L1602.08 1550.6L1601.29 1550ZM1594.53 1550L1593.73 1549.4L1592.51 1551H1594.53V1550ZM1664.47 1457.7V1456.7H1663.97L1663.67 1457.1L1664.47 1457.7ZM1626.25 1478.24H1625.25C1625.25 1490.57 1616.45 1499.47 1604.28 1499.47V1500.47V1501.47C1617.58 1501.47 1627.25 1491.65 1627.25 1478.24H1626.25ZM1604.28 1500.47V1499.47C1592.1 1499.47 1583.31 1490.57 1583.31 1478.24H1582.31H1581.31C1581.31 1491.65 1590.97 1501.47 1604.28 1501.47V1500.47ZM1582.31 1478.24H1583.31C1583.31 1465.91 1592.1 1457.01 1604.28 1457.01V1456.01V1455.01C1590.97 1455.01 1581.31 1464.83 1581.31 1478.24H1582.31ZM1604.28 1456.01V1457.01C1616.45 1457.01 1625.25 1465.91 1625.25 1478.24H1626.25H1627.25C1627.25 1464.83 1617.58 1455.01 1604.28 1455.01V1456.01ZM1671.36 1457.7L1670.56 1457.1L1600.49 1549.4L1601.29 1550L1602.08 1550.6L1672.15 1458.3L1671.36 1457.7ZM1601.29 1550V1549H1594.53V1550V1551H1601.29V1550ZM1594.53 1550L1595.32 1550.6L1665.26 1458.3L1664.47 1457.7L1663.67 1457.1L1593.73 1549.4L1594.53 1550ZM1664.47 1457.7V1458.7H1671.36V1457.7V1456.7H1664.47V1457.7ZM1620.53 1478.24H1621.53C1621.53 1473.07 1619.79 1468.62 1616.73 1465.45C1613.66 1462.29 1609.33 1460.47 1604.28 1460.47V1461.47V1462.47C1608.84 1462.47 1612.63 1464.1 1615.29 1466.85C1617.95 1469.59 1619.53 1473.53 1619.53 1478.24H1620.53ZM1604.28 1461.47V1460.47C1599.22 1460.47 1594.89 1462.29 1591.83 1465.45C1588.76 1468.62 1587.03 1473.07 1587.03 1478.24H1588.03H1589.03C1589.03 1473.53 1590.61 1469.59 1593.26 1466.85C1595.92 1464.1 1599.71 1462.47 1604.28 1462.47V1461.47ZM1588.03 1478.24H1587.03C1587.03 1483.41 1588.8 1487.86 1591.88 1491.03C1594.95 1494.19 1599.28 1496.01 1604.28 1496.01V1495.01V1494.01C1599.78 1494.01 1595.98 1492.38 1593.31 1489.63C1590.63 1486.88 1589.03 1482.95 1589.03 1478.24H1588.03ZM1604.28 1495.01V1496.01C1609.27 1496.01 1613.6 1494.19 1616.68 1491.03C1619.75 1487.86 1621.53 1483.41 1621.53 1478.24H1620.53H1619.53C1619.53 1482.95 1617.92 1486.88 1615.24 1489.63C1612.57 1492.38 1608.77 1494.01 1604.28 1494.01V1495.01ZM1683.71 1529.46H1682.71C1682.71 1541.79 1673.91 1550.69 1661.74 1550.69V1551.69V1552.69C1675.04 1552.69 1684.71 1542.87 1684.71 1529.46H1683.71ZM1661.74 1551.69V1550.69C1649.56 1550.69 1640.77 1541.79 1640.77 1529.46H1639.77H1638.77C1638.77 1542.87 1648.43 1552.69 1661.74 1552.69V1551.69ZM1639.77 1529.46H1640.77C1640.77 1517.13 1649.56 1508.23 1661.74 1508.23V1507.23V1506.23C1648.43 1506.23 1638.77 1516.05 1638.77 1529.46H1639.77ZM1661.74 1507.23V1508.23C1673.91 1508.23 1682.71 1517.13 1682.71 1529.46H1683.71H1684.71C1684.71 1516.05 1675.04 1506.23 1661.74 1506.23V1507.23ZM1677.99 1529.46H1678.99C1678.99 1524.29 1677.25 1519.84 1674.19 1516.67C1671.12 1513.51 1666.79 1511.69 1661.74 1511.69V1512.69V1513.69C1666.3 1513.69 1670.09 1515.32 1672.75 1518.07C1675.41 1520.81 1676.99 1524.75 1676.99 1529.46H1677.99ZM1661.74 1512.69V1511.69C1656.68 1511.69 1652.35 1513.51 1649.29 1516.67C1646.22 1519.84 1644.49 1524.29 1644.49 1529.46H1645.49H1646.49C1646.49 1524.75 1648.07 1520.81 1650.72 1518.07C1653.38 1515.32 1657.17 1513.69 1661.74 1513.69V1512.69ZM1645.49 1529.46H1644.49C1644.49 1534.63 1646.26 1539.08 1649.34 1542.25C1652.41 1545.41 1656.74 1547.23 1661.74 1547.23V1546.23V1545.23C1657.24 1545.23 1653.44 1543.6 1650.77 1540.85C1648.09 1538.1 1646.49 1534.17 1646.49 1529.46H1645.49ZM1661.74 1546.23V1547.23C1666.73 1547.23 1671.06 1545.41 1674.14 1542.25C1677.21 1539.08 1678.99 1534.63 1678.99 1529.46H1677.99H1676.99C1676.99 1534.17 1675.38 1538.1 1672.7 1540.85C1670.03 1543.6 1666.23 1545.23 1661.74 1545.23V1546.23ZM1820.2 1503.85H1819.2C1819.2 1517.61 1814.76 1529.29 1807.23 1537.51C1799.71 1545.73 1789.06 1550.56 1776.52 1550.56V1551.56V1552.56C1789.6 1552.56 1800.79 1547.51 1808.7 1538.86C1816.61 1530.22 1821.2 1518.04 1821.2 1503.85H1820.2ZM1776.52 1551.56V1550.56C1763.99 1550.56 1753.37 1545.73 1745.88 1537.51C1738.39 1529.29 1733.97 1517.61 1733.97 1503.85H1732.97H1731.97C1731.97 1518.04 1736.53 1530.22 1744.41 1538.86C1752.29 1547.51 1763.45 1552.56 1776.52 1552.56V1551.56ZM1732.97 1503.85H1733.97C1733.97 1476.36 1751.68 1457.14 1776.52 1457.14V1456.14V1455.14C1750.41 1455.14 1731.97 1475.44 1731.97 1503.85H1732.97ZM1776.52 1456.14V1457.14C1789.06 1457.14 1799.71 1461.97 1807.23 1470.19C1814.76 1478.41 1819.2 1490.09 1819.2 1503.85H1820.2H1821.2C1821.2 1489.66 1816.61 1477.48 1808.7 1468.84C1800.79 1460.19 1789.6 1455.14 1776.52 1455.14V1456.14ZM1813.83 1503.85H1814.83C1814.83 1491.36 1810.93 1480.68 1804.16 1473.1C1797.39 1465.52 1787.78 1461.12 1776.52 1461.12V1462.12V1463.12C1787.23 1463.12 1796.29 1467.3 1802.67 1474.44C1809.06 1481.59 1812.83 1491.77 1812.83 1503.85H1813.83ZM1776.52 1462.12V1461.12C1765.33 1461.12 1755.76 1465.53 1749 1473.11C1742.24 1480.68 1738.34 1491.36 1738.34 1503.85H1739.34H1740.34C1740.34 1491.77 1744.11 1481.59 1750.49 1474.44C1756.86 1467.29 1765.88 1463.12 1776.52 1463.12V1462.12ZM1739.34 1503.85H1738.34C1738.34 1516.34 1742.24 1527.02 1749 1534.59C1755.76 1542.17 1765.33 1546.58 1776.52 1546.58V1545.58V1544.58C1765.88 1544.58 1756.86 1540.41 1750.49 1533.26C1744.11 1526.11 1740.34 1515.93 1740.34 1503.85H1739.34ZM1776.52 1545.58V1546.58C1787.78 1546.58 1797.39 1542.18 1804.16 1534.6C1810.93 1527.02 1814.83 1516.34 1814.83 1503.85H1813.83H1812.83C1812.83 1515.93 1809.06 1526.11 1802.67 1533.26C1796.29 1540.4 1787.23 1544.58 1776.52 1544.58V1545.58ZM1883.22 1508.14V1509.14H1884.22V1508.14H1883.22ZM1843.96 1508.14V1507.14H1842.96V1508.14H1843.96ZM1843.96 1550V1551H1844.96V1550H1843.96ZM1837.72 1550H1836.72V1551H1837.72V1550ZM1837.72 1457.7V1456.7H1836.72V1457.7H1837.72ZM1890.76 1457.7H1891.76V1456.7H1890.76V1457.7ZM1890.76 1463.42V1464.42H1891.76V1463.42H1890.76ZM1843.96 1463.42V1462.42H1842.96V1463.42H1843.96ZM1843.96 1502.42H1842.96V1503.42H1843.96V1502.42ZM1883.22 1502.42H1884.22V1501.42H1883.22V1502.42ZM1883.22 1508.14V1507.14H1843.96V1508.14V1509.14H1883.22V1508.14ZM1843.96 1508.14H1842.96V1550H1843.96H1844.96V1508.14H1843.96ZM1843.96 1550V1549H1837.72V1550V1551H1843.96V1550ZM1837.72 1550H1838.72V1457.7H1837.72H1836.72V1550H1837.72ZM1837.72 1457.7V1458.7H1890.76V1457.7V1456.7H1837.72V1457.7ZM1890.76 1457.7H1889.76V1463.42H1890.76H1891.76V1457.7H1890.76ZM1890.76 1463.42V1462.42H1843.96V1463.42V1464.42H1890.76V1463.42ZM1843.96 1463.42H1842.96V1502.42H1843.96H1844.96V1463.42H1843.96ZM1843.96 1502.42V1503.42H1883.22V1502.42V1501.42H1843.96V1502.42ZM1883.22 1502.42H1882.22V1508.14H1883.22H1884.22V1502.42H1883.22ZM1952.54 1508.14V1509.14H1953.54V1508.14H1952.54ZM1913.28 1508.14V1507.14H1912.28V1508.14H1913.28ZM1913.28 1550V1551H1914.28V1550H1913.28ZM1907.04 1550H1906.04V1551H1907.04V1550ZM1907.04 1457.7V1456.7H1906.04V1457.7H1907.04ZM1960.08 1457.7H1961.08V1456.7H1960.08V1457.7ZM1960.08 1463.42V1464.42H1961.08V1463.42H1960.08ZM1913.28 1463.42V1462.42H1912.28V1463.42H1913.28ZM1913.28 1502.42H1912.28V1503.42H1913.28V1502.42ZM1952.54 1502.42H1953.54V1501.42H1952.54V1502.42ZM1952.54 1508.14V1507.14H1913.28V1508.14V1509.14H1952.54V1508.14ZM1913.28 1508.14H1912.28V1550H1913.28H1914.28V1508.14H1913.28ZM1913.28 1550V1549H1907.04V1550V1551H1913.28V1550ZM1907.04 1550H1908.04V1457.7H1907.04H1906.04V1550H1907.04ZM1907.04 1457.7V1458.7H1960.08V1457.7V1456.7H1907.04V1457.7ZM1960.08 1457.7H1959.08V1463.42H1960.08H1961.08V1457.7H1960.08ZM1960.08 1463.42V1462.42H1913.28V1463.42V1464.42H1960.08V1463.42ZM1913.28 1463.42H1912.28V1502.42H1913.28H1914.28V1463.42H1913.28ZM1913.28 1502.42V1503.42H1952.54V1502.42V1501.42H1913.28V1502.42ZM1952.54 1502.42H1951.54V1508.14H1952.54H1953.54V1502.42H1952.54Z" fill="black" mask="url(#path-4-outside-2_4_30)"/>
<rect x="1000" width="1000" height="1000" fill="black"/>
<rect y="1000" width="1000" height="1000" fill="black"/>
</svg>
