<svg width="2841" height="1256" viewBox="-5 -5 2851 1266" fill="none" xmlns="http://www.w3.org/2000/svg">
<rect width="2839" height="1254" fill="white"/>
<circle cx="627" cy="627" r="624.5" stroke="black"/>
<path d="M11.75 224.25C11.75 192.25 38.25 170 76.75 170C113.75 170 137.25 190.5 138.25 223.5H106.25C105.5 207.75 94.25 198.5 76.25 198.5C56.5 198.5 43.75 208 43.75 223.25C43.75 236.25 50.75 243.5 66 247L94.75 253.25C126 260 141.25 276 141.25 303.25C141.25 337.25 114.75 359.25 74.5 359.25C35.5 359.25 10 338.5 9.25 305.75H41.25C41.5 321.25 54 330.5 74.5 330.5C95.75 330.5 109.25 321.25 109.25 306C109.25 293.75 103 286.5 88 283.25L59 276.75C28 270 11.75 252.25 11.75 224.25ZM185.949 356H152.699L218.699 173.25H251.449L317.449 356H283.699L268.949 313.75H200.699L185.949 356ZM230.949 227.75L210.199 286.75H259.699L238.699 227.75C237.199 223 235.449 217.5 234.949 213.75C234.199 217.25 232.699 222.75 230.949 227.75ZM372.365 173.25V326.5H448.865V356H340.365V173.25H372.365ZM588.387 356H474.887V173.25H588.387V202.75H506.887V249.75H579.887V278H506.887V326.5H588.387V356ZM641.58 268C630.58 268 621.33 259 621.33 248.25C621.33 237.25 630.58 228.25 641.58 228.25C652.58 228.25 661.83 237.25 661.83 248.25C661.83 259 652.58 268 641.58 268ZM641.58 359C630.58 359 621.33 350 621.33 339.25C621.33 328.25 630.58 319.25 641.58 319.25C652.58 319.25 661.83 328.25 661.83 339.25C661.83 350 652.58 359 641.58 359Z" fill="black"/>
<path d="M23.25 606.75V489.5H35.25V606.5C35.25 640 53.5 658.25 87 658.25C119.75 658.25 138 639.75 138 606.5V489.5H150V606.75C150 646.25 126.5 670 87 670C47 670 23.25 646.5 23.25 606.75ZM190.189 717.75V547H199.439L201.189 574C210.189 553.5 227.439 544 248.189 544C283.439 544 303.439 571.5 303.439 607C303.439 642.5 283.439 670 248.189 670C226.939 670 210.439 660.5 201.689 641V717.75H190.189ZM201.939 607C201.939 637.25 218.189 659.5 246.939 659.5C275.439 659.5 291.689 637.25 291.689 607C291.689 576.5 275.439 554.5 246.939 554.5C218.189 554.5 201.939 576.5 201.939 607ZM424.342 667H412.842V557H388.592V547H412.842V509H424.342V547H448.592V557H424.342V667ZM462.439 607C462.439 570.75 487.689 544 521.939 544C556.189 544 581.439 570.75 581.439 607C581.439 643.25 556.189 670 521.939 670C487.689 670 462.439 643.25 462.439 607ZM474.189 607C474.189 637.75 493.939 659.5 521.939 659.5C549.939 659.5 569.689 637.75 569.689 607C569.689 576.25 549.939 554.5 521.939 554.5C493.939 554.5 474.189 576.25 474.189 607ZM675.174 619.5C675.174 597.5 688.924 580 710.674 572.75C691.924 565.25 681.424 550.25 681.424 531.5C681.424 504.75 703.674 486.5 736.424 486.5C768.924 486.5 790.924 504.75 790.924 531.5C790.924 550.75 780.424 565.75 761.924 572.75C783.424 579 797.424 597 797.424 619.75C797.424 649.25 772.424 670 736.424 670C700.174 670 675.174 649.25 675.174 619.5ZM693.174 531C693.174 552.75 710.424 567.25 736.424 567.25C762.424 567.25 779.174 553.25 779.174 531.5C779.174 510.75 762.424 497.5 736.424 497.5C710.424 497.5 693.174 510.75 693.174 531ZM686.924 618.25C686.924 642.5 707.174 659 736.674 659C765.674 659 785.674 642.5 785.674 618.5C785.674 594.5 766.174 578.75 736.174 578.75C706.424 578.75 686.924 594.5 686.924 618.25ZM826.082 578.25C826.082 523 852.082 486.25 895.332 486.25C938.582 486.25 964.582 523 964.582 578.25C964.582 633.5 938.582 670.25 895.332 670.25C852.082 670.25 826.082 633.5 826.082 578.25ZM837.832 578.25C837.832 626.5 858.832 659 895.332 659C931.832 659 952.832 626.5 952.832 578.25C952.832 530 931.832 497.5 895.332 497.5C858.832 497.5 837.832 530 837.832 578.25ZM1077.54 529C1077.54 553.75 1059.79 571.75 1035.29 571.75C1010.79 571.75 993.039 553.75 993.039 529C993.039 504.25 1010.79 486.25 1035.29 486.25C1059.79 486.25 1077.54 504.25 1077.54 529ZM1164.29 489.5L1029.54 667H1016.54L1151.04 489.5H1164.29ZM1066.54 529C1066.54 510 1053.79 496.75 1035.29 496.75C1016.79 496.75 1004.04 510 1004.04 529C1004.04 548 1017.04 561.25 1035.29 561.25C1053.54 561.25 1066.54 548 1066.54 529ZM1188.04 627.5C1188.04 652.25 1170.29 670.25 1145.79 670.25C1121.29 670.25 1103.54 652.25 1103.54 627.5C1103.54 602.75 1121.29 584.75 1145.79 584.75C1170.29 584.75 1188.04 602.75 1188.04 627.5ZM1177.04 627.5C1177.04 608.5 1164.29 595.25 1145.79 595.25C1127.29 595.25 1114.54 608.5 1114.54 627.5C1114.54 646.5 1127.54 659.75 1145.79 659.75C1164.04 659.75 1177.04 646.5 1177.04 627.5ZM1450.53 578.25C1450.53 632 1415.78 670 1366.53 670C1317.28 670 1282.78 632 1282.78 578.25C1282.78 524.5 1317.53 486.5 1366.53 486.5C1415.78 486.5 1450.53 524.5 1450.53 578.25ZM1438.28 578.25C1438.28 531 1408.78 498 1366.53 498C1324.53 498 1295.03 531 1295.03 578.25C1295.03 625.5 1324.53 658.5 1366.53 658.5C1408.78 658.5 1438.28 625.5 1438.28 578.25ZM1571.72 586.5H1496.22V667H1484.22V489.5H1586.22V500.5H1496.22V575.5H1571.72V586.5ZM1705.02 586.5H1629.52V667H1617.52V489.5H1719.52V500.5H1629.52V575.5H1705.02V586.5Z" fill="black"/>
<path d="M2292.7 1235H2285.5V1128.5H2324.8C2345.05 1128.5 2357.8 1140.2 2357.8 1158.35C2357.8 1173.95 2349.1 1185.05 2334.85 1188.05L2358.7 1235H2350.6L2327.35 1188.95H2292.7V1235ZM2292.7 1135.1V1182.35H2325.1C2341.15 1182.35 2350.45 1173.35 2350.45 1158.65C2350.45 1143.5 2340.4 1135.1 2324.8 1135.1H2292.7ZM2442.24 1235H2379.54V1128.5H2442.09V1135.1H2386.74V1178.3H2437.14V1184.9H2386.74V1228.4H2442.24V1235ZM2493.75 1235L2452.8 1128.5H2460.45L2491.2 1208.15C2493.45 1213.85 2495.55 1219.4 2497.8 1226.3C2500.05 1219.25 2502.9 1211.45 2504.25 1208L2534.85 1128.5H2542.2L2501.4 1235H2493.75ZM2619.93 1235H2557.23V1128.5H2619.78V1135.1H2564.43V1178.3H2614.83V1184.9H2564.43V1228.4H2619.93V1235ZM2630.48 1135.1V1128.5H2704.58V1135.1H2671.13V1235H2663.93V1135.1H2630.48ZM2726.73 1128.5V1235H2719.53V1128.5H2726.73ZM2760.86 1235H2753.66V1128.5H2792.96C2813.21 1128.5 2825.96 1140.2 2825.96 1158.35C2825.96 1173.95 2817.26 1185.05 2803.01 1188.05L2826.86 1235H2818.76L2795.51 1188.95H2760.86V1235ZM2760.86 1135.1V1182.35H2793.26C2809.31 1182.35 2818.61 1173.35 2818.61 1158.65C2818.61 1143.5 2808.56 1135.1 2792.96 1135.1H2760.86Z" fill="black"/>
<mask id="path-5-inside-1_0_1" fill="white">
<path d="M2176.88 0.146484L2489.84 191.463L2837.28 402.719L2838 403.156V828.623L2839 1253L2839 1254H0V0H2176.64L2176.88 0.146484ZM4 1250H2835V404.843L2718.91 334.256L2175.52 4H4V1250Z"/>
</mask>
<path d="M2176.88 0.146484L2177.93 -1.55992L2177.93 -1.56111L2176.88 0.146484ZM2489.84 191.463L2488.8 193.169L2488.8 193.172L2489.84 191.463ZM2837.28 402.719L2836.24 404.428L2836.24 404.428L2837.28 402.719ZM2838 403.156H2840V402.031L2839.04 401.447L2838 403.156ZM2838 828.623H2836L2836 828.628L2838 828.623ZM2839 1253L2837 1253L2837 1253L2839 1253ZM2839 1254V1256H2841.01L2841 1253.99L2839 1254ZM0 1254H-2V1256H0V1254ZM0 0V-2H-2V0H0ZM2176.64 0L2177.68 -1.70759L2177.21 -2H2176.64V0ZM4 1250H2V1252H4V1250ZM2835 1250V1252H2837V1250H2835ZM2835 404.843H2837V403.718L2836.04 403.134L2835 404.843ZM2718.91 334.256L2719.95 332.547L2719.95 332.547L2718.91 334.256ZM2175.52 4L2176.56 2.2909L2176.08 2H2175.52V4ZM4 4V2H2V4H4ZM2176.88 0.146484L2175.84 1.85289L2488.8 193.169L2489.84 191.463L2490.88 189.756L2177.93 -1.55992L2176.88 0.146484ZM2489.84 191.463L2488.8 193.172L2836.24 404.428L2837.28 402.719L2838.32 401.01L2490.88 189.754L2489.84 191.463ZM2837.28 402.719L2836.24 404.428L2836.96 404.866L2838 403.156L2839.04 401.447L2838.32 401.009L2837.28 402.719ZM2838 403.156H2836V828.623H2838H2840V403.156H2838ZM2838 828.623L2836 828.628L2837 1253L2839 1253L2841 1252.99L2840 828.618L2838 828.623ZM2839 1253L2837 1253L2837 1254.01L2839 1254L2841 1253.99L2841 1252.99L2839 1253ZM2839 1254V1252H0V1254V1256H2839V1254ZM0 1254H2V0H0H-2V1254H0ZM0 0V2H2176.64V0V-2H0V0ZM2176.64 0L2175.6 1.70759L2175.84 1.85408L2176.88 0.146484L2177.93 -1.56111L2177.68 -1.70759L2176.64 0ZM4 1250V1252H2835V1250V1248H4V1250ZM2835 1250H2837V404.843H2835H2833V1250H2835ZM2835 404.843L2836.04 403.134L2719.95 332.547L2718.91 334.256L2717.87 335.965L2833.96 406.552L2835 404.843ZM2718.91 334.256L2719.95 332.547L2176.56 2.2909L2175.52 4L2174.48 5.7091L2717.87 335.965L2718.91 334.256ZM2175.52 4V2H4V4V6H2175.52V4ZM4 4H2V1250H4H6V4H4Z" fill="black" mask="url(#path-5-inside-1_0_1)"/>
</svg>
