<svg width="609" height="248" viewBox="0 0 609 248" fill="none" xmlns="http://www.w3.org/2000/svg">
<path d="M19.1366 169H18.4317V159H22.2792C24.2617 159 25.5099 160.099 25.5099 161.803C25.5099 163.268 24.6582 164.31 23.2631 164.592L25.598 169H24.805L22.5289 164.676H19.1366V169ZM19.1366 159.62V164.056H22.3086C23.8799 164.056 24.7904 163.211 24.7904 161.831C24.7904 160.408 23.8065 159.62 22.2792 159.62H19.1366ZM33.777 169H27.6386V159H33.7623V159.62H28.3435V163.676H33.2777V164.296H28.3435V168.38H33.777V169ZM38.8193 169L34.8102 159H35.5592L38.5696 166.479C38.7899 167.014 38.9955 167.535 39.2158 168.183C39.436 167.521 39.7151 166.789 39.8472 166.465L42.843 159H43.5626L39.5682 169H38.8193ZM51.1725 169H45.0342V159H51.1579V159.62H45.739V163.676H50.6732V164.296H45.739V168.38H51.1725V169ZM52.2058 159.62V159H59.4602V159.62H56.1855V169H55.4806V159.62H52.2058ZM61.6288 159V169H60.9239V159H61.6288ZM64.9702 169H64.2654V159H68.1129C70.0954 159 71.3436 160.099 71.3436 161.803C71.3436 163.268 70.4919 164.31 69.0968 164.592L71.4317 169H70.6387L68.3625 164.676H64.9702V169ZM64.9702 159.62V164.056H68.1422C69.7135 164.056 70.624 163.211 70.624 161.831C70.624 160.408 69.6401 159.62 68.1129 159.62H64.9702Z" fill="black"/>
<path d="M222.432 34.5L327.932 91L451.432 138L492.432 120.5" stroke="black"/>
<path d="M74.4317 56C107.9 87.0973 144.12 82.9684 178.932 55.5" stroke="black"/>
<path d="M287.932 69L183.932 194.5" stroke="black"/>
<path d="M328.932 91.5L265.432 202.5" stroke="black"/>
<path d="M0.931626 175.5C0.903697 104.018 13.4744 75.4022 29.4316 23C48.1501 21.2739 56.6133 24.6579 69.9316 34.5L79.9316 82.5C112.112 109.82 157.361 91.6892 182.932 64C157.319 10.4468 217.154 0.5 257.932 0.5L492.932 120.5C525.391 124.487 596.015 125.54 598.932 170C412.877 242.393 193.113 189.789 0.931626 175.5Z" stroke="black"/>
<path d="M0.931702 176C-0.379977 209.331 0.599094 225.054 13.9317 237C208.654 240.568 417.669 270.83 604.432 202.5C606.895 198.39 613.528 162.791 598.932 170" stroke="black"/>
</svg>
