<svg width="482" height="521" viewBox="0 0 482 521" fill="none" xmlns="http://www.w3.org/2000/svg">
<path d="M476.682 514.682L294.182 514.682M476.682 51.6823L294.182 51.6822" stroke="#828282" stroke-dasharray="2 2"/>
<path d="M104.182 5.68201L104.182 92.682" stroke="#828282" stroke-dasharray="2 2"/>
<path d="M379.682 5.68201L379.682 92.682" stroke="#828282" stroke-dasharray="2 2"/>
<line x1="95.0514" y1="95.682" x2="5.05138" y2="95.682" stroke="#828282" stroke-dasharray="2 2"/>
<line x1="49.682" y1="222.682" x2="4.68198" y2="222.682" stroke="#828282" stroke-dasharray="2 2"/>
<path d="M478.036 513.035C477.84 513.231 477.524 513.231 477.328 513.035L474.146 509.853C473.951 509.658 473.951 509.342 474.146 509.146C474.342 508.951 474.658 508.951 474.854 509.146L477.682 511.975L480.51 509.146C480.706 508.951 481.022 508.951 481.217 509.146C481.413 509.342 481.413 509.658 481.217 509.853L478.036 513.035ZM477.682 53.682L478.182 53.682L478.182 512.682L477.682 512.682L477.182 512.682L477.182 53.682L477.682 53.682Z" fill="#828282"/>
<path d="M478.036 53.3286C477.84 53.1333 477.524 53.1333 477.328 53.3286L474.146 56.5105C473.951 56.7058 473.951 57.0224 474.146 57.2176C474.342 57.4129 474.658 57.4129 474.854 57.2176L477.682 54.3892L480.51 57.2176C480.706 57.4129 481.022 57.4129 481.218 57.2176C481.413 57.0224 481.413 56.7058 481.218 56.5105L478.036 53.3286ZM477.682 512.682L478.182 512.682L478.182 53.6821L477.682 53.6821L477.182 53.6821L477.182 512.682L477.682 512.682Z" fill="#828282"/>
<path d="M3.32843 220.036C3.52369 220.231 3.84027 220.231 4.03553 220.036L7.21751 216.854C7.41277 216.658 7.41277 216.342 7.21751 216.146C7.02225 215.951 6.70567 215.951 6.51041 216.146L3.68198 218.975L0.853552 216.146C0.65829 215.951 0.341707 215.951 0.146445 216.146C-0.0488173 216.342 -0.0488174 216.658 0.146445 216.854L3.32843 220.036ZM3.68198 97.6829L3.18198 97.6829L3.18198 219.682L3.68198 219.682L4.18198 219.682L4.18198 97.6829L3.68198 97.6829Z" fill="#828282"/>
<path d="M3.32844 97.3285C3.5237 97.1332 3.84028 97.1332 4.03554 97.3285L7.21752 100.51C7.41279 100.706 7.41279 101.022 7.21752 101.218C7.02226 101.413 6.70568 101.413 6.51042 101.218L3.68199 98.3891L0.853563 101.218C0.658301 101.413 0.341718 101.413 0.146456 101.218C-0.048806 101.022 -0.0488059 100.706 0.146456 100.51L3.32844 97.3285ZM3.68199 219.682L3.18199 219.682L3.18199 97.682L3.68199 97.682L4.18199 97.682L4.18199 219.682L3.68199 219.682Z" fill="#828282"/>
<path d="M105.328 4.03553C105.133 3.84027 105.133 3.52369 105.328 3.32843L108.51 0.146446C108.706 -0.0488163 109.022 -0.0488163 109.218 0.146446C109.413 0.341708 109.413 0.658291 109.218 0.853553L106.389 3.68198L109.218 6.51041C109.413 6.70567 109.413 7.02225 109.218 7.21751C109.022 7.41278 108.706 7.41278 108.51 7.21751L105.328 4.03553ZM377.682 3.68199L377.682 4.18199L105.682 4.18198L105.682 3.68198L105.682 3.18198L377.682 3.18199L377.682 3.68199Z" fill="#828282"/>
<path d="M378.035 4.03553C378.231 3.84027 378.231 3.52369 378.036 3.32843L374.854 0.146445C374.658 -0.0488175 374.342 -0.0488175 374.146 0.146445C373.951 0.341707 373.951 0.658289 374.146 0.853551L376.975 3.68198L374.146 6.51041C373.951 6.70567 373.951 7.02225 374.146 7.21751C374.342 7.41277 374.658 7.41277 374.853 7.21751L378.035 4.03553ZM105.682 3.68196L105.682 4.18196L377.682 4.18198L377.682 3.68198L377.682 3.18198L105.682 3.18196L105.682 3.68196Z" fill="#828282"/>
<path d="M126.328 212.036C126.133 211.84 126.133 211.524 126.328 211.328L129.51 208.146C129.706 207.951 130.022 207.951 130.218 208.146C130.413 208.342 130.413 208.658 130.218 208.854L127.389 211.682L130.218 214.51C130.413 214.706 130.413 215.022 130.218 215.218C130.022 215.413 129.706 215.413 129.51 215.218L126.328 212.036ZM356.682 211.682L356.682 212.182L126.682 212.182L126.682 211.682L126.682 211.182L356.682 211.182L356.682 211.682Z" fill="#828282"/>
<path d="M357.035 212.036C357.231 211.84 357.231 211.524 357.036 211.328L353.854 208.146C353.658 207.951 353.342 207.951 353.146 208.146C352.951 208.342 352.951 208.658 353.146 208.854L355.975 211.682L353.146 214.51C352.951 214.706 352.951 215.022 353.146 215.217C353.342 215.413 353.658 215.413 353.853 215.217L357.035 212.036ZM126.682 211.682L126.682 212.182L356.682 212.182L356.682 211.682L356.682 211.182L126.682 211.182L126.682 211.682Z" fill="#828282"/>
<path d="M125.182 161.182V483.182C163.218 512.865 191.174 518.312 245.682 520.182C295.15 518.108 320.571 511.582 358.682 483.182V161.182" stroke="black"/>
<path d="M380.182 92.182L294.682 51.682" stroke="black"/>
<path d="M241.182 84.182C227.102 94.3293 220.222 100.398 209.182 111.682C197.037 86.7987 166.28 32.7175 214.682 23.182C171.342 32.5935 230.283 75.4971 241.182 84.182Z" stroke="black"/>
<path d="M103.682 92.182C75.8975 132.174 71.6691 122.256 52.682 209.182L49.182 222.682L113.182 242.682L125.182 211.182V162.682C122.538 142.851 120.416 121.685 110.182 104.182L103.682 92.182Z" stroke="black"/>
<path d="M380.182 92.182C407.966 132.174 412.195 122.256 431.182 209.182L434.682 222.682L370.682 242.682L358.682 211.182V162.682C361.326 142.851 363.448 121.685 373.682 104.182L380.182 92.182Z" stroke="black"/>
<path d="M103.682 92.182L188.682 51.682" stroke="black"/>
<path d="M241.682 84.182C255.762 94.3293 262.642 100.398 273.682 111.682C285.827 86.7987 316.584 32.7175 268.182 23.182C311.522 32.5935 252.581 75.4971 241.682 84.182Z" stroke="black"/>
<path d="M214.449 23.182H268.682" stroke="black"/>
<path d="M205.682 51.682H277.182" stroke="black"/>
<path d="M293.201 179.682H292.682V171.682H295.513C296.972 171.682 297.89 172.561 297.89 173.924C297.89 175.096 297.264 175.93 296.237 176.155L297.955 179.682H297.372L295.697 176.223H293.201V179.682ZM293.201 172.178V175.727H295.535C296.691 175.727 297.361 175.051 297.361 173.947C297.361 172.809 296.637 172.178 295.513 172.178H293.201Z" fill="black"/>
<path d="M303.974 179.682H299.457V171.682H303.963V172.178H299.976V175.423H303.606V175.919H299.976V179.186H303.974V179.682Z" fill="black"/>
<path d="M307.684 179.682L304.734 171.682H305.285L307.5 177.665C307.663 178.093 307.814 178.51 307.976 179.028C308.138 178.499 308.343 177.913 308.441 177.654L310.645 171.682H311.174L308.235 179.682H307.684Z" fill="black"/>
<path d="M316.774 179.682H312.257V171.682H316.763V172.178H312.776V175.423H316.407V175.919H312.776V179.186H316.774V179.682Z" fill="black"/>
<path d="M317.535 172.178V171.682H322.873V172.178H320.463V179.682H319.944V172.178H317.535Z" fill="black"/>
<path d="M324.469 171.682V179.682H323.95V171.682H324.469Z" fill="black"/>
<path d="M326.927 179.682H326.409V171.682H329.24C330.699 171.682 331.617 172.561 331.617 173.924C331.617 175.096 330.99 175.93 329.964 176.155L331.682 179.682H331.098L329.424 176.223H326.927V179.682ZM326.927 172.178V175.727H329.261C330.418 175.727 331.088 175.051 331.088 173.947C331.088 172.809 330.364 172.178 329.24 172.178H326.927Z" fill="black"/>
<circle cx="242.182" cy="229.182" r="3.5" stroke="black"/>
<circle cx="242.182" cy="288.182" r="3.5" stroke="black"/>
<circle cx="242.182" cy="406.182" r="3.5" stroke="black"/>
<circle cx="242.182" cy="347.182" r="3.5" stroke="black"/>
<circle cx="242.182" cy="170.182" r="3.5" stroke="black"/>
<circle cx="242.182" cy="111.182" r="3.5" stroke="black"/>
<path d="M333.182 149.182V200.384L312.478 210.13L291.182 200.379V149.182H333.182Z" stroke="black"/>
<line x1="251.316" y1="91.182" x2="251.316" y2="520.182" stroke="black"/>
<line x1="232.182" y1="91.182" x2="232.182" y2="520.182" stroke="black"/>
</svg>
