<svg width="600" height="800" viewBox="0 0 600 800" fill="none" xmlns="http://www.w3.org/2000/svg">
<rect width="600" height="800" fill="white"/>
<path d="M92.5 615L92.5 592" stroke="#828282" stroke-dasharray="2 2"/>
<path d="M93.6465 615.646C93.4512 615.842 93.4512 616.158 93.6465 616.354L96.8284 619.536C97.0237 619.731 97.3403 619.731 97.5356 619.536C97.7308 619.34 97.7308 619.024 97.5356 618.828L94.7071 616L97.5356 613.172C97.7308 612.976 97.7308 612.66 97.5356 612.464C97.3403 612.269 97.0237 612.269 96.8284 612.464L93.6465 615.646ZM259 616V615.5L94 615.5V616V616.5L259 616.5V616Z" fill="#828282"/>
<path d="M259.354 615.646C259.549 615.842 259.549 616.158 259.354 616.354L256.172 619.536C255.976 619.731 255.66 619.731 255.464 619.536C255.269 619.34 255.269 619.024 255.464 618.828L258.293 616L255.464 613.172C255.269 612.976 255.269 612.66 255.464 612.464C255.66 612.269 255.976 612.269 256.172 612.464L259.354 615.646ZM94 616L94 615.5L259 615.5L259 616L259 616.5L94 616.5L94 616Z" fill="#828282"/>
<path d="M308.041 372.623C307.812 372.468 307.501 372.528 307.346 372.756L304.82 376.481C304.665 376.709 304.725 377.02 304.954 377.175C305.182 377.33 305.493 377.271 305.648 377.042L307.893 373.732L311.204 375.977C311.432 376.132 311.743 376.072 311.898 375.843C312.053 375.615 311.993 375.304 311.765 375.149L308.041 372.623ZM349.141 588.831L349.632 588.737L308.251 372.943L307.76 373.037L307.269 373.131L348.649 588.925L349.141 588.831Z" fill="#828282"/>
<path d="M348.86 589.245C349.088 589.4 349.399 589.34 349.554 589.112L352.08 585.387C352.235 585.159 352.176 584.848 351.947 584.693C351.718 584.538 351.408 584.598 351.253 584.826L349.007 588.137L345.697 585.891C345.468 585.736 345.157 585.796 345.002 586.025C344.847 586.253 344.907 586.564 345.136 586.719L348.86 589.245ZM307.76 373.037L307.269 373.131L348.65 588.925L349.141 588.831L349.632 588.737L308.251 372.943L307.76 373.037Z" fill="#828282"/>
<path d="M131.646 182.646C131.451 182.842 131.451 183.158 131.646 183.354L134.828 186.536C135.024 186.731 135.34 186.731 135.536 186.536C135.731 186.34 135.731 186.024 135.536 185.828L132.707 183L135.536 180.172C135.731 179.976 135.731 179.66 135.536 179.464C135.34 179.269 135.024 179.269 134.828 179.464L131.646 182.646ZM468 183V182.5L132 182.5V183V183.5L468 183.5V183Z" fill="#828282"/>
<path d="M468.354 182.646C468.549 182.842 468.549 183.158 468.354 183.354L465.172 186.536C464.976 186.731 464.66 186.731 464.464 186.536C464.269 186.34 464.269 186.024 464.464 185.828L467.293 183L464.464 180.172C464.269 179.976 464.269 179.66 464.464 179.464C464.66 179.269 464.976 179.269 465.172 179.464L468.354 182.646ZM132 183V182.5L468 182.5V183V183.5L132 183.5V183Z" fill="#828282"/>
<line x1="469.5" y1="214" x2="469.5" y2="185" stroke="#828282" stroke-dasharray="2 2"/>
<line x1="130.5" y1="213" x2="130.5" y2="184" stroke="#828282" stroke-dasharray="2 2"/>
<path d="M260.5 615L260.5 592" stroke="#828282" stroke-dasharray="2 2"/>
<path d="M531.354 214.646C531.158 214.451 530.842 214.451 530.646 214.646L527.464 217.828C527.269 218.024 527.269 218.34 527.464 218.536C527.66 218.731 527.976 218.731 528.172 218.536L531 215.707L533.828 218.536C534.024 218.731 534.34 218.731 534.536 218.536C534.731 218.34 534.731 218.024 534.536 217.828L531.354 214.646ZM531 369H531.5V215H531H530.5V369H531Z" fill="#828282"/>
<path d="M531.354 369.354C531.158 369.549 530.842 369.549 530.646 369.354L527.464 366.172C527.269 365.976 527.269 365.66 527.464 365.464C527.66 365.269 527.976 365.269 528.172 365.464L531 368.293L533.828 365.464C534.024 365.269 534.34 365.269 534.536 365.464C534.731 365.66 534.731 365.976 534.536 366.172L531.354 369.354ZM531 215L531.5 215L531.5 369L531 369L530.5 369L530.5 215L531 215Z" fill="#828282"/>
<line x1="299.5" y1="370.5" x2="530.5" y2="370.5" stroke="#828282" stroke-dasharray="2 2"/>
<line x1="469" y1="213.5" x2="530" y2="213.5" stroke="#828282" stroke-dasharray="2 2"/>
<path d="M168.071 235.16H167.312V223.8H171.452C173.585 223.8 174.928 225.048 174.928 226.984C174.928 228.648 174.012 229.832 172.511 230.152L175.023 235.16H174.17L171.721 230.248H168.071V235.16ZM168.071 224.504V229.544H171.484C173.174 229.544 174.154 228.584 174.154 227.016C174.154 225.4 173.095 224.504 171.452 224.504H168.071Z" fill="black"/>
<path d="M183.823 235.16H177.218V223.8H183.807V224.504H177.977V229.112H183.285V229.816H177.977V234.456H183.823V235.16Z" fill="black"/>
<path d="M189.248 235.16L184.934 223.8H185.74L188.979 232.296C189.216 232.904 189.437 233.496 189.674 234.232C189.911 233.48 190.212 232.648 190.354 232.28L193.577 223.8H194.351L190.054 235.16H189.248Z" fill="black"/>
<path d="M202.539 235.16H195.934V223.8H202.523V224.504H196.693V229.112H202.002V229.816H196.693V234.456H202.539V235.16Z" fill="black"/>
<path d="M203.651 224.504V223.8H211.456V224.504H207.932V235.16H207.174V224.504H203.651Z" fill="black"/>
<path d="M213.789 223.8V235.16H213.031V223.8H213.789Z" fill="black"/>
<path d="M217.384 235.16H216.626V223.8H220.765C222.898 223.8 224.241 225.048 224.241 226.984C224.241 228.648 223.325 229.832 221.824 230.152L224.336 235.16H223.483L221.034 230.248H217.384V235.16ZM217.384 224.504V229.544H220.797C222.488 229.544 223.467 228.584 223.467 227.016C223.467 225.4 222.409 224.504 220.765 224.504H217.384Z" fill="black"/>
<path d="M427 248C429.494 289.309 442.97 302.574 479.5 316" stroke="black"/>
<path d="M172.5 248C170.006 289.309 156.53 302.574 120 316" stroke="black"/>
<line x1="130.001" y1="212.5" x2="470.001" y2="213.506" stroke="black"/>
<line x1="130.498" y1="213.05" x2="92.4975" y2="593.05" stroke="black"/>
<line x1="92" y1="592.5" x2="261" y2="592.5" stroke="black"/>
<line x1="260.508" y1="592.913" x2="299.508" y2="370.913" stroke="black"/>
<line y1="-0.5" x2="381.895" y2="-0.5" transform="matrix(0.0995037 0.995037 0.995037 -0.0995037 470 213)" stroke="black"/>
<line y1="-0.5" x2="169" y2="-0.5" transform="matrix(-1 0 0 1 508 593)" stroke="black"/>
<line y1="-0.5" x2="225.4" y2="-0.5" transform="matrix(-0.173026 -0.984917 -0.984917 0.173026 339 593)" stroke="black"/>
<line x1="127" y1="247.5" x2="473" y2="247.5" stroke="black"/>
<circle cx="309" cy="229" r="4.5" fill="white" stroke="black"/>
<line x1="300" y1="371" x2="300" y2="213" stroke="black"/>
<line x1="320.5" y1="246.994" x2="321.494" y2="336.489" stroke="black"/>
<path d="M321.5 336C314.381 341.939 309.689 343.488 300 342.876" stroke="black"/>
</svg>
