<svg width="471" height="441" viewBox="0 0 471 441" fill="none" xmlns="http://www.w3.org/2000/svg">
<path d="M28.2184 435.682L28.2184 412.682" stroke="#828282" stroke-dasharray="2 2"/>
<path d="M4.71856 413.298L29.2221 413.182" stroke="#828282" stroke-dasharray="2 2"/>
<path d="M41.8419 32.6884L67.2236 33.2985" stroke="#828282" stroke-dasharray="2 2"/>
<path d="M29.3649 436.328C29.1696 436.524 29.1696 436.84 29.3649 437.036L32.5469 440.218C32.7421 440.413 33.0587 440.413 33.254 440.218C33.4492 440.022 33.4492 439.706 33.254 439.51L30.4256 436.682L33.254 433.854C33.4492 433.658 33.4492 433.342 33.254 433.146C33.0587 432.951 32.7421 432.951 32.5469 433.146L29.3649 436.328ZM194.718 436.682V436.182L29.7184 436.182V436.682V437.182L194.718 437.182V436.682Z" fill="#828282"/>
<path d="M195.072 436.328C195.267 436.524 195.267 436.84 195.072 437.036L191.89 440.218C191.695 440.413 191.378 440.413 191.183 440.218C190.988 440.022 190.988 439.706 191.183 439.51L194.011 436.682L191.183 433.854C190.988 433.658 190.988 433.342 191.183 433.146C191.378 432.951 191.695 432.951 191.89 433.146L195.072 436.328ZM29.7184 436.682L29.7184 436.182L194.718 436.182L194.718 436.682L194.718 437.182L29.7184 437.182L29.7184 436.682Z" fill="#828282"/>
<path d="M243.759 193.305C243.53 193.15 243.22 193.21 243.065 193.438L240.539 197.163C240.384 197.391 240.443 197.702 240.672 197.857C240.9 198.012 241.211 197.953 241.366 197.724L243.612 194.413L246.922 196.659C247.151 196.814 247.461 196.754 247.616 196.525C247.771 196.297 247.712 195.986 247.483 195.831L243.759 193.305ZM284.859 409.513L285.35 409.419L243.969 193.625L243.478 193.719L242.987 193.813L284.368 409.607L284.859 409.513Z" fill="#828282"/>
<path d="M284.818 409.89C285.047 410.045 285.358 409.985 285.513 409.757L288.039 406.032C288.194 405.804 288.134 405.493 287.906 405.338C287.677 405.183 287.366 405.243 287.211 405.471L284.966 408.782L281.655 406.536C281.427 406.381 281.116 406.441 280.961 406.67C280.806 406.898 280.866 407.209 281.094 407.364L284.818 409.89ZM243.718 193.682L243.227 193.776L284.608 409.57L285.099 409.476L285.59 409.382L244.209 193.588L243.718 193.682Z" fill="#828282"/>
<path d="M67.3649 3.32842C67.1696 3.52369 67.1696 3.84027 67.3649 4.03553L70.5469 7.21751C70.7421 7.41277 71.0587 7.41277 71.254 7.21751C71.4493 7.02225 71.4493 6.70567 71.254 6.5104L68.4256 3.68198L71.254 0.853549C71.4493 0.658287 71.4493 0.341705 71.254 0.146442C71.0587 -0.0488198 70.7421 -0.0488198 70.5469 0.146442L67.3649 3.32842ZM403.718 3.68198V3.18198L67.7185 3.18198V3.68198V4.18198L403.718 4.18198V3.68198Z" fill="#828282"/>
<path d="M404.072 3.32844C404.267 3.5237 404.267 3.84028 404.072 4.03554L400.89 7.21753C400.695 7.41279 400.378 7.41279 400.183 7.21753C399.988 7.02226 399.988 6.70568 400.183 6.51042L403.011 3.68199L400.183 0.853565C399.988 0.658302 399.988 0.34172 400.183 0.146458C400.378 -0.0488045 400.695 -0.0488045 400.89 0.146458L404.072 3.32844ZM67.7184 3.68199V3.18199L403.718 3.18199V3.68199V4.18199L67.7184 4.18199V3.68199Z" fill="#828282"/>
<line x1="405.218" y1="34.682" x2="405.218" y2="5.68198" stroke="#828282" stroke-dasharray="2 2"/>
<line x1="66.2184" y1="33.682" x2="66.2184" y2="4.68198" stroke="#828282" stroke-dasharray="2 2"/>
<path d="M196.218 435.682L196.218 412.682" stroke="#828282" stroke-dasharray="2 2"/>
<path d="M467.072 35.3284C466.877 35.1332 466.56 35.1332 466.365 35.3284L463.183 38.5104C462.988 38.7057 462.988 39.0223 463.183 39.2175C463.378 39.4128 463.695 39.4128 463.89 39.2175L466.718 36.3891L469.547 39.2175C469.742 39.4128 470.059 39.4128 470.254 39.2175C470.449 39.0223 470.449 38.7057 470.254 38.5104L467.072 35.3284ZM466.718 189.682H467.218V35.682H466.718H466.218V189.682H466.718Z" fill="#828282"/>
<path d="M467.072 190.036C466.877 190.231 466.56 190.231 466.365 190.036L463.183 186.854C462.988 186.658 462.988 186.342 463.183 186.146C463.378 185.951 463.695 185.951 463.89 186.146L466.718 188.975L469.547 186.146C469.742 185.951 470.059 185.951 470.254 186.146C470.449 186.342 470.449 186.658 470.254 186.854L467.072 190.036ZM466.718 35.682L467.218 35.682L467.218 189.682L466.718 189.682L466.218 189.682L466.218 35.682L466.718 35.682Z" fill="#828282"/>
<path d="M40.4014 33.2953C40.6149 33.1202 40.9299 33.1514 41.105 33.3649L43.9586 36.8445C44.1337 37.058 44.1025 37.3731 43.889 37.5482C43.6755 37.7233 43.3605 37.6921 43.1853 37.4786L40.6489 34.3856L37.5559 36.9221C37.3424 37.0972 37.0274 37.0661 36.8523 36.8525C36.6771 36.639 36.7083 36.324 36.9218 36.1489L40.4014 33.2953ZM3.35314 411.682L2.85556 411.633L40.2209 33.6328L40.7184 33.682L41.216 33.7312L3.85071 411.731L3.35314 411.682Z" fill="#828282"/>
<path d="M3.67017 412.069C3.4567 412.244 3.14171 412.212 2.96663 411.998L0.113398 408.513C-0.0616917 408.299 -0.0305788 407.984 0.182887 407.809C0.396357 407.634 0.711343 407.666 0.88643 407.88L3.42263 410.978L6.51477 408.447C6.72824 408.272 7.04322 408.304 7.21831 408.518C7.3934 408.732 7.36229 409.047 7.14882 409.222L3.67017 412.069ZM40.6331 34.1763L41.1306 34.2264L3.85062 411.732L3.35314 411.682L2.85566 411.632L40.1356 34.1261L40.6331 34.1763Z" fill="#828282"/>
<line x1="235.218" y1="191.182" x2="466.218" y2="191.182" stroke="#828282" stroke-dasharray="2 2"/>
<line x1="404.718" y1="34.182" x2="465.718" y2="34.182" stroke="#828282" stroke-dasharray="2 2"/>
<path d="M103.789 55.842H103.031V44.482H107.17C109.303 44.482 110.646 45.73 110.646 47.666C110.646 49.33 109.73 50.514 108.229 50.834L110.741 55.842H109.888L107.439 50.93H103.789V55.842ZM103.789 45.186V50.226H107.202C108.893 50.226 109.872 49.266 109.872 47.698C109.872 46.082 108.814 45.186 107.17 45.186H103.789Z" fill="black"/>
<path d="M119.541 55.842H112.937V44.482H119.525V45.186H113.695V49.794H119.004V50.498H113.695V55.138H119.541V55.842Z" fill="black"/>
<path d="M124.966 55.842L120.653 44.482H121.459L124.698 52.978C124.935 53.586 125.156 54.178 125.393 54.914C125.63 54.162 125.93 53.33 126.072 52.962L129.295 44.482H130.07L125.772 55.842H124.966Z" fill="black"/>
<path d="M138.257 55.842H131.653V44.482H138.242V45.186H132.411V49.794H137.72V50.498H132.411V55.138H138.257V55.842Z" fill="black"/>
<path d="M139.369 45.186V44.482H147.174V45.186H143.651V55.842H142.892V45.186H139.369Z" fill="black"/>
<path d="M149.507 44.482V55.842H148.749V44.482H149.507Z" fill="black"/>
<path d="M153.103 55.842H152.344V44.482H156.484C158.617 44.482 159.96 45.73 159.96 47.666C159.96 49.33 159.043 50.514 157.542 50.834L160.055 55.842H159.201L156.752 50.93H153.103V55.842ZM153.103 45.186V50.226H156.515C158.206 50.226 159.186 49.266 159.186 47.698C159.186 46.082 158.127 45.186 156.484 45.186H153.103Z" fill="black"/>
<path d="M362.718 68.682C365.212 109.991 378.688 123.256 415.218 136.682" stroke="black"/>
<path d="M108.218 68.682C105.725 109.991 92.2485 123.256 55.7184 136.682" stroke="black"/>
<line x1="65.7199" y1="33.182" x2="405.72" y2="34.1879" stroke="black"/>
<line x1="66.2159" y1="33.7317" x2="28.216" y2="413.732" stroke="black"/>
<line x1="27.7184" y1="413.182" x2="196.718" y2="413.182" stroke="black"/>
<line x1="196.226" y1="413.595" x2="235.226" y2="191.595" stroke="black"/>
<line y1="-0.5" x2="381.895" y2="-0.5" transform="matrix(0.0995037 0.995037 0.995037 -0.0995037 405.718 33.682)" stroke="black"/>
<line y1="-0.5" x2="169" y2="-0.5" transform="matrix(-1 0 0 1 443.718 413.682)" stroke="black"/>
<line y1="-0.5" x2="225.4" y2="-0.5" transform="matrix(-0.173026 -0.984917 -0.984917 0.173026 274.718 413.682)" stroke="black"/>
<line x1="62.7184" y1="68.182" x2="408.718" y2="68.182" stroke="black"/>
<circle cx="244.718" cy="49.682" r="4.5" fill="white" stroke="black"/>
<line x1="235.718" y1="191.682" x2="235.718" y2="33.682" stroke="black"/>
<line x1="256.218" y1="67.6764" x2="257.213" y2="157.171" stroke="black"/>
<path d="M257.218 156.682C250.099 162.621 245.408 164.17 235.718 163.558" stroke="black"/>
</svg>
