<svg width="512" height="512" viewBox="0 0 512 512" fill="none" xmlns="http://www.w3.org/2000/svg">
<rect width="512" height="512" fill="white"/>
<g clip-path="url(#clip0_0_1)">
<mask id="path-1-outside-1_0_1" maskUnits="userSpaceOnUse" x="231" y="29" width="55" height="91" fill="black">
<rect fill="white" x="231" y="29" width="55" height="91"/>
<path d="M257.817 98.0333H252.567V94.7667C252.567 85.7833 258.517 80.7667 265.167 75.75C271.583 70.85 277.767 65.8333 277.767 56.5C277.767 45.7667 270.067 37.0167 258.167 37.0167C247.317 37.0167 238.45 45.7667 238.45 56.5H233.083C233.083 42.7333 244.4 31.7667 258.167 31.7667C273.45 31.7667 283.133 42.85 283.133 56.5C283.133 68.4 275.55 74.35 268.55 79.6C261.783 84.6167 257.817 88.4667 257.817 94.7667V98.0333ZM255.717 117.633C252.1 117.633 249.183 114.717 249.183 111.217C249.183 107.717 252.1 104.8 255.717 104.8C259.1 104.8 262.017 107.717 262.017 111.217C262.017 114.717 259.1 117.633 255.717 117.633Z"/>
</mask>
<path d="M257.817 98.0333V100.033H259.817V98.0333H257.817ZM252.567 98.0333H250.567V100.033H252.567V98.0333ZM265.167 75.75L266.371 77.3467L266.38 77.3395L265.167 75.75ZM238.45 56.5V58.5H240.45V56.5H238.45ZM233.083 56.5H231.083V58.5H233.083V56.5ZM268.55 79.6L269.741 81.2066L269.75 81.2L268.55 79.6ZM257.817 98.0333V96.0333H252.567V98.0333V100.033H257.817V98.0333ZM252.567 98.0333H254.567V94.7667H252.567H250.567V98.0333H252.567ZM252.567 94.7667H254.567C254.567 86.875 259.67 82.4015 266.371 77.3466L265.167 75.75L263.962 74.1534C257.363 79.1318 250.567 84.6917 250.567 94.7667H252.567ZM265.167 75.75L266.38 77.3395C272.73 72.4911 279.767 66.9268 279.767 56.5H277.767H275.767C275.767 64.7398 270.437 69.2088 263.953 74.1605L265.167 75.75ZM277.767 56.5H279.767C279.767 44.726 271.234 35.0167 258.167 35.0167V37.0167V39.0167C268.899 39.0167 275.767 46.8073 275.767 56.5H277.767ZM258.167 37.0167V35.0167C246.235 35.0167 236.45 44.6389 236.45 56.5H238.45H240.45C240.45 46.8944 248.398 39.0167 258.167 39.0167V37.0167ZM238.45 56.5V54.5H233.083V56.5V58.5H238.45V56.5ZM233.083 56.5H235.083C235.083 43.8743 245.468 33.7667 258.167 33.7667V31.7667V29.7667C243.332 29.7667 231.083 41.5923 231.083 56.5H233.083ZM258.167 31.7667V33.7667C272.284 33.7667 281.133 43.8916 281.133 56.5H283.133H285.133C285.133 41.8084 274.616 29.7667 258.167 29.7667V31.7667ZM283.133 56.5H281.133C281.133 67.3181 274.377 72.73 267.35 78L268.55 79.6L269.75 81.2C276.723 75.97 285.133 69.4819 285.133 56.5H283.133ZM268.55 79.6L267.359 77.9934C260.627 82.9839 255.817 87.3731 255.817 94.7667H257.817H259.817C259.817 89.5602 262.939 86.2494 269.741 81.2066L268.55 79.6ZM257.817 94.7667H255.817V98.0333H257.817H259.817V94.7667H257.817ZM255.717 117.633V115.633C253.181 115.633 251.183 113.589 251.183 111.217H249.183H247.183C247.183 115.845 251.019 119.633 255.717 119.633V117.633ZM249.183 111.217H251.183C251.183 108.845 253.181 106.8 255.717 106.8V104.8V102.8C251.019 102.8 247.183 106.589 247.183 111.217H249.183ZM255.717 104.8V106.8C257.972 106.8 260.017 108.797 260.017 111.217H262.017H264.017C264.017 106.636 260.228 102.8 255.717 102.8V104.8ZM262.017 111.217H260.017C260.017 113.636 257.972 115.633 255.717 115.633V117.633V119.633C260.228 119.633 264.017 115.797 264.017 111.217H262.017Z" fill="black" mask="url(#path-1-outside-1_0_1)"/>
<mask id="path-3-inside-2_0_1" fill="white">
<path d="M262 197H386V488H262V197Z"/>
</mask>
<path d="M386 488V490H388V488H386ZM262 488H260V490H262V488ZM386 197H384V488H386H388V197H386ZM386 488V486H262V488V490H386V488ZM262 488H264V197H262H260V488H262Z" fill="black" mask="url(#path-3-inside-2_0_1)"/>
<path d="M385 200C385 187.852 383.291 175.822 377.007 164.599C370.724 153.375 361.514 143.177 349.903 134.587C338.293 125.997 324.51 119.183 309.34 114.534C294.17 109.885 279.42 107 263 107V200" stroke="black" stroke-width="2"/>
<mask id="path-6-inside-3_0_1" fill="white">
<path d="M249 197H125V488H249V197Z"/>
</mask>
<path d="M125 488V490H123V488H125ZM249 488H251V490H249V488ZM125 197H127V488H125H123V197H125ZM125 488V486H249V488V490H125V488ZM249 488H247V197H249H251V488H249Z" fill="black" mask="url(#path-6-inside-3_0_1)"/>
<path d="M126 200C126 187.852 127.709 175.822 133.993 164.599C140.276 153.375 149.486 143.177 161.097 134.587C172.707 125.997 186.49 119.183 201.66 114.534C216.83 109.885 231.58 107 248 107V200" stroke="black" stroke-width="2"/>
<g clip-path="url(#clip1_0_1)">
<path d="M360 195H286V210H360V195Z" fill="white"/>
<path d="M287.003 210H286.02V195H291.383C294.147 195 295.887 196.648 295.887 199.204C295.887 201.401 294.699 202.965 292.755 203.387L296.009 210H294.904L291.731 203.514H287.003V210ZM287.003 195.93V202.585H291.424C293.614 202.585 294.884 201.317 294.884 199.246C294.884 197.113 293.512 195.93 291.383 195.93H287.003ZM307.41 210H298.854V195H307.39V195.93H299.836V202.014H306.714V202.944H299.836V209.07H307.41V210ZM314.439 210L308.851 195H309.895L314.091 206.218C314.398 207.021 314.685 207.803 314.992 208.775C315.299 207.782 315.688 206.683 315.872 206.197L320.048 195H321.051L315.483 210H314.439ZM331.659 210H323.102V195H331.638V195.93H324.085V202.014H330.963V202.944H324.085V209.07H331.659V210ZM333.099 195.93V195H343.212V195.93H338.647V210H337.664V195.93H333.099ZM346.234 195V210H345.252V195H346.234ZM350.892 210H349.91V195H355.273C358.036 195 359.776 196.648 359.776 199.204C359.776 201.401 358.589 202.965 356.644 203.387L359.899 210H358.794L355.621 203.514H350.892V210ZM350.892 195.93V202.585H355.314C357.504 202.585 358.773 201.317 358.773 199.246C358.773 197.113 357.402 195.93 355.273 195.93H350.892Z" fill="black"/>
</g>
</g>
<defs>
<clipPath id="clip0_0_1">
<rect width="512" height="512" fill="white"/>
</clipPath>
<clipPath id="clip1_0_1">
<rect width="74" height="15" fill="white" transform="translate(286 195)"/>
</clipPath>
</defs>
</svg>
