<svg width="600" height="800" viewBox="0 0 600 800" fill="none" xmlns="http://www.w3.org/2000/svg">
<rect width="600" height="800" fill="#302F2F"/>
<rect width="600" height="800" fill="white"/>
<path d="M550 593.673L517.984 592.673" stroke="black"/>
<path d="M512.464 577.987C514.243 584.379 515.571 587.65 518.464 592.987" stroke="black"/>
<line x1="518.498" y1="593.123" x2="519.497" y2="603.123" stroke="black"/>
<line y1="-0.5" x2="10.0499" y2="-0.5" transform="matrix(-0.0995037 0.995037 0.995037 0.0995037 550 594.173)" stroke="black"/>
<path d="M515.5 364.349V226.5" stroke="#828282" stroke-dasharray="2 2"/>
<path d="M312.5 365.173L312.5 226.5" stroke="#828282" stroke-dasharray="2 2"/>
<path d="M313.084 364.666L25 417.173" stroke="black"/>
<path d="M312 577.673C391.679 583.898 436.13 583.876 515 577.673" stroke="black"/>
<path d="M513.354 365.027C513.549 364.831 513.549 364.515 513.354 364.32L510.172 361.138C509.976 360.942 509.66 360.942 509.464 361.138C509.269 361.333 509.269 361.649 509.464 361.845L512.293 364.673L509.464 367.502C509.269 367.697 509.269 368.013 509.464 368.209C509.66 368.404 509.976 368.404 510.172 368.209L513.354 365.027ZM314 364.673L314 365.173L513 365.173L513 364.673L513 364.173L314 364.173L314 364.673Z" fill="#828282"/>
<path d="M313.646 365.027C313.451 364.831 313.451 364.515 313.646 364.32L316.828 361.138C317.024 360.942 317.34 360.942 317.536 361.138C317.731 361.333 317.731 361.649 317.536 361.845L314.707 364.673L317.536 367.502C317.731 367.697 317.731 368.013 317.536 368.209C317.34 368.404 317.024 368.404 316.828 368.209L313.646 365.027ZM513 364.673L513 365.173L314 365.173L314 364.673L314 364.173L513 364.173L513 364.673Z" fill="#828282"/>
<path d="M568.354 258.646C568.158 258.451 567.842 258.451 567.646 258.646L564.464 261.828C564.269 262.024 564.269 262.34 564.464 262.536C564.66 262.731 564.976 262.731 565.172 262.536L568 259.707L570.828 262.536C571.024 262.731 571.34 262.731 571.536 262.536C571.731 262.34 571.731 262.024 571.536 261.828L568.354 258.646ZM568 580L568.5 580L568.5 259L568 259L567.5 259L567.5 580L568 580Z" fill="#828282"/>
<path d="M568.354 580.354C568.158 580.549 567.842 580.549 567.646 580.354L564.464 577.172C564.269 576.976 564.269 576.66 564.464 576.464C564.66 576.269 564.976 576.269 565.172 576.464L568 579.293L570.828 576.464C571.024 576.269 571.34 576.269 571.536 576.464C571.731 576.66 571.731 576.976 571.536 577.172L568.354 580.354ZM568 259L568.5 259L568.5 580L568 580L567.5 580L567.5 259L568 259Z" fill="#828282"/>
<path d="M514.354 225.354C514.549 225.158 514.549 224.842 514.354 224.646L511.172 221.464C510.976 221.269 510.66 221.269 510.464 221.464C510.269 221.66 510.269 221.976 510.464 222.172L513.293 225L510.464 227.828C510.269 228.024 510.269 228.34 510.464 228.536C510.66 228.731 510.976 228.731 511.172 228.536L514.354 225.354ZM315 225L315 225.5L514 225.5L514 225L514 224.5L315 224.5L315 225Z" fill="#828282"/>
<path d="M314.646 225.354C314.451 225.158 314.451 224.842 314.646 224.646L317.828 221.464C318.024 221.269 318.34 221.269 318.536 221.464C318.731 221.66 318.731 221.976 318.536 222.172L315.707 225L318.536 227.828C318.731 228.024 318.731 228.34 318.536 228.536C318.34 228.731 318.024 228.731 317.828 228.536L314.646 225.354ZM514 225L514 225.5L315 225.5L315 225L315 224.5L514 224.5L514 225Z" fill="#828282"/>
<path d="M305.462 249.192C305.568 248.937 305.447 248.645 305.192 248.538L301.038 246.808C300.783 246.702 300.49 246.823 300.384 247.078C300.278 247.333 300.399 247.625 300.654 247.732L304.346 249.269L302.808 252.962C302.702 253.217 302.823 253.51 303.078 253.616C303.333 253.722 303.625 253.601 303.731 253.346L305.462 249.192ZM4 373L4.19045 373.462L305.19 249.462L305 249L304.809 248.538L3.80955 372.538L4 373Z" fill="#828282"/>
<path d="M3.80785 373.462C3.55293 373.355 3.43234 373.063 3.53851 372.808L5.26858 368.654C5.37475 368.399 5.66746 368.278 5.92238 368.384C6.1773 368.49 6.29789 368.783 6.19172 369.038L4.65388 372.731L8.34644 374.268C8.60136 374.375 8.72195 374.667 8.61579 374.922C8.50962 375.177 8.2169 375.298 7.96198 375.192L3.80785 373.462ZM305 249L305.19 249.462L4.19053 373.462L4.00008 373L3.80962 372.538L304.81 248.538L305 249Z" fill="#828282"/>
<path d="M6.5 391.5L1 376.085" stroke="#828282" stroke-dasharray="2 2"/>
<path d="M313.5 264.573L308 249.159" stroke="#828282" stroke-dasharray="2 2"/>
<path d="M24.9292 417.637L15 387.183" stroke="black"/>
<line x1="25.0981" y1="417.163" x2="15.0981" y2="419.163" stroke="black"/>
<path d="M15.5 419.673L6 390.673" stroke="black"/>
<path d="M6 391.173L15 387.673" stroke="black"/>
<line y1="-0.5" x2="63.3482" y2="-0.5" transform="matrix(0.978717 -0.205215 -0.205215 -0.978717 313.1 263.173)" stroke="black"/>
<path d="M313.5 263.173C329.765 306.272 327.196 329.277 312.5 364.673" stroke="black"/>
<line x1="313.192" y1="263.635" x2="15.1921" y2="387.635" stroke="black"/>
<line x1="413" y1="256.5" x2="566" y2="256.5" stroke="#828282" stroke-dasharray="2 2"/>
<line x1="413" y1="581.5" x2="566" y2="581.5" stroke="#828282" stroke-dasharray="2 2"/>
<path d="M453 250.673C423.119 258.964 406.02 258.649 375 250.673" stroke="black"/>
<path d="M375 250.673C406.818 275.979 423.896 276.034 453 250.673" stroke="black"/>
<path d="M364 252.982C403.572 288.961 425.517 291.645 464 252.982" stroke="black"/>
<path d="M549.016 604.206L519 603.173" stroke="black"/>
<path d="M549.5 593.673C557.857 576.083 559.651 566.647 558.5 547.173C556.157 466.139 554.843 420.707 552.5 339.673C551.835 316.673 550.993 302.129 541 281.173C531.503 271.872 525.648 268.193 514.5 263.673C491.472 255.644 476.941 255.181 452.5 250.673" stroke="black"/>
<mask id="path-34-inside-1_0_1" fill="white">
<path d="M312 364.173H516V578.173H312V364.173Z"/>
</mask>
<path d="M516 364.173H515V578.173H516H517V364.173H516ZM312 578.173H313V364.173H312H311V578.173H312Z" fill="black" mask="url(#path-34-inside-1_0_1)"/>
<path d="M515.5 364.173C508.462 324.873 508.546 302.595 515.5 264.173" stroke="black"/>
<path d="M325.758 563.36H325V552H329.14C331.273 552 332.616 553.248 332.616 555.184C332.616 556.848 331.699 558.032 330.198 558.352L332.71 563.36H331.857L329.408 558.448H325.758V563.36ZM325.758 552.704V557.744H329.171C330.862 557.744 331.841 556.784 331.841 555.216C331.841 553.6 330.783 552.704 329.14 552.704H325.758Z" fill="black"/>
<path d="M341.51 563.36H334.906V552H341.494V552.704H335.664V557.312H340.973V558.016H335.664V562.656H341.51V563.36Z" fill="black"/>
<path d="M346.935 563.36L342.622 552H343.428L346.667 560.496C346.904 561.104 347.125 561.696 347.362 562.432C347.599 561.68 347.899 560.848 348.041 560.48L351.265 552H352.039L347.741 563.36H346.935Z" fill="black"/>
<path d="M360.226 563.36H353.622V552H360.211V552.704H354.38V557.312H359.689V558.016H354.38V562.656H360.226V563.36Z" fill="black"/>
<path d="M361.338 552.704V552H369.143V552.704H365.62V563.36H364.862V552.704H361.338Z" fill="black"/>
<path d="M371.477 552V563.36H370.718V552H371.477Z" fill="black"/>
<path d="M375.072 563.36H374.313V552H378.453C380.586 552 381.929 553.248 381.929 555.184C381.929 556.848 381.012 558.032 379.511 558.352L382.024 563.36H381.17L378.721 558.448H375.072V563.36ZM375.072 552.704V557.744H378.484C380.175 557.744 381.155 556.784 381.155 555.216C381.155 553.6 380.096 552.704 378.453 552.704H375.072Z" fill="black"/>
</svg>
