<svg width="573" height="435" viewBox="0 0 573 435" fill="none" xmlns="http://www.w3.org/2000/svg">
<path d="M529.786 421.757L493.479 420.623" stroke="black"/>
<path d="M487.22 403.97C489.237 411.217 490.743 414.927 494.024 420.98" stroke="black"/>
<line x1="493.995" y1="421.141" x2="495.129" y2="432.481" stroke="black"/>
<line y1="-0.5" x2="11.3966" y2="-0.5" transform="matrix(-0.0995037 0.995037 0.995037 0.0995037 529.786 422.324)" stroke="black"/>
<path d="M491.342 161.581V5.58091" stroke="#828282" stroke-dasharray="2 2"/>
<path d="M261.342 162.581V5.58091" stroke="#828282" stroke-dasharray="2 2"/>
<path d="M260.342 403.581C350.618 410.259 400.982 410.236 490.342 403.581" stroke="black"/>
<path d="M488.181 162.425C488.376 162.23 488.376 161.913 488.181 161.718L484.999 158.536C484.804 158.341 484.487 158.341 484.292 158.536C484.097 158.731 484.097 159.048 484.292 159.243L487.12 162.071L484.292 164.9C484.097 165.095 484.097 165.412 484.292 165.607C484.487 165.802 484.804 165.802 484.999 165.607L488.181 162.425ZM262.162 162.071L262.162 162.571L487.828 162.571L487.828 162.071L487.828 161.571L262.162 161.571L262.162 162.071Z" fill="#828282"/>
<path d="M261.808 162.425C261.613 162.23 261.613 161.913 261.808 161.718L264.99 158.536C265.185 158.341 265.502 158.341 265.697 158.536C265.892 158.731 265.892 159.048 265.697 159.243L262.869 162.071L265.697 164.9C265.892 165.095 265.892 165.412 265.697 165.607C265.502 165.802 265.185 165.802 264.99 165.607L261.808 162.425ZM487.828 162.071L487.828 162.571L262.162 162.571L262.162 162.071L262.162 161.571L487.828 161.571L487.828 162.071Z" fill="#828282"/>
<path d="M568.695 41.8845C568.5 41.6892 568.183 41.6892 567.988 41.8845L564.806 45.0665C564.611 45.2617 564.611 45.5783 564.806 45.7736C565.001 45.9688 565.318 45.9688 565.513 45.7736L568.342 42.9451L571.17 45.7736C571.365 45.9688 571.682 45.9688 571.877 45.7736C572.072 45.5783 572.072 45.2617 571.877 45.0665L568.695 41.8845ZM568.342 406.252L568.842 406.252L568.842 42.238L568.342 42.238L567.842 42.238L567.842 406.252L568.342 406.252Z" fill="#828282"/>
<path d="M568.695 406.606C568.5 406.801 568.183 406.801 567.988 406.606L564.806 403.424C564.611 403.228 564.611 402.912 564.806 402.716C565.001 402.521 565.318 402.521 565.513 402.716L568.342 405.545L571.17 402.716C571.365 402.521 571.682 402.521 571.877 402.716C572.072 402.912 572.072 403.228 571.877 403.424L568.695 406.606ZM568.342 42.238L568.842 42.238L568.842 406.252L568.342 406.252L567.842 406.252L567.842 42.238L568.342 42.238Z" fill="#828282"/>
<path d="M489.315 4.03556C489.51 3.8403 489.51 3.52372 489.315 3.32845L486.133 0.146473C485.938 -0.0487892 485.621 -0.0487892 485.426 0.146473C485.231 0.341735 485.231 0.658318 485.426 0.85358L488.254 3.68201L485.426 6.51043C485.231 6.7057 485.231 7.02228 485.426 7.21754C485.621 7.4128 485.938 7.4128 486.133 7.21754L489.315 4.03556ZM263.296 3.68201L263.296 4.18201L488.962 4.18201L488.962 3.68201L488.962 3.18201L263.296 3.18201L263.296 3.68201Z" fill="#828282"/>
<path d="M262.942 4.03553C262.747 3.84027 262.747 3.52369 262.942 3.32843L266.124 0.146446C266.319 -0.0488162 266.636 -0.0488163 266.831 0.146446C267.026 0.341708 267.026 0.65829 266.831 0.853553L264.003 3.68198L266.831 6.51041C267.026 6.70567 267.026 7.02225 266.831 7.21751C266.636 7.41278 266.319 7.41278 266.124 7.21751L262.942 4.03553ZM488.962 3.68187L488.962 4.18187L263.296 4.18198L263.296 3.68198L263.296 3.18198L488.962 3.18187L488.962 3.68187Z" fill="#828282"/>
<path d="M0.850514 370.057C0.902148 370.329 1.16392 370.507 1.4352 370.455L5.8558 369.613C6.12707 369.562 6.30511 369.3 6.25346 369.029C6.20183 368.757 5.94005 368.579 5.66877 368.631L1.73935 369.379L0.991263 365.45C0.939629 365.178 0.677855 365 0.406574 365.052C0.13531 365.104 -0.0427358 365.366 0.00891481 365.637L0.850514 370.057ZM230.41 33.166L229.996 32.8848L0.928251 369.683L1.34169 369.964L1.75513 370.245L230.823 33.4472L230.41 33.166Z" fill="#828282"/>
<path d="M230.316 32.675C230.587 32.6233 230.849 32.8013 230.901 33.0726L231.742 37.4932C231.794 37.7645 231.616 38.0263 231.345 38.0779C231.073 38.1296 230.812 37.9515 230.76 37.6802L230.012 33.7508L226.082 34.4989C225.811 34.5506 225.549 34.3725 225.498 34.1012C225.446 33.83 225.624 33.5682 225.895 33.5166L230.316 32.675ZM1.34173 369.964L0.928297 369.683L229.996 32.8849L230.41 33.1661L230.823 33.4473L1.75517 370.245L1.34173 369.964Z" fill="#828282"/>
<path d="M31.0367 391.06L3.03191 374.435" stroke="#828282" stroke-dasharray="2 2"/>
<path d="M65.8646 400.31L34.8903 381.335" stroke="black"/>
<line x1="65.6092" y1="399.735" x2="58.4514" y2="408.818" stroke="black"/>
<path d="M59.2258 409.004L29.6916 390.969" stroke="black"/>
<path d="M30.0595 391.4L35.2508 381.758" stroke="black"/>
<line x1="374.342" y1="39.0809" x2="566.342" y2="39.0809" stroke="#828282" stroke-dasharray="2 2"/>
<line x1="374.342" y1="407.081" x2="566.342" y2="407.081" stroke="#828282" stroke-dasharray="2 2"/>
<path d="M419.342 32.5811C385.63 42.0939 366.338 41.7327 331.342 32.5809" stroke="black"/>
<path d="M331.342 32.5809C367.239 61.8824 386.506 61.9461 419.342 32.5809" stroke="black"/>
<path d="M318.342 34.5809C363.454 76.9851 388.471 80.1483 432.342 34.5809" stroke="black"/>
<path d="M528.67 433.701L494.632 432.53" stroke="black"/>
<path d="M529.741 421.581C539.252 401.631 541.294 390.93 539.984 368.845C537.317 276.943 535.822 225.418 533.155 133.517C532.398 107.432 531.44 90.9374 520.066 67.1713C509.257 56.6223 502.593 52.4505 489.906 47.3243C463.697 38.2182 447.159 37.6928 419.342 32.5809" stroke="black"/>
<mask id="path-28-inside-1_20_2" fill="white">
<path d="M260.342 161.581H491.342V404.581H260.342V161.581Z"/>
</mask>
<path d="M491.342 161.581H490.342V404.581H491.342H492.342V161.581H491.342ZM260.342 404.581H261.342V161.581H260.342H259.342V404.581H260.342Z" fill="black" mask="url(#path-28-inside-1_20_2)"/>
<path d="M490.663 161.504C482.681 116.938 482.776 91.6742 490.663 48.1045" stroke="black"/>
<path d="M275.206 387.581H274.342V374.581H279.06C281.492 374.581 283.022 376.009 283.022 378.225C283.022 380.129 281.978 381.484 280.267 381.85L283.131 387.581H282.158L279.366 381.96H275.206V387.581ZM275.206 375.387V381.154H279.096C281.023 381.154 282.14 380.056 282.14 378.261C282.14 376.412 280.933 375.387 279.06 375.387H275.206Z" fill="black"/>
<path d="M293.161 387.581H285.633V374.581H293.143V375.387H286.498V380.66H292.549V381.465H286.498V386.775H293.161V387.581Z" fill="black"/>
<path d="M299.345 387.581L294.428 374.581H295.347L299.039 384.303C299.309 384.999 299.561 385.677 299.831 386.519C300.102 385.658 300.444 384.706 300.606 384.285L304.28 374.581H305.162L300.264 387.581H299.345Z" fill="black"/>
<path d="M314.495 387.581H306.967V374.581H314.477V375.387H307.832V380.66H313.883V381.465H307.832V386.775H314.495V387.581Z" fill="black"/>
<path d="M315.763 375.387V374.581H324.66V375.387H320.643V387.581H319.779V375.387H315.763Z" fill="black"/>
<path d="M327.319 374.581V387.581H326.455V374.581H327.319Z" fill="black"/>
<path d="M331.417 387.581H330.553V374.581H335.271C337.703 374.581 339.234 376.009 339.234 378.225C339.234 380.129 338.189 381.484 336.478 381.85L339.342 387.581H338.369L335.578 381.96H331.417V387.581ZM331.417 375.387V381.154H335.307C337.234 381.154 338.351 380.056 338.351 378.261C338.351 376.412 337.144 375.387 335.271 375.387H331.417Z" fill="black"/>
<path d="M261.816 48.023L233.812 31.3984" stroke="#828282" stroke-dasharray="2 2"/>
<path d="M260.663 161.697L65.4126 400.015" stroke="black"/>
<line y1="-0.5" x2="71.8369" y2="-0.5" transform="matrix(0.978717 -0.205215 -0.205215 -0.978717 261.141 46.9704)" stroke="black"/>
<path d="M262.412 46.5809C279.816 95.8367 277.067 122.128 261.342 162.581" stroke="black"/>
<path d="M261.595 47.341L34.994 382.178" stroke="black"/>
</svg>
