<svg width="600" height="800" viewBox="0 0 600 800" fill="none" xmlns="http://www.w3.org/2000/svg">
<rect width="600" height="800" fill="#302F2F"/>
<rect width="600" height="800" fill="white"/>
<path d="M471 578.673L438.984 577.673" stroke="black"/>
<path d="M433.464 562.987C435.243 569.379 436.571 572.65 439.464 577.987" stroke="black"/>
<line x1="439.498" y1="578.123" x2="440.498" y2="588.123" stroke="black"/>
<line y1="-0.5" x2="10.0499" y2="-0.5" transform="matrix(-0.0995037 0.995037 0.995037 0.0995037 471 579.173)" stroke="black"/>
<path d="M436.5 349.349V211.5" stroke="#828282" stroke-dasharray="2 2"/>
<path d="M233.5 350.173L233.5 211.5" stroke="#828282" stroke-dasharray="2 2"/>
<path d="M233 562.673C312.679 568.898 357.13 568.876 436 562.673" stroke="black"/>
<path d="M434.354 350.027C434.549 349.831 434.549 349.515 434.354 349.32L431.172 346.138C430.976 345.942 430.66 345.942 430.464 346.138C430.269 346.333 430.269 346.649 430.464 346.845L433.293 349.673L430.464 352.502C430.269 352.697 430.269 353.013 430.464 353.209C430.66 353.404 430.976 353.404 431.172 353.209L434.354 350.027ZM235 349.673L235 350.173L434 350.173L434 349.673L434 349.173L235 349.173L235 349.673Z" fill="#828282"/>
<path d="M234.646 350.027C234.451 349.831 234.451 349.515 234.646 349.32L237.828 346.138C238.024 345.942 238.34 345.942 238.536 346.138C238.731 346.333 238.731 346.649 238.536 346.845L235.707 349.673L238.536 352.502C238.731 352.697 238.731 353.013 238.536 353.209C238.34 353.404 238.024 353.404 237.828 353.209L234.646 350.027ZM434 349.673L434 350.173L235 350.173L235 349.673L235 349.173L434 349.173L434 349.673Z" fill="#828282"/>
<path d="M505.354 243.646C505.158 243.451 504.842 243.451 504.646 243.646L501.464 246.828C501.269 247.024 501.269 247.34 501.464 247.536C501.66 247.731 501.976 247.731 502.172 247.536L505 244.707L507.828 247.536C508.024 247.731 508.34 247.731 508.536 247.536C508.731 247.34 508.731 247.024 508.536 246.828L505.354 243.646ZM505 565L505.5 565L505.5 244L505 244L504.5 244L504.5 565L505 565Z" fill="#828282"/>
<path d="M505.354 565.354C505.158 565.549 504.842 565.549 504.646 565.354L501.464 562.172C501.269 561.976 501.269 561.66 501.464 561.464C501.66 561.269 501.976 561.269 502.172 561.464L505 564.293L507.828 561.464C508.024 561.269 508.34 561.269 508.536 561.464C508.731 561.66 508.731 561.976 508.536 562.172L505.354 565.354ZM505 244L505.5 244L505.5 565L505 565L504.5 565L504.5 244L505 244Z" fill="#828282"/>
<path d="M435.354 210.354C435.549 210.158 435.549 209.842 435.354 209.646L432.172 206.464C431.976 206.269 431.66 206.269 431.464 206.464C431.269 206.66 431.269 206.976 431.464 207.172L434.293 210L431.464 212.828C431.269 213.024 431.269 213.34 431.464 213.536C431.66 213.731 431.976 213.731 432.172 213.536L435.354 210.354ZM236 210L236 210.5L435 210.5L435 210L435 209.5L236 209.5L236 210Z" fill="#828282"/>
<path d="M235.646 210.354C235.451 210.158 235.451 209.842 235.646 209.646L238.828 206.464C239.024 206.269 239.34 206.269 239.536 206.464C239.731 206.66 239.731 206.976 239.536 207.172L236.707 210L239.536 212.828C239.731 213.024 239.731 213.34 239.536 213.536C239.34 213.731 239.024 213.731 238.828 213.536L235.646 210.354ZM435 210L435 210.5L236 210.5L236 210L236 209.5L435 209.5L435 210Z" fill="#828282"/>
<path d="M4.50888 533.093C4.56052 533.365 4.8223 533.543 5.09357 533.491L9.51417 532.649C9.78544 532.598 9.96348 532.336 9.91184 532.065C9.86019 531.794 9.59842 531.615 9.32715 531.667L5.39772 532.415L4.64964 528.486C4.59799 528.215 4.33622 528.036 4.06495 528.088C3.79368 528.14 3.61564 528.402 3.66728 528.673L4.50888 533.093ZM207 236L206.587 235.719L4.58662 532.719L5.00006 533L5.4135 533.281L207.413 236.281L207 236Z" fill="#828282"/>
<path d="M206.906 235.509C207.178 235.457 207.439 235.635 207.491 235.907L208.333 240.327C208.384 240.598 208.206 240.86 207.935 240.912C207.664 240.964 207.402 240.785 207.35 240.514L206.602 236.585L202.673 237.333C202.402 237.385 202.14 237.206 202.088 236.935C202.037 236.664 202.215 236.402 202.486 236.351L206.906 235.509ZM5.00012 533L4.58668 532.719L206.587 235.719L207 236L207.413 236.281L5.41355 533.281L5.00012 533Z" fill="#828282"/>
<path d="M31.1861 551.603L6.49056 536.943" stroke="#828282" stroke-dasharray="2 2"/>
<path d="M61.8986 559.76L34.5844 543.028" stroke="black"/>
<line x1="61.7197" y1="559.29" x2="55.4077" y2="567.3" stroke="black"/>
<path d="M56.0443 567.427L30 551.523" stroke="black"/>
<path d="M30.3244 551.903L34.9023 543.401" stroke="black"/>
<line x1="334" y1="241.5" x2="503" y2="241.5" stroke="#828282" stroke-dasharray="2 2"/>
<line x1="334" y1="566.5" x2="503" y2="566.5" stroke="#828282" stroke-dasharray="2 2"/>
<path d="M374 235.673C344.119 243.964 327.02 243.649 296 235.673" stroke="black"/>
<path d="M296 235.673C327.818 260.979 344.896 261.034 374 235.673" stroke="black"/>
<path d="M285 237.982C324.572 273.961 346.517 276.645 385 237.982" stroke="black"/>
<path d="M470.016 589.206L440 588.173" stroke="black"/>
<path d="M470.5 578.673C478.857 561.083 480.651 551.646 479.5 532.173C477.157 451.139 475.843 405.707 473.5 324.673C472.835 301.673 471.993 287.129 462 266.173C452.503 256.872 446.648 253.193 435.5 248.673C412.472 240.644 397.941 240.181 373.5 235.673" stroke="black"/>
<mask id="path-29-inside-1_0_1" fill="white">
<path d="M233 349.173H437V563.173H233V349.173Z"/>
</mask>
<path d="M437 349.173H436V563.173H437H438V349.173H437ZM233 563.173H234V349.173H233H232V563.173H233Z" fill="black" mask="url(#path-29-inside-1_0_1)"/>
<path d="M436.5 349.173C429.462 309.873 429.546 287.595 436.5 249.173" stroke="black"/>
<path d="M246.758 548.36H246V537H250.14C252.273 537 253.616 538.248 253.616 540.184C253.616 541.848 252.699 543.032 251.198 543.352L253.71 548.36H252.857L250.408 543.448H246.758V548.36ZM246.758 537.704V542.744H250.171C251.862 542.744 252.841 541.784 252.841 540.216C252.841 538.6 251.783 537.704 250.14 537.704H246.758Z" fill="black"/>
<path d="M262.51 548.36H255.906V537H262.494V537.704H256.664V542.312H261.973V543.016H256.664V547.656H262.51V548.36Z" fill="black"/>
<path d="M267.935 548.36L263.622 537H264.428L267.667 545.496C267.904 546.104 268.125 546.696 268.362 547.432C268.599 546.68 268.899 545.848 269.041 545.48L272.265 537H273.039L268.741 548.36H267.935Z" fill="black"/>
<path d="M281.226 548.36H274.622V537H281.211V537.704H275.38V542.312H280.689V543.016H275.38V547.656H281.226V548.36Z" fill="black"/>
<path d="M282.338 537.704V537H290.143V537.704H286.62V548.36H285.862V537.704H282.338Z" fill="black"/>
<path d="M292.477 537V548.36H291.718V537H292.477Z" fill="black"/>
<path d="M296.072 548.36H295.313V537H299.453C301.586 537 302.929 538.248 302.929 540.184C302.929 541.848 302.012 543.032 300.511 543.352L303.024 548.36H302.17L299.721 543.448H296.072V548.36ZM296.072 537.704V542.744H299.484C301.175 542.744 302.155 541.784 302.155 540.216C302.155 538.6 301.096 537.704 299.453 537.704H296.072Z" fill="black"/>
<path d="M234.696 249.101L210 234.441" stroke="#828282" stroke-dasharray="2 2"/>
<path d="M233.679 349.343L61.5 559.5" stroke="black"/>
<line y1="-0.5" x2="63.3482" y2="-0.5" transform="matrix(0.978717 -0.205215 -0.205215 -0.978717 234.1 248.173)" stroke="black"/>
<path d="M234.5 248.173C250.765 291.272 248.196 314.277 233.5 349.673" stroke="black"/>
<path d="M234.5 248.5L34.6759 543.77" stroke="black"/>
</svg>
