<svg width="600" height="800" viewBox="0 0 600 800" fill="none" xmlns="http://www.w3.org/2000/svg">
<rect width="600" height="800" fill="#302F2F"/>
<rect width="600" height="800" fill="white"/>
<path d="M538.444 607.176L502.138 606.042" stroke="black"/>
<path d="M495.878 589.389C497.896 596.636 499.401 600.346 502.682 606.399" stroke="black"/>
<line x1="502.653" y1="606.56" x2="503.787" y2="617.9" stroke="black"/>
<line y1="-0.5" x2="11.3966" y2="-0.5" transform="matrix(-0.0995037 0.995037 0.995037 0.0995037 538.444 607.743)" stroke="black"/>
<path d="M500 347V191" stroke="#828282" stroke-dasharray="2 2"/>
<path d="M270 348V191" stroke="#828282" stroke-dasharray="2 2"/>
<path d="M269 589C359.276 595.679 409.64 595.655 499 589" stroke="black"/>
<path d="M496.839 347.844C497.035 347.649 497.035 347.332 496.839 347.137L493.657 343.955C493.462 343.76 493.146 343.76 492.95 343.955C492.755 344.15 492.755 344.467 492.95 344.662L495.779 347.49L492.95 350.319C492.755 350.514 492.755 350.831 492.95 351.026C493.146 351.221 493.462 351.221 493.657 351.026L496.839 347.844ZM270.82 347.49L270.82 347.99L496.486 347.99L496.486 347.49L496.486 346.99L270.82 346.99L270.82 347.49Z" fill="#828282"/>
<path d="M270.466 347.844C270.271 347.649 270.271 347.332 270.466 347.137L273.648 343.955C273.844 343.76 274.16 343.76 274.356 343.955C274.551 344.15 274.551 344.467 274.356 344.662L271.527 347.49L274.356 350.319C274.551 350.514 274.551 350.831 274.356 351.026C274.16 351.221 273.844 351.221 273.648 351.026L270.466 347.844ZM496.486 347.49L496.486 347.99L270.82 347.99L270.82 347.49L270.82 346.99L496.486 346.99L496.486 347.49Z" fill="#828282"/>
<path d="M577.354 227.304C577.158 227.108 576.842 227.108 576.646 227.304L573.464 230.486C573.269 230.681 573.269 230.997 573.464 231.193C573.66 231.388 573.976 231.388 574.172 231.193L577 228.364L579.828 231.193C580.024 231.388 580.34 231.388 580.536 231.193C580.731 230.997 580.731 230.681 580.536 230.486L577.354 227.304ZM577 591.671L577.5 591.671L577.5 227.657L577 227.657L576.5 227.657L576.5 591.671L577 591.671Z" fill="#828282"/>
<path d="M577.354 592.025C577.158 592.22 576.842 592.22 576.646 592.025L573.464 588.843C573.269 588.647 573.269 588.331 573.464 588.136C573.66 587.94 573.976 587.94 574.172 588.136L577 590.964L579.828 588.136C580.024 587.94 580.34 587.94 580.536 588.136C580.731 588.331 580.731 588.647 580.536 588.843L577.354 592.025ZM577 227.657L577.5 227.657L577.5 591.671L577 591.671L576.5 591.671L576.5 227.657L577 227.657Z" fill="#828282"/>
<path d="M497.973 189.455C498.169 189.259 498.169 188.943 497.973 188.748L494.792 185.566C494.596 185.37 494.28 185.37 494.084 185.566C493.889 185.761 493.889 186.077 494.084 186.273L496.913 189.101L494.084 191.93C493.889 192.125 493.889 192.441 494.084 192.637C494.28 192.832 494.596 192.832 494.792 192.637L497.973 189.455ZM271.954 189.101L271.954 189.601L497.62 189.601L497.62 189.101L497.62 188.601L271.954 188.601L271.954 189.101Z" fill="#828282"/>
<path d="M271.6 189.455C271.405 189.259 271.405 188.943 271.6 188.748L274.782 185.566C274.978 185.37 275.294 185.37 275.49 185.566C275.685 185.761 275.685 186.077 275.49 186.273L272.661 189.101L275.49 191.93C275.685 192.125 275.685 192.441 275.49 192.637C275.294 192.832 274.978 192.832 274.782 192.637L271.6 189.455ZM497.62 189.101L497.62 189.601L271.954 189.601L271.954 189.101L271.954 188.601L497.62 188.601L497.62 189.101Z" fill="#828282"/>
<path d="M39.6951 576.479L11.6903 559.854" stroke="#828282" stroke-dasharray="2 2"/>
<path d="M74.523 585.729L43.5486 566.754" stroke="black"/>
<line x1="74.2675" y1="585.154" x2="67.1097" y2="594.237" stroke="black"/>
<path d="M67.8842 594.423L38.35 576.388" stroke="black"/>
<path d="M38.7179 576.819L43.9091 567.177" stroke="black"/>
<line x1="383" y1="224.5" x2="575" y2="224.5" stroke="#828282" stroke-dasharray="2 2"/>
<line x1="383" y1="592.5" x2="575" y2="592.5" stroke="#828282" stroke-dasharray="2 2"/>
<path d="M428 218C394.289 227.513 374.997 227.152 340 218" stroke="black"/>
<path d="M340 218C375.898 247.301 395.165 247.365 428 218" stroke="black"/>
<path d="M327 220C372.112 262.404 397.129 265.567 441 220" stroke="black"/>
<path d="M537.328 619.121L503.29 617.949" stroke="black"/>
<path d="M538.399 607C547.91 587.05 549.953 576.349 548.642 554.264C545.975 462.363 544.48 410.837 541.813 318.936C541.056 292.851 540.098 276.357 528.725 252.59C517.916 242.041 511.252 237.87 498.564 232.743C472.355 223.637 455.817 223.112 428 218" stroke="black"/>
<mask id="path-29-inside-1_0_1" fill="white">
<path d="M269 347H500V590H269V347Z"/>
</mask>
<path d="M500 347H499V590H500H501V347H500ZM269 590H270V347H269H268V590H269Z" fill="black" mask="url(#path-29-inside-1_0_1)"/>
<path d="M499.321 346.924C491.34 302.357 491.435 277.093 499.321 233.524" stroke="black"/>
<path d="M283.864 573H283V560H287.719C290.15 560 291.681 561.428 291.681 563.644C291.681 565.548 290.636 566.903 288.925 567.269L291.789 573H290.816L288.025 567.379H283.864V573ZM283.864 560.806V566.573H287.755C289.682 566.573 290.798 565.475 290.798 563.68C290.798 561.831 289.592 560.806 287.719 560.806H283.864Z" fill="black"/>
<path d="M301.82 573H294.291V560H301.802V560.806H295.156V566.079H301.207V566.885H295.156V572.194H301.82V573Z" fill="black"/>
<path d="M308.004 573L303.087 560H304.005L307.697 569.723C307.968 570.418 308.22 571.096 308.49 571.938C308.76 571.077 309.102 570.125 309.264 569.704L312.938 560H313.821L308.922 573H308.004Z" fill="black"/>
<path d="M323.154 573H315.626V560H323.136V560.806H316.49V566.079H322.542V566.885H316.49V572.194H323.154V573Z" fill="black"/>
<path d="M324.421 560.806V560H333.318V560.806H329.302V573H328.437V560.806H324.421Z" fill="black"/>
<path d="M335.978 560V573H335.113V560H335.978Z" fill="black"/>
<path d="M340.076 573H339.211V560H343.93C346.361 560 347.892 561.428 347.892 563.644C347.892 565.548 346.847 566.903 345.136 567.269L348 573H347.027L344.236 567.379H340.076V573ZM340.076 560.806V566.573H343.966C345.893 566.573 347.009 565.475 347.009 563.68C347.009 561.831 345.803 560.806 343.93 560.806H340.076Z" fill="black"/>
<path d="M270.475 233.442L242.47 216.817" stroke="#828282" stroke-dasharray="2 2"/>
<line y1="-0.5" x2="71.8369" y2="-0.5" transform="matrix(0.978717 -0.205215 -0.205215 -0.978717 269.799 232.389)" stroke="black"/>
<path d="M271.07 232C288.475 281.256 285.726 307.547 270 348" stroke="black"/>
</svg>
