<svg width="554" height="438" viewBox="0 0 554 438" fill="none" xmlns="http://www.w3.org/2000/svg">
<path d="M327.56 421.042H326.801V409.682H330.941C333.074 409.682 334.417 410.93 334.417 412.866C334.417 414.53 333.5 415.714 331.999 416.034L334.512 421.042H333.658L331.209 416.13H327.56V421.042ZM327.56 410.386V415.426H330.972C332.663 415.426 333.643 414.466 333.643 412.898C333.643 411.282 332.584 410.386 330.941 410.386H327.56Z" fill="black"/>
<path d="M343.311 421.042H336.707V409.682H343.296V410.386H337.465V414.994H342.774V415.698H337.465V420.338H343.311V421.042Z" fill="black"/>
<path d="M348.736 421.042L344.423 409.682H345.229L348.468 418.178C348.705 418.786 348.926 419.378 349.163 420.114C349.4 419.362 349.7 418.53 349.842 418.162L353.066 409.682H353.84L349.542 421.042H348.736Z" fill="black"/>
<path d="M362.028 421.042H355.423V409.682H362.012V410.386H356.182V414.994H361.49V415.698H356.182V420.338H362.028V421.042Z" fill="black"/>
<path d="M363.139 410.386V409.682H370.944V410.386H367.421V421.042H366.663V410.386H363.139Z" fill="black"/>
<path d="M373.278 409.682V421.042H372.519V409.682H373.278Z" fill="black"/>
<path d="M376.873 421.042H376.114V409.682H380.254C382.387 409.682 383.73 410.93 383.73 412.866C383.73 414.53 382.814 415.714 381.313 416.034L383.825 421.042H382.972L380.523 416.13H376.873V421.042ZM376.873 410.386V415.426H380.286C381.976 415.426 382.956 414.466 382.956 412.898C382.956 411.282 381.897 410.386 380.254 410.386H376.873Z" fill="black"/>
<path d="M157.34 175.682C155.464 108.902 155.744 71.4616 157.34 4.68202" stroke="#828282" stroke-dasharray="2 2"/>
<path d="M392.801 175.682C394.678 108.902 394.398 71.4616 392.801 4.68202" stroke="#828282" stroke-dasharray="2 2"/>
<line x1="275.84" y1="436.682" x2="546.84" y2="436.682" stroke="#828282" stroke-dasharray="2 2"/>
<line x1="275.84" y1="25.6821" x2="546.84" y2="25.682" stroke="#828282" stroke-dasharray="2 2"/>
<path d="M550.194 27.3285C549.999 27.1332 549.682 27.1332 549.487 27.3285L546.305 30.5105C546.11 30.7057 546.11 31.0223 546.305 31.2176C546.5 31.4129 546.817 31.4129 547.012 31.2176L549.84 28.3891L552.669 31.2176C552.864 31.4129 553.181 31.4129 553.376 31.2176C553.571 31.0223 553.571 30.7057 553.376 30.5105L550.194 27.3285ZM549.84 434.682L550.34 434.682L550.34 27.6821L549.84 27.6821L549.34 27.6821L549.34 434.682L549.84 434.682Z" fill="#828282"/>
<path d="M550.194 435.036C549.999 435.231 549.682 435.231 549.487 435.036L546.305 431.854C546.11 431.658 546.11 431.342 546.305 431.146C546.5 430.951 546.817 430.951 547.012 431.146L549.84 433.975L552.669 431.146C552.864 430.951 553.181 430.951 553.376 431.146C553.571 431.342 553.571 431.658 553.376 431.854L550.194 435.036ZM549.84 27.682L550.34 27.682L550.34 434.682L549.84 434.682L549.34 434.682L549.34 27.682L549.84 27.682Z" fill="#828282"/>
<path d="M391.194 176.036C391.389 175.84 391.389 175.524 391.194 175.328L388.012 172.146C387.817 171.951 387.5 171.951 387.305 172.146C387.11 172.342 387.11 172.658 387.305 172.854L390.133 175.682L387.305 178.51C387.11 178.706 387.11 179.022 387.305 179.218C387.5 179.413 387.817 179.413 388.012 179.218L391.194 176.036ZM159.84 175.682L159.84 176.182L390.84 176.182L390.84 175.682L390.84 175.182L159.84 175.182L159.84 175.682Z" fill="#828282"/>
<path d="M159.487 176.036C159.292 175.84 159.292 175.524 159.487 175.328L162.669 172.146C162.864 171.951 163.181 171.951 163.376 172.146C163.571 172.342 163.571 172.658 163.376 172.854L160.548 175.682L163.376 178.51C163.571 178.706 163.571 179.022 163.376 179.218C163.181 179.413 162.864 179.413 162.669 179.218L159.487 176.036ZM390.84 175.682L390.84 176.182L159.84 176.182L159.84 175.682L159.84 175.182L390.84 175.182L390.84 175.682Z" fill="#828282"/>
<path d="M391.194 4.03559C391.389 3.84032 391.389 3.52374 391.194 3.32848L388.012 0.146498C387.817 -0.048764 387.5 -0.0487641 387.305 0.146498C387.11 0.34176 387.11 0.658343 387.305 0.853605L390.133 3.68203L387.305 6.51046C387.11 6.70572 387.11 7.0223 387.305 7.21757C387.5 7.41283 387.817 7.41283 388.012 7.21757L391.194 4.03559ZM159.84 3.68202L159.84 4.18202L390.84 4.18203L390.84 3.68203L390.84 3.18203L159.84 3.18202L159.84 3.68202Z" fill="#828282"/>
<path d="M159.487 4.03554C159.292 3.84028 159.292 3.5237 159.487 3.32844L162.669 0.146454C162.864 -0.0488086 163.181 -0.0488087 163.376 0.146453C163.571 0.341716 163.571 0.658298 163.376 0.85356L160.548 3.68199L163.376 6.51041C163.571 6.70568 163.571 7.02226 163.376 7.21752C163.181 7.41278 162.864 7.41278 162.669 7.21752L159.487 4.03554ZM390.84 3.6819L390.84 4.1819L159.84 4.18199L159.84 3.68199L159.84 3.18199L390.84 3.1819L390.84 3.6819Z" fill="#828282"/>
<path d="M140.081 24.4101C140.122 24.1371 139.935 23.8819 139.662 23.8401L135.214 23.1587C134.941 23.1168 134.686 23.3042 134.644 23.5772C134.602 23.8501 134.79 24.1053 135.063 24.1471L139.016 24.7529L138.411 28.7067C138.369 28.9797 138.556 29.2349 138.829 29.2767C139.102 29.3185 139.357 29.1311 139.399 28.8582L140.081 24.4101ZM1.09432 126.03L1.39026 126.433L139.882 24.7374L139.586 24.3343L139.29 23.9313L0.798387 125.627L1.09432 126.03Z" fill="#828282"/>
<path d="M1.01857 126.524C0.745613 126.482 0.558237 126.227 0.600057 125.954L1.2815 121.506C1.32332 121.233 1.57849 121.045 1.85145 121.087C2.1244 121.129 2.31178 121.384 2.26997 121.657L1.66424 125.611L5.61811 126.217C5.89106 126.259 6.07843 126.514 6.03663 126.787C5.9948 127.06 5.73964 127.247 5.46667 127.205L1.01857 126.524ZM139.586 24.3342L139.882 24.7372L1.39022 126.433L1.09429 126.03L0.798349 125.627L139.29 23.9312L139.586 24.3342Z" fill="#828282"/>
<line x1="14.7085" y1="149.164" x2="0.400575" y2="130.01" stroke="#828282" stroke-dasharray="2 2"/>
<line x1="157.002" y1="44.6914" x2="142.418" y2="25.1679" stroke="#828282" stroke-dasharray="2 2"/>
<path d="M392.84 174.682H392.34V431.682H392.84H393.34V174.682H392.84ZM157.84 431.682H158.34V174.682H157.84H157.34V431.682H157.84Z" fill="black"/>
<path d="M392.746 175.206L473.84 230.102" stroke="black"/>
<line y1="-0.5" x2="103.6" y2="-0.5" transform="matrix(0.598454 -0.801157 -0.801157 -0.598454 473.84 230.682)" stroke="black"/>
<line x1="535.544" y1="148.085" x2="392.544" y2="43.085" stroke="black"/>
<line x1="392.68" y1="43.1557" x2="318.68" y2="18.1557" stroke="black"/>
<path d="M157.935 175.206L76.8404 230.102" stroke="black"/>
<line x1="76.4398" y1="230.981" x2="14.4398" y2="147.981" stroke="black"/>
<line y1="-0.5" x2="177.409" y2="-0.5" transform="matrix(0.806046 -0.591852 -0.591852 -0.806046 14.8404 147.682)" stroke="black"/>
<line y1="-0.5" x2="78.1089" y2="-0.5" transform="matrix(0.947395 -0.320066 -0.320066 -0.947395 157.84 42.682)" stroke="black"/>
<path d="M318.84 18.182C287.715 38.934 268.747 39.5247 231.84 18.182" stroke="black"/>
<path d="M326.34 20.682C296.628 51.0536 260.284 51.6424 224.34 20.682" stroke="black"/>
<path d="M231.84 18.182C265.817 27.9624 284.858 28.197 318.84 18.182" stroke="black"/>
<path d="M157.84 431.182C251.093 438.544 302.567 438.649 392.84 431.182" stroke="black"/>
</svg>
