<svg width="800" height="600" viewBox="0 0 800 600" fill="none" xmlns="http://www.w3.org/2000/svg">
<rect width="800" height="600" fill="#1A1A1A"/>
<rect width="800" height="600" fill="white"/>
<path d="M432.758 511.36H432V500H436.14C438.273 500 439.616 501.248 439.616 503.184C439.616 504.848 438.699 506.032 437.198 506.352L439.71 511.36H438.857L436.408 506.448H432.758V511.36ZM432.758 500.704V505.744H436.171C437.862 505.744 438.841 504.784 438.841 503.216C438.841 501.6 437.783 500.704 436.14 500.704H432.758Z" fill="black"/>
<path d="M448.51 511.36H441.906V500H448.494V500.704H442.664V505.312H447.973V506.016H442.664V510.656H448.51V511.36Z" fill="black"/>
<path d="M453.935 511.36L449.622 500H450.428L453.667 508.496C453.904 509.104 454.125 509.696 454.362 510.432C454.599 509.68 454.899 508.848 455.041 508.48L458.265 500H459.039L454.741 511.36H453.935Z" fill="black"/>
<path d="M467.226 511.36H460.622V500H467.211V500.704H461.38V505.312H466.689V506.016H461.38V510.656H467.226V511.36Z" fill="black"/>
<path d="M468.338 500.704V500H476.143V500.704H472.62V511.36H471.862V500.704H468.338Z" fill="black"/>
<path d="M478.477 500V511.36H477.718V500H478.477Z" fill="black"/>
<path d="M482.072 511.36H481.313V500H485.453C487.586 500 488.929 501.248 488.929 503.184C488.929 504.848 488.012 506.032 486.511 506.352L489.024 511.36H488.17L485.721 506.448H482.072V511.36ZM482.072 500.704V505.744H485.484C487.175 505.744 488.155 504.784 488.155 503.216C488.155 501.6 487.096 500.704 485.453 500.704H482.072Z" fill="black"/>
<path d="M262.539 266C260.662 199.22 260.943 161.78 262.539 95" stroke="#828282" stroke-dasharray="2 2"/>
<path d="M498 266C499.877 199.22 499.596 161.78 498 95" stroke="#828282" stroke-dasharray="2 2"/>
<line x1="381.039" y1="527" x2="652.039" y2="527" stroke="#828282" stroke-dasharray="2 2"/>
<line x1="381.039" y1="116" x2="652.039" y2="116" stroke="#828282" stroke-dasharray="2 2"/>
<path d="M655.393 117.646C655.197 117.451 654.881 117.451 654.686 117.646L651.504 120.828C651.308 121.024 651.308 121.34 651.504 121.536C651.699 121.731 652.016 121.731 652.211 121.536L655.039 118.707L657.868 121.536C658.063 121.731 658.379 121.731 658.575 121.536C658.77 121.34 658.77 121.024 658.575 120.828L655.393 117.646ZM655.039 525L655.539 525L655.539 118L655.039 118L654.539 118L654.539 525L655.039 525Z" fill="#828282"/>
<path d="M655.393 525.354C655.197 525.549 654.881 525.549 654.686 525.354L651.504 522.172C651.308 521.976 651.308 521.66 651.504 521.464C651.699 521.269 652.015 521.269 652.211 521.464L655.039 524.293L657.868 521.464C658.063 521.269 658.379 521.269 658.575 521.464C658.77 521.66 658.77 521.976 658.575 522.172L655.393 525.354ZM655.039 118L655.539 118L655.539 525L655.039 525L654.539 525L654.539 118L655.039 118Z" fill="#828282"/>
<path d="M496.393 266.354C496.588 266.158 496.588 265.842 496.393 265.646L493.211 262.464C493.015 262.269 492.699 262.269 492.504 262.464C492.308 262.66 492.308 262.976 492.504 263.172L495.332 266L492.504 268.828C492.308 269.024 492.308 269.34 492.504 269.536C492.699 269.731 493.015 269.731 493.211 269.536L496.393 266.354ZM265.039 266L265.039 266.5L496.039 266.5L496.039 266L496.039 265.5L265.039 265.5L265.039 266Z" fill="#828282"/>
<path d="M264.686 266.354C264.49 266.158 264.49 265.842 264.686 265.646L267.868 262.464C268.063 262.269 268.38 262.269 268.575 262.464C268.77 262.66 268.77 262.976 268.575 263.172L265.746 266L268.575 268.828C268.77 269.024 268.77 269.34 268.575 269.535C268.38 269.731 268.063 269.731 267.868 269.535L264.686 266.354ZM496.039 266L496.039 266.5L265.039 266.5L265.039 266L265.039 265.5L496.039 265.5L496.039 266Z" fill="#828282"/>
<path d="M496.393 94.3536C496.588 94.1583 496.588 93.8417 496.393 93.6465L493.211 90.4645C493.015 90.2692 492.699 90.2692 492.504 90.4645C492.308 90.6597 492.308 90.9763 492.504 91.1716L495.332 94L492.504 96.8284C492.308 97.0237 492.308 97.3403 492.504 97.5355C492.699 97.7308 493.015 97.7308 493.211 97.5355L496.393 94.3536ZM265.039 94L265.039 94.5L496.039 94.5L496.039 94L496.039 93.5L265.039 93.5L265.039 94Z" fill="#828282"/>
<path d="M264.686 94.3535C264.49 94.1583 264.49 93.8417 264.686 93.6464L267.868 90.4644C268.063 90.2692 268.38 90.2692 268.575 90.4644C268.77 90.6597 268.77 90.9763 268.575 91.1715L265.746 94L268.575 96.8284C268.77 97.0237 268.77 97.3402 268.575 97.5355C268.38 97.7308 268.063 97.7308 267.868 97.5355L264.686 94.3535ZM496.039 93.9999L496.039 94.4999L265.039 94.5L265.039 94L265.039 93.5L496.039 93.4999L496.039 93.9999Z" fill="#828282"/>
<path d="M245.279 114.728C245.321 114.455 245.134 114.2 244.861 114.158L240.413 113.477C240.14 113.435 239.885 113.622 239.843 113.895C239.801 114.168 239.988 114.423 240.261 114.465L244.215 115.071L243.61 119.025C243.568 119.298 243.755 119.553 244.028 119.595C244.301 119.636 244.556 119.449 244.598 119.176L245.279 114.728ZM106.293 216.348L106.589 216.751L245.081 115.055L244.785 114.652L244.489 114.249L105.997 215.945L106.293 216.348Z" fill="#828282"/>
<path d="M106.217 216.842C105.944 216.8 105.757 216.545 105.799 216.272L106.48 211.824C106.522 211.551 106.777 211.363 107.05 211.405C107.323 211.447 107.511 211.702 107.469 211.975L106.863 215.929L110.817 216.535C111.09 216.577 111.277 216.832 111.235 217.105C111.194 217.378 110.938 217.565 110.666 217.523L106.217 216.842ZM244.785 114.652L245.081 115.055L106.589 216.751L106.293 216.348L105.997 215.945L244.489 114.249L244.785 114.652Z" fill="#828282"/>
<line x1="119.907" y1="239.482" x2="105.599" y2="220.328" stroke="#828282" stroke-dasharray="2 2"/>
<line x1="262.201" y1="135.009" x2="247.617" y2="115.486" stroke="#828282" stroke-dasharray="2 2"/>
<path d="M498.039 265H497.539V522H498.039H498.539V265H498.039ZM263.039 522H263.539V265H263.039H262.539V522H263.039Z" fill="black"/>
<path d="M497.945 265.524L579.039 320.42" stroke="black"/>
<line y1="-0.5" x2="103.6" y2="-0.5" transform="matrix(0.598454 -0.801157 -0.801157 -0.598454 579.039 321)" stroke="black"/>
<line x1="640.743" y1="238.403" x2="497.743" y2="133.403" stroke="black"/>
<line x1="497.879" y1="133.474" x2="423.879" y2="108.474" stroke="black"/>
<path d="M263.133 265.524L182.039 320.42" stroke="black"/>
<line x1="181.639" y1="321.299" x2="119.639" y2="238.299" stroke="black"/>
<line y1="-0.5" x2="177.409" y2="-0.5" transform="matrix(0.806046 -0.591852 -0.591852 -0.806046 120.039 238)" stroke="black"/>
<line y1="-0.5" x2="78.1089" y2="-0.5" transform="matrix(0.947395 -0.320066 -0.320066 -0.947395 263.039 133)" stroke="black"/>
<path d="M424.039 108.5C392.914 129.252 373.945 129.843 337.039 108.5" stroke="black"/>
<path d="M431.539 111C401.827 141.372 365.482 141.96 329.539 111" stroke="black"/>
<path d="M337.039 108.5C371.016 118.28 390.057 118.515 424.039 108.5" stroke="black"/>
<path d="M263.039 521.5C356.292 528.862 407.766 528.967 498.039 521.5" stroke="black"/>
</svg>
