<svg width="600" height="800" viewBox="0 0 600 800" fill="none" xmlns="http://www.w3.org/2000/svg">
<rect width="600" height="800" fill="#1A1A1A"/>
<rect width="600" height="800" fill="white"/>
<path d="M332.758 611.36H332V600H336.14C338.273 600 339.616 601.248 339.616 603.184C339.616 604.848 338.699 606.032 337.198 606.352L339.71 611.36H338.857L336.408 606.448H332.758V611.36ZM332.758 600.704V605.744H336.171C337.862 605.744 338.841 604.784 338.841 603.216C338.841 601.6 337.783 600.704 336.14 600.704H332.758Z" fill="black"/>
<path d="M348.51 611.36H341.906V600H348.494V600.704H342.664V605.312H347.973V606.016H342.664V610.656H348.51V611.36Z" fill="black"/>
<path d="M353.935 611.36L349.622 600H350.428L353.667 608.496C353.904 609.104 354.125 609.696 354.362 610.432C354.599 609.68 354.899 608.848 355.041 608.48L358.265 600H359.039L354.741 611.36H353.935Z" fill="black"/>
<path d="M367.226 611.36H360.622V600H367.211V600.704H361.38V605.312H366.689V606.016H361.38V610.656H367.226V611.36Z" fill="black"/>
<path d="M368.338 600.704V600H376.143V600.704H372.62V611.36H371.862V600.704H368.338Z" fill="black"/>
<path d="M378.477 600V611.36H377.718V600H378.477Z" fill="black"/>
<path d="M382.072 611.36H381.313V600H385.453C387.586 600 388.929 601.248 388.929 603.184C388.929 604.848 388.012 606.032 386.511 606.352L389.024 611.36H388.17L385.721 606.448H382.072V611.36ZM382.072 600.704V605.744H385.484C387.175 605.744 388.155 604.784 388.155 603.216C388.155 601.6 387.096 600.704 385.453 600.704H382.072Z" fill="black"/>
<path d="M162.539 366C160.662 299.22 160.943 261.78 162.539 195" stroke="#828282" stroke-dasharray="2 2"/>
<path d="M398 366C399.877 299.22 399.596 261.78 398 195" stroke="#828282" stroke-dasharray="2 2"/>
<line x1="281.039" y1="627" x2="552.039" y2="627" stroke="#828282" stroke-dasharray="2 2"/>
<line x1="281.039" y1="216" x2="552.039" y2="216" stroke="#828282" stroke-dasharray="2 2"/>
<path d="M555.393 217.646C555.197 217.451 554.881 217.451 554.686 217.646L551.504 220.828C551.308 221.024 551.308 221.34 551.504 221.536C551.699 221.731 552.016 221.731 552.211 221.536L555.039 218.707L557.868 221.536C558.063 221.731 558.379 221.731 558.575 221.536C558.77 221.34 558.77 221.024 558.575 220.828L555.393 217.646ZM555.039 625L555.539 625L555.539 218L555.039 218L554.539 218L554.539 625L555.039 625Z" fill="#828282"/>
<path d="M555.393 625.354C555.197 625.549 554.881 625.549 554.686 625.354L551.504 622.172C551.308 621.976 551.308 621.66 551.504 621.464C551.699 621.269 552.015 621.269 552.211 621.464L555.039 624.293L557.868 621.464C558.063 621.269 558.379 621.269 558.575 621.464C558.77 621.66 558.77 621.976 558.575 622.172L555.393 625.354ZM555.039 218L555.539 218L555.539 625L555.039 625L554.539 625L554.539 218L555.039 218Z" fill="#828282"/>
<path d="M396.393 366.354C396.588 366.158 396.588 365.842 396.393 365.646L393.211 362.464C393.015 362.269 392.699 362.269 392.504 362.464C392.308 362.66 392.308 362.976 392.504 363.172L395.332 366L392.504 368.828C392.308 369.024 392.308 369.34 392.504 369.536C392.699 369.731 393.015 369.731 393.211 369.536L396.393 366.354ZM165.039 366L165.039 366.5L396.039 366.5L396.039 366L396.039 365.5L165.039 365.5L165.039 366Z" fill="#828282"/>
<path d="M164.686 366.354C164.49 366.158 164.49 365.842 164.686 365.646L167.868 362.464C168.063 362.269 168.38 362.269 168.575 362.464C168.77 362.66 168.77 362.976 168.575 363.172L165.746 366L168.575 368.828C168.77 369.024 168.77 369.34 168.575 369.535C168.38 369.731 168.063 369.731 167.868 369.535L164.686 366.354ZM396.039 366L396.039 366.5L165.039 366.5L165.039 366L165.039 365.5L396.039 365.5L396.039 366Z" fill="#828282"/>
<path d="M396.393 194.354C396.588 194.158 396.588 193.842 396.393 193.646L393.211 190.464C393.015 190.269 392.699 190.269 392.504 190.464C392.308 190.66 392.308 190.976 392.504 191.172L395.332 194L392.504 196.828C392.308 197.024 392.308 197.34 392.504 197.536C392.699 197.731 393.015 197.731 393.211 197.536L396.393 194.354ZM165.039 194L165.039 194.5L396.039 194.5L396.039 194L396.039 193.5L165.039 193.5L165.039 194Z" fill="#828282"/>
<path d="M164.686 194.354C164.49 194.158 164.49 193.842 164.686 193.646L167.868 190.464C168.063 190.269 168.38 190.269 168.575 190.464C168.77 190.66 168.77 190.976 168.575 191.172L165.746 194L168.575 196.828C168.77 197.024 168.77 197.34 168.575 197.535C168.38 197.731 168.063 197.731 167.868 197.535L164.686 194.354ZM396.039 194L396.039 194.5L165.039 194.5L165.039 194L165.039 193.5L396.039 193.5L396.039 194Z" fill="#828282"/>
<path d="M145.279 214.728C145.321 214.455 145.134 214.2 144.861 214.158L140.413 213.477C140.14 213.435 139.885 213.622 139.843 213.895C139.801 214.168 139.988 214.423 140.261 214.465L144.215 215.071L143.61 219.025C143.568 219.298 143.755 219.553 144.028 219.595C144.301 219.636 144.556 219.449 144.598 219.176L145.279 214.728ZM6.29317 316.348L6.58911 316.751L145.081 215.055L144.785 214.652L144.489 214.249L5.99724 315.945L6.29317 316.348Z" fill="#828282"/>
<path d="M6.21743 316.842C5.94446 316.8 5.75709 316.545 5.79891 316.272L6.48035 311.824C6.52217 311.551 6.77734 311.363 7.0503 311.405C7.32325 311.447 7.51063 311.702 7.46882 311.975L6.86309 315.929L10.817 316.535C11.0899 316.577 11.2773 316.832 11.2355 317.105C11.1937 317.378 10.9385 317.565 10.6655 317.523L6.21743 316.842ZM144.785 214.652L145.081 215.055L6.58907 316.751L6.29314 316.348L5.9972 315.945L144.489 214.249L144.785 214.652Z" fill="#828282"/>
<line x1="19.9073" y1="339.482" x2="5.59943" y2="320.328" stroke="#828282" stroke-dasharray="2 2"/>
<line x1="162.201" y1="235.009" x2="147.617" y2="215.486" stroke="#828282" stroke-dasharray="2 2"/>
<path d="M398.039 365H397.539V622H398.039H398.539V365H398.039ZM163.039 622H163.539V365H163.039H162.539V622H163.039Z" fill="black"/>
<path d="M397.945 365.524L479.039 420.42" stroke="black"/>
<line y1="-0.5" x2="103.6" y2="-0.5" transform="matrix(0.598454 -0.801157 -0.801157 -0.598454 479.039 421)" stroke="black"/>
<line x1="540.743" y1="338.403" x2="397.743" y2="233.403" stroke="black"/>
<line x1="397.879" y1="233.474" x2="323.879" y2="208.474" stroke="black"/>
<path d="M163.133 365.524L82.0392 420.42" stroke="black"/>
<line x1="81.6386" y1="421.299" x2="19.6386" y2="338.299" stroke="black"/>
<line y1="-0.5" x2="177.409" y2="-0.5" transform="matrix(0.806046 -0.591852 -0.591852 -0.806046 20.0392 338)" stroke="black"/>
<line y1="-0.5" x2="78.1089" y2="-0.5" transform="matrix(0.947395 -0.320066 -0.320066 -0.947395 163.039 233)" stroke="black"/>
<path d="M324.039 208.5C292.914 229.252 273.945 229.843 237.039 208.5" stroke="black"/>
<path d="M331.539 211C301.827 241.372 265.482 241.96 229.539 211" stroke="black"/>
<path d="M237.039 208.5C271.016 218.28 290.057 218.515 324.039 208.5" stroke="black"/>
<path d="M163.039 621.5C256.292 628.862 307.766 628.967 398.039 621.5" stroke="black"/>
</svg>
